<?xml version="1.0" encoding="utf-8"?>
<!-- Generator: Adobe Illustrator 21.0.2, SVG Export Plug-In . SVG Version: 6.00 Build 0)  -->
<svg version="1.1" xmlns="http://www.w3.org/2000/svg" xmlns:xlink="http://www.w3.org/1999/xlink" x="0px" y="0px"
	 viewBox="0 0 2400 600" style="enable-background:new 0 0 2400 600;" xml:space="preserve">
<style type="text/css">
	.st0{display:none;}
	.st1{display:inline;}
	.st2{fill:#0263D4;}
	.st3{fill:#48D457;}
	.st4{fill:#FF7B3B;}
	.st5{fill:#0755AA;}
	.st6{fill:#055BAF;}
	.st7{fill:#41BF4E;}
	.st8{fill:#EF602E;}
</style>
<g id="Text" class="st0">
	<g class="st1">
		<path class="st2" d="M432.6,216.7c26.9-4.3,55.9-7.1,78.5-7.1c55.9,0,97,4.8,97,72.9c0,22.4-8.6,40.9-23.3,54.3
			c22.4,12.8,35.4,31.4,35.4,51.5c0,66.9-43.5,78.2-97.8,78.2c-27.4,0-57.6-1.6-85.7-4.6c-2.3-0.6-4-2.7-4-5
			c0-39.5-0.8-81.9-0.8-123.8C431.8,291,432.6,258.6,432.6,216.7z M513.8,304.4c12.4,0,23-5.9,23-17.8c0-11.6-10.5-16.8-20.7-16.8
			c-1.7,0-4.1,0.1-5,0.2c-0.1,10.8-0.3,21.4-0.4,34.4H513.8z M512,400.6h6.7c15,0,21-6.1,21-17c0-9.8-7.5-16.8-18.2-16.8h-10.3
			C511.4,377.9,511.7,389.3,512,400.6z"/>
		<path class="st2" d="M632.6,212.5c12.8-0.6,21.8-0.9,35.2-0.9c13.7,0,27.6,0.5,41.3,0.9c2.2,0,4,1.9,4,4.2
			c0.8,39.5,1.6,94,1.6,136c0,37.3,5.2,42.8,16.1,42.8c10.9,0,15.3-5.5,15.3-43c0-41.8,0.6-98.1,1.6-140.1
			c12.8-0.6,21.8-0.9,35.2-0.9c13.7,0,27.6,0.5,41.3,0.9c2.2,0,4,1.9,4,4.2c0.8,39.5,1.6,81.4,1.6,123.3c0,90.9-33,125.7-89.7,128.6
			c-72.5,0-109.1-23-109.1-128.6C631,298.1,631.6,254.4,632.6,212.5z"/>
		<path class="st2" d="M856.1,385.9c28.2,9.2,53.1,14.6,71.4,14.6c15,0,21.4-8.2,21.4-14.9c0-8.5-11.6-11.9-27-16.4
			c-30.3-8.9-75.2-22.2-75.2-86.9c0-68.1,40.2-72.9,95.4-72.9c23.3,0,50.8,3.6,77.7,9.2l-9.1,69.8c-18.8-8.8-47.5-17-72.6-17
			c-12.2,0-20.2,4-20.2,11.8c0,7.3,12.4,11.2,28.9,16.4c33.1,10.4,83,25.9,83,84.4c0,66.9-44.3,82.4-98.6,82.4
			c-27.4,0-56.8-1.6-84.9-4.6L856.1,385.9z"/>
		<path class="st2" d="M1051.7,385.9c28.2,9.2,53.1,14.6,71.4,14.6c15,0,21.4-8.2,21.4-14.9c0-8.5-11.6-11.9-27-16.4
			c-30.3-8.9-75.2-22.2-75.2-86.9c0-68.1,40.2-72.9,95.4-72.9c23.3,0,50.8,3.6,77.7,9.2l-9.1,69.8c-18.8-8.8-47.5-17-72.6-17
			c-12.2,0-20.2,4-20.2,11.8c0,7.3,12.4,11.2,28.9,16.4c33.1,10.4,83,25.9,83,84.4c0,66.9-44.3,82.4-98.6,82.4
			c-27.4,0-56.8-1.6-84.9-4.6L1051.7,385.9z"/>
		<path class="st2" d="M1246.3,212.5c12.8-0.6,21.8-0.9,35.2-0.9c13.7,0,27.6,0.5,41.3,0.9c2.2,0,4,1.9,4,4.2
			c0.8,39.5,1.6,79.8,1.6,121.7s-0.6,84-1.6,125.9c-12.8,0.6-21.8,0.9-35.2,0.9c-13.7,0-27.6-0.5-41.3-0.9c-2.2,0-4-1.9-4-4.2
			c-0.8-39.5-1.6-79.8-1.6-121.7S1245.3,254.4,1246.3,212.5z"/>
		<path class="st3" d="M1344.7,447.7c11.9-76.8,29.1-157.9,44-235.3c18-0.9,36.5-0.9,55.3-0.9c19.6,0,38.3,0.3,57.4,0.9
			c2.2,0,4.3,1.9,4.7,4.2c15.2,80.4,34.1,166.2,45.9,247.7c-12.7,0.6-21.6,0.9-35,0.9c-13.7,0-25.7,0-39.4-0.9
			c-2.2-0.1-4.3-1.9-4.7-4.2c-2.6-13.8-5-27.9-7.3-42h-37.4c-2.2,15.5-4.7,30.9-7.7,46.2c-12.9,0.6-19.9,0.9-33.3,0.9
			c-13.7,0-27.6-0.5-41.1-0.9c-2,0-3.4-1.5-3.4-3.5C1342.7,459.9,1344,452,1344.7,447.7z M1457.6,363.6
			c-4.3-31.4-8.2-62.9-12.4-94.2c-3.7,31.1-6.7,62.7-10.2,94.2H1457.6z"/>
		<path class="st3" d="M1568.2,212.5c12.8-0.6,70.1-0.9,83.5-0.9c13.7,0,56.6,0.5,70.3,0.9c2.2,0,4,1.9,4,4.2
			c0.2,12.8,0.4,24.5,0.4,36.3c0,10-0.1,20.1-0.4,30.9c-12.8,0.6-50.7,0.8-64,0.8c-3.1,0-8.5-0.1-15.3-0.2c-0.1,7.2-0.2,14.5-0.2,22
			c16,0.1,37.9,0.4,48.1,0.8c2.2,0,4,1.9,4,4.2c0.2,11.4,0.3,21.5,0.3,31.6c0,8.9-0.1,18-0.3,28.1h-52.2c0.1,7.4,0.1,14.6,0.2,21.8
			h4.9c13.7,0,57.6,0.3,71.2,0.8c2.2,0,4,1.9,4,4.2c0.2,12.8,0.4,24.5,0.4,36.3c0,10-0.1,20.1-0.4,30.9c-12.8,0.6-55.6,0.9-69,0.9
			c-13.7,0-71.9-1.3-85.6-1.8c-2.2,0-4-1.9-4-4.2c-0.8-39.5-1.6-79.8-1.6-121.7S1567.2,254.4,1568.2,212.5z"/>
		<path class="st3" d="M1851.9,209.5c22.5,0,46.3,2.8,72,7.1l-8.5,66.3h-71.6c-10.9,0-18.5,5.4-18.5,55.3c0,50,9.3,55.6,20.5,55.6h8
			c0-16.8-0.8-42.2-1.6-63.8c11.1-0.5,21.4-0.8,31.8-0.8c11.1,0,22.4,0.3,35,0.8c2.2,0.1,3.9,1.9,4,4.2c0.8,19.4,1.6,38.1,1.6,58.8
			c0,19.6-0.7,47.5-1.6,64.2c-27.7,5.2-43,8-72,8c-67.6,0-109.9-22-109.9-126.9C1741.2,239.5,1783.9,209.5,1851.9,209.5z"/>
		<path class="st4" d="M1944.8,399.3c10.4-0.5,20.1-0.7,29.8-0.7c11.2,0,22.4,0.3,34.6,0.7c2.2,0,4,1.9,4,4.2
			c0.2,11.3,0.3,21.7,0.3,32.2c0,9.3-0.1,18.6-0.3,28.7c-7.3,0.4-14.5,0.6-21.9,0.6c-13.8,0-27.8-0.6-42.5-1.4c-2.2-0.1-4-1.9-4-4.2
			c-0.2-11-0.3-21.1-0.3-31.2C1944.5,418.8,1944.6,409.4,1944.8,399.3z"/>
		<path class="st4" d="M2037.4,212.5c12.8-0.6,70.1-0.9,83.5-0.9c13.7,0,56.6,0.5,70.3,0.9c2.2,0,4,1.9,4,4.2
			c0.2,12.8,0.4,24.5,0.4,36.3c0,10-0.1,20.1-0.4,30.9c-12.8,0.6-50.7,0.8-64,0.8c-3.1,0-8.5-0.1-15.3-0.2c-0.1,7.2-0.2,14.5-0.2,22
			c16,0.1,37.9,0.4,48.1,0.8c2.2,0,4,1.9,4,4.2c0.2,11.4,0.3,21.5,0.3,31.6c0,8.9-0.1,18-0.3,28.1h-52.2c0.1,7.4,0.1,14.6,0.2,21.8
			h4.9c13.7,0,57.6,0.3,71.2,0.8c2.2,0,4,1.9,4,4.2c0.2,12.8,0.4,24.5,0.4,36.3c0,10-0.1,20.1-0.4,30.9c-12.8,0.6-55.6,0.9-69,0.9
			c-13.7,0-71.9-1.3-85.6-1.8c-2.2,0-4-1.9-4-4.2c-0.8-39.5-1.6-79.8-1.6-121.7S2036.4,254.4,2037.4,212.5z"/>
		<path class="st4" d="M2220.1,212.5c12.8-0.6,70.1-0.9,83.5-0.9c13.7,0,56.6,0.5,70.3,0.9c2.2,0,4,1.9,4,4.2
			c0.2,12.8,0.4,24.5,0.4,36.3c0,10-0.1,20.1-0.4,30.9c-12.8,0.6-50.7,0.8-64,0.8c-3.1,0-8.5-0.1-15.3-0.2c-0.1,7.2-0.2,14.5-0.2,22
			c16,0.1,37.9,0.4,48.1,0.8c2.2,0,4,1.9,4,4.2c0.2,11.4,0.3,21.5,0.3,31.6c0,8.9-0.1,18-0.3,28.1h-52.2c0.1,7.4,0.1,14.6,0.2,21.8
			h4.9c13.7,0,57.6,0.3,71.2,0.8c2.2,0,4,1.9,4,4.2c0.2,12.8,0.4,24.5,0.4,36.3c0,10-0.1,20.1-0.4,30.9c-12.8,0.6-55.6,0.9-69,0.9
			c-13.7,0-71.9-1.3-85.6-1.8c-2.2,0-4-1.9-4-4.2c-0.8-39.5-1.6-79.8-1.6-121.7S2219.1,254.4,2220.1,212.5z"/>
	</g>
</g>
<g id="Text_V2">
	<path class="st2" d="M584.7,336.7c0,0,23.3-7.4,23.3-59.4s-39.7-62.7-48.7-65.8c-9-3.1-116.7-6.2-126.7,5.1c0,0-2.9,239,1.1,244.7
		s87,6,114.7,4.3c27.7-1.7,71-17.7,71-67.3S584.7,336.7,584.7,336.7z M503.7,263.7c3.7-3.7,43.3-2.8,43.3,22.6
		c0,25.3-40.8,26.7-43.3,24.1C501.1,307.8,500,267.4,503.7,263.7z M505.5,407.8c-2.6-2.6-3.7-43,0-46.7c3.7-3.7,43.3-2.8,43.3,22.6
		C548.8,409,508,410.4,505.5,407.8z"/>
	<path class="st2" d="M632.6,212.5c6.1-6.1,66.8-5.6,72.4,0c5.6,5.6-14.8,183,25.8,183S751.3,217,756,212.3c4.7-4.7,66.3-3.3,70.7,1
		c4.3,4.3,47.3,255.2-97,255.2S632.6,212.5,632.6,212.5z"/>
	<path class="st2" d="M856.1,385.9c5.2-3.9,22.9,8.5,44.5,11.1c21.7,2.6,43.7,3.6,47.7-8.1s-16-17-25-19s-44-15.7-53.7-25.7
		c-9.7-10-27.3-39-22.7-73.3s16-51.7,42-59s54.8-8.6,76.7-7c21.9,1.6,50,6.2,54,13.7c4,7.6-0.7,63.1-9,66.6
		c-8.3,3.5-30.7-11.7-49-15c-18.3-3.3-38.7-2.3-42.3,7c-3.7,9.3,4,15.3,20.3,20.7c16.3,5.3,56,15.3,71.7,34.7
		C1027,352,1037,381.3,1026,413s-35,45.1-59.7,50.3c-24.7,5.2-56.1,7.3-70.1,6.6s-46.4-3-50-8.1S850.9,389.8,856.1,385.9z"/>
	<path class="st2" d="M1326.7,464.3c4.9-6,4.4-249.6,0-252.8c-4.4-3.2-76-6.3-80.6-2s-3.6,252.2,0,254.8
		C1249.7,467,1321.8,470.3,1326.7,464.3z"/>
	<path class="st3" d="M1504.9,214.2c-5.2-5.7-111.6-5.5-116.3-1.7s-49,247.5-46,251c3,3.5,74.4,3.9,77.8,0.8s2.9-43.3,7.7-46.2
		c4.8-2.9,32.2-4.3,37.4,0c5.2,4.3,2.9,43.1,8.2,45.8s75.3,5.7,78.3,0.3S1510.1,219.8,1504.9,214.2z M1461.3,366.3
		c-4.4,4.4-27.6,3.6-31.3,0s6.1-96.8,15.2-96.8C1454.3,269.4,1465.6,361.9,1461.3,366.3z"/>
	<path class="st3" d="M1568.2,212.5c5.3-4.8,154.6-2.5,157.1,0c2.5,2.5,3.2,69.7,1,72c-2.2,2.3-77.3-2.6-79.7,0
		c-2.4,2.7-2.2,19.6-0.2,22c1.9,2.4,50.4-1.2,52.2,1.4c1.9,2.7,2,60.8-0.1,63.1s-50.2-2.5-52.4,1.2c-2.2,3.7-2.1,18.3,0.4,20.6
		c2.6,2.4,77.6-3.5,79.7,0c2.2,3.5,3.3,69.7,1.3,72.2s-156.1,3.2-159.5-0.7S1562.9,217.3,1568.2,212.5z"/>
	<path class="st3" d="M1923.9,222.5c5.8,8.2-1,55.1-8.5,60.5c-7.5,5.3-57.5-21.7-81,2.2c-23.5,23.8-24.8,113.7,14.7,113.7
		c18.5,0,23.9-23.8,25.3-32.8c1.3-9,0-22.8,3.9-26.1c3.9-3.3,45.8-0.6,48.9,2.6c3.1,3.2,5,20.2,5,44c0,38.1-5.8,66-9.1,70.7
		c-6.1,8.5-113.6,24.3-145.6-10.2s-42.7-90-35-136.8s34.8-85.9,85-96.3C1877.7,203.4,1918.2,214.3,1923.9,222.5z"/>
	<path class="st4" d="M1948.8,399.3c5.5-5.5,63.5-3.1,67.7,1.1c4.2,4.2,4.5,60.2,0.8,64c-3.8,3.8-64.5,2.6-68.4-1.3
		C1944.9,459.1,1943.3,404.8,1948.8,399.3z"/>
	<path class="st4" d="M2037.4,212.9c5.3-4.8,154.6-2.5,157.1,0c2.5,2.5,3.2,69.7,1,72c-2.2,2.3-77.3-2.6-79.7,0
		c-2.4,2.7-2.2,19.6-0.2,22c1.9,2.4,50.4-1.2,52.2,1.4c1.9,2.7,2,60.8-0.1,63.1c-2.1,2.4-50.2-2.5-52.4,1.2s-2.1,18.3,0.4,20.6
		c2.6,2.4,77.6-3.5,79.7,0c2.2,3.5,3.3,69.7,1.3,72.2c-2,2.5-156.1,3.2-159.5-0.7C2034.1,461.1,2032.1,217.7,2037.4,212.9z"/>
	<path class="st4" d="M2220.1,212.5c5.3-4.8,154.6-2.5,157.1,0c2.5,2.5,3.2,69.7,1,72s-77.3-2.6-79.7,0c-2.4,2.7-2.2,19.6-0.2,22
		c1.9,2.4,50.4-1.2,52.2,1.4c1.9,2.7,2,60.8-0.1,63.1c-2.1,2.4-50.2-2.5-52.4,1.2c-2.2,3.7-2.1,18.3,0.4,20.6
		c2.6,2.4,77.6-3.5,79.7,0c2.2,3.5,3.3,69.7,1.3,72.2s-156.1,3.2-159.5-0.7S2214.8,217.3,2220.1,212.5z"/>
	<path class="st2" d="M1053.3,386.9c5.2-3.9,22.9,8.5,44.5,11.1c21.7,2.6,43.7,3.6,47.7-8.1s-16-17-25-19s-44-15.7-53.7-25.7
		c-9.7-10-27.3-39-22.7-73.3c4.7-34.3,16-51.7,42-59s54.8-8.6,76.7-7c21.9,1.6,50,6.2,54,13.7c4,7.6-0.7,63.1-9,66.6
		c-8.3,3.5-30.7-11.7-49-15c-18.3-3.3-38.7-2.3-42.3,7c-3.7,9.3,4,15.3,20.3,20.7c16.3,5.3,56,15.3,71.7,34.7
		c15.7,19.3,25.7,48.7,14.7,80.3s-35,45.1-59.7,50.3c-24.7,5.2-56.1,7.3-70.1,6.6s-46.4-3-50-8.1
		C1039.8,457.7,1048,390.8,1053.3,386.9z"/>
</g>
<g id="Icons">
	<g id="Rööpad">
		<path class="st4" d="M266,500.8H125.6c0,0-59.4,50.7-59.4,60s12.5,22.1,18.3,21.3s20-24.9,26.2-26.9c6.2-2,85.1-2.6,85.1-2.6h0.1
			c0,0,78.9,0.6,85.1,2.6c6.2,2,20.4,26.2,26.2,26.9c5.8,0.8,18.3-12,18.3-21.3S266,500.8,266,500.8z M248.1,523.6
			c-1.8,4.2-52.3,2.7-52.3,2.7h-0.1c0,0-50.4,1.5-52.3-2.7c-1.8-4.2,23-22,23-22h58.6C225.1,501.5,249.9,519.3,248.1,523.6z"/>
	</g>
	<g id="Trolli_sarved">
		<path class="st2" d="M154.7,100.7c0,0-45.1-78.2-49.9-81S71,14.8,69.4,21.5c-1.7,6.7,29.6,51.2,51.7,81.9"/>
		<path class="st2" d="M236.9,100.7c0,0,45.1-78.2,49.9-81c4.8-2.8,33.8-4.9,35.5,1.8s-29.6,51.2-51.7,81.9"/>
	</g>
	<g id="Bussi_kere">
		<path class="st3" d="M370.5,172.7c-1.9-19.2-2.2-51.5-11.9-62.5c-9.7-11-130.9-12.8-162.7-12.8s-153,1.8-162.7,12.8
			c-9.7,11-10,43.3-11.9,62.5c-1.9,19.2-2.6,143.2-1.8,162.9c0.8,19.6,2.2,85.5,4.5,103.2c2.2,17.7,3.6,46.6,9.1,51.6
			c5.4,4.9,32.7,8,47.5,8.5c14.8,0.6,68.2,3.8,115.2,3.8s100.4-3.2,115.2-3.8c14.8-0.6,42.1-3.6,47.5-8.6c5.5-5,6.9-33.9,9.1-51.6
			c2.2-17.7,3.6-83.6,4.5-103.2C373,315.9,372.4,191.9,370.5,172.7z M101.1,462.2c-18,0-32.5-14.6-32.5-32.5s14.6-32.5,32.5-32.5
			s32.5,14.6,32.5,32.5C133.7,447.6,119.1,462.2,101.1,462.2z M290.5,462.2c-18,0-32.5-14.6-32.5-32.5s14.6-32.5,32.5-32.5
			c18,0,32.5,14.6,32.5,32.5C323,447.6,308.5,462.2,290.5,462.2z M337.4,355.1c-6.7,9.8-54.1,19.1-141.6,19.1s-134.9-9.3-141.6-19.1
			s-3.4-71.2,2.8-106.3s34.2-104.9,138.8-104.9c28.3,0,51,5.1,69.2,13.3c49,22,65.1,66,69.6,91.6
			C340.8,283.9,344.2,345.3,337.4,355.1z"/>
	</g>
	<g id="Rattad_4_">
		<path class="st5" d="M1239.6,208.3c0.9,5.4-0.2,13.4,8.6,12c8.8-1.4,6.3-8.3,5.4-13.7"/>
		<path class="st5" d="M1296,199.4c0.9,5.4,4.3,12.7-4.5,14.1c-8.8,1.4-8.5-6-9.4-11.4"/>
	</g>
	<g id="Sarved_2_">
		<path class="st6" d="M1245.6,118c0,0-12.8-15.8-13.9-16.3c-1.2-0.5-7.7,0.1-7.8,1.6s8.4,10.3,14.4,16.4"/>
		<path class="st6" d="M1263.9,115.2c0,0,7.3-19,8.3-19.8c1-0.8,7.3-2.3,7.9-0.8c0.6,1.4-4.8,12.4-8.6,20"/>
	</g>
	<g id="Kere_4_">
		<path class="st2" d="M1295.5,127.2c-1.1-4.2-2.3-11.4-4.8-13.5c-2.5-2.1-29.5,1.8-36.6,2.9c-7.1,1.1-33.9,5.8-35.7,8.5
			c-1.8,2.8-0.7,10-0.5,14.3c0.2,4.3,4.4,31.9,5.3,36.3c0.9,4.3,3.5,18.9,4.6,22.8c1.1,3.8,2.4,10.2,3.8,11.1
			c1.4,0.9,7.6,0.6,10.9,0.2s15.3-1.6,25.7-3.2c10.4-1.6,22.2-4.2,25.5-4.9s9.2-2.3,10.3-3.6c1-1.3,0.3-7.8,0.2-11.8
			c-0.1-4-2.1-18.7-2.6-23.1S1296.6,131.3,1295.5,127.2z M1245.8,200.9c-4,0.6-7.7-2.1-8.4-6.1c-0.6-4,2.1-7.7,6.1-8.4
			s7.7,2.1,8.4,6.1C1252.5,196.5,1249.8,200.3,1245.8,200.9z M1287.9,194.3c-4,0.6-7.7-2.1-8.4-6.1c-0.6-4,2.1-7.7,6.1-8.4
			s7.7,2.1,8.4,6.1C1294.6,189.9,1291.9,193.6,1287.9,194.3z M1294.5,168.8c-1.2,2.4-11.4,6.1-30.8,9.2s-30.3,2.7-32.1,0.7
			s-3.2-15.7-3.1-23.7s3.9-24.5,27.2-28.2s31.9,10.9,34.5,18.4C1292.8,152.9,1295.7,166.4,1294.5,168.8z"/>
	</g>
	<g id="Rattad_1_">
		<path class="st7" d="M1683.5,199.1c-1.4,5.2-5.6,11.8,2.9,14.1s8.9-4.9,10.3-10"/>
		<path class="st7" d="M1737.3,213.8c-1.4,5.2-1.2,13-9.7,10.7s-5.2-8.7-3.8-13.9"/>
	</g>
	<g id="Kere_1_">
		<path class="st3" d="M1765.8,149.2c0.7-4.2,2.5-11,1.1-13.9c-1.4-2.9-27-10.3-33.8-12.1s-32.5-8.5-35.2-6.7
			c-2.7,1.8-4.6,8.6-6.1,12.6c-1.5,4-8.8,30.2-9.8,34.4c-1,4.2-4.5,18.3-5,22.1c-0.5,3.9-1.9,10.1-1.1,11.5c0.9,1.4,6.5,3.6,9.6,4.6
			s14.2,4.8,24.2,7.5c10,2.7,21.5,5.1,24.6,5.9c3.2,0.7,9.1,1.7,10.6,0.9c1.4-0.7,3.4-6.8,4.9-10.4c1.5-3.6,5.6-17.5,6.9-21.6
			C1758,179.7,1765.1,153.4,1765.8,149.2z M1691.9,195c-3.8-1-6.1-5-5-8.8c1-3.8,5-6.1,8.8-5c3.8,1,6.1,5,5,8.8
			S1695.7,196,1691.9,195z M1732.1,205.9c-3.8-1-6.1-5-5-8.8c1-3.8,5-6.1,8.8-5s6.1,5,5,8.8S1735.9,207,1732.1,205.9z M1748.2,185.9
			c-2,1.7-12.6,0.9-31.1-4.2c-18.5-5.1-28.1-9.8-28.9-12.2s3.4-15.3,6.7-22.4c3.3-7.1,13.3-20.3,35.5-14.2
			c22.2,6.1,24.1,22.5,23.4,30.3S1750.2,184.3,1748.2,185.9z"/>
	</g>
	<path class="st8" d="M2070,200.1l-29.3,5.8c0,0-10.3,13-9.9,15s3.5,4.1,4.7,3.7c1.2-0.4,3.1-6,4.3-6.7c1.2-0.7,17.6-4.1,17.6-4.1
		l0,0c0,0,16.5-3.2,17.8-3c1.4,0.2,5.3,4.6,6.6,4.5c1.2-0.1,3.3-3.3,2.9-5.2C2084.5,208.2,2070,200.1,2070,200.1z M2067.3,205.6
		c-0.2,1-10.8,2.7-10.8,2.7l0,0c0,0-10.4,2.4-11,1.6c-0.6-0.8,3.9-5.5,3.9-5.5l12.2-2.4C2061.6,202,2067.5,204.7,2067.3,205.6z"/>
	<path class="st8" d="M2038.1,116.4c0,0-14.2,2.9-14.8,4.4c-0.6,1.5,8.1,7.2,8.1,7.2s-0.2,4.3-4.2,2c-4-2.3-12.7-9.6-12.5-11
		c0.2-1.3,12.4-4.7,22.6-6.8c10.3-2,22.8-3.6,23.5-2.4c0.7,1.1-4.5,11.3-7.3,14.9c-2.8,3.7-4.7-0.2-4.7-0.2s5.8-8.6,4.7-9.8
		C2052.3,113.6,2038.1,116.4,2038.1,116.4z"/>
	<path class="st4" d="M2088.5,169.6c-7.5-27-13.4-38.1-19.9-42.9c-6.5-4.8-22.5-2.1-28.7-0.9l0,0c-6.1,1.3-22,5-26.1,11.9
		c-4.2,6.9-5.3,19.5-1.9,47.2c1.7,11.8,2.8,17.6,7.3,21.3c4.5,3.7,14.6,1.5,36.2-2.8l0,0c21.6-4.3,31.8-6.1,34.5-11.3
		C2092.8,186.9,2091.6,181.1,2088.5,169.6z M2040.6,200.6c-3.7,0.7-7.4-1.7-8.1-5.4s1.7-7.4,5.4-8.1c3.7-0.7,7.4,1.7,8.1,5.4
		C2046.8,196.2,2044.3,199.8,2040.6,200.6z M2068.1,195.1c-3.7,0.7-7.4-1.7-8.1-5.4c-0.7-3.7,1.7-7.4,5.4-8.1s7.4,1.7,8.1,5.4
		C2074.3,190.7,2071.9,194.3,2068.1,195.1z M2079.6,170.7c-1,2.3-10.5,6.2-28.7,9.9c-18.2,3.6-28.5,3.7-30.3,1.9s-3.7-14.7-3.8-22.3
		c-0.2-7.6,2.8-23.3,24.6-27.6c21.8-4.4,30.5,9,33.3,16.1C2077.4,155.7,2080.6,168.4,2079.6,170.7z"/>
</g>
</svg>
