<?xml version="1.0" standalone="no"?>
<!DOCTYPE svg PUBLIC "-//W3C//DTD SVG 20010904//EN"
 "http://www.w3.org/TR/2001/REC-SVG-20010904/DTD/svg10.dtd">
<svg version="1.0" xmlns="http://www.w3.org/2000/svg"
 width="16.000000pt" height="16.000000pt" viewBox="0 0 16.000000 16.000000"
 preserveAspectRatio="xMidYMid meet">
<metadata>
Created by potrace 1.11, written by Peter Selinger 2001-2013
</metadata>
<g transform="translate(0.000000,16.000000) scale(0.006154,-0.006154)"
fill="#000000" stroke="none">
<path d="M763 2578 c-18 -5 -33 -15 -33 -23 0 -22 45 -99 129 -219 98 -142 98
-141 77 -133 -9 4 -16 2 -16 -4 0 -6 -6 -6 -19 0 -10 6 -21 8 -24 5 -3 -3 -36
-7 -73 -10 -96 -5 -186 -19 -225 -35 -38 -15 -53 -76 -65 -269 -4 -59 -12
-108 -18 -112 -8 -6 -8 -8 1 -8 13 0 12 -18 -1 -39 -6 -10 -5 -12 2 -7 7 4 12
2 12 -3 0 -6 -4 -11 -10 -11 -5 0 -10 -5 -10 -11 0 -5 4 -8 8 -5 10 6 9 -35
-1 -51 -4 -6 -1 -14 5 -16 10 -4 9 -6 -1 -6 -11 -1 -11 -4 0 -18 11 -13 11
-15 1 -9 -9 6 -12 1 -10 -16 2 -12 7 -29 12 -37 6 -9 5 -12 -2 -7 -8 5 -11
-33 -10 -133 0 -101 4 -139 12 -134 6 4 6 0 -2 -9 -13 -16 -12 -44 2 -67 6
-10 5 -12 -2 -7 -8 5 -12 0 -12 -13 0 -10 6 -22 13 -24 10 -4 10 -6 0 -6 -16
-1 -17 -33 -1 -49 8 -8 8 -15 -2 -27 -10 -12 -10 -15 0 -15 9 0 9 -4 -1 -17
-8 -9 -9 -14 -3 -10 7 4 11 -24 13 -86 8 -311 29 -475 64 -508 12 -10 33 -20
49 -20 27 -1 45 -4 51 -8 1 -1 38 -4 82 -7 86 -5 195 -12 208 -13 4 -1 -9 -16
-30 -33 -71 -62 -185 -173 -204 -200 -23 -31 -17 -52 28 -100 32 -34 50 -28
103 39 32 40 50 54 78 59 63 12 725 8 748 -4 12 -6 38 -34 59 -61 21 -28 45
-53 52 -55 17 -7 79 51 88 83 6 20 -9 39 -120 147 -70 68 -123 124 -118 125
18 2 122 8 195 11 43 2 78 7 78 11 0 5 4 6 8 3 12 -7 100 14 111 28 5 6 13 27
16 46 3 19 8 46 10 60 10 49 22 213 24 323 1 44 4 56 14 51 9 -6 9 -4 1 7 -13
16 -12 47 0 68 5 8 3 17 -5 23 -11 7 -11 11 -1 15 6 2 12 9 12 14 0 6 -4 8 -9
5 -10 -7 -9 20 2 30 4 4 1 14 -6 22 -8 10 -8 13 -1 9 9 -5 12 63 12 263 0 200
-3 270 -11 270 -7 0 -6 4 2 9 13 8 13 12 0 27 -9 11 -9 15 -1 10 6 -4 12 -3
12 3 0 5 -5 13 -10 16 -8 5 -7 11 1 21 8 10 8 18 1 27 -7 8 -7 18 -2 27 5 8 5
19 0 25 -5 6 -11 53 -14 105 -10 173 -26 234 -65 249 -39 16 -125 29 -231 37
-70 4 -128 10 -140 13 -3 1 0 5 6 9 5 4 26 30 45 57 18 28 37 52 40 55 9 7
102 158 123 197 l16 33 -32 13 c-38 16 -103 13 -133 -7 -11 -7 -49 -62 -85
-122 -36 -59 -69 -116 -75 -125 -5 -9 -20 -35 -32 -57 -13 -22 -28 -44 -34
-48 -16 -9 -109 -11 -109 -1 0 5 -4 6 -8 3 -16 -9 -253 -9 -262 0 -15 15 -120
195 -120 205 0 5 -4 9 -10 9 -5 0 -10 4 -10 10 0 13 -64 113 -82 127 -19 16
-86 22 -125 11z m707 -623 c61 -19 120 -47 164 -79 34 -24 116 -108 116 -118
0 -4 7 -13 15 -22 38 -38 108 -212 129 -321 27 -139 29 -366 3 -392 -9 -8 -56
-14 -154 -18 -57 -2 -108 -7 -114 -11 -8 -5 -9 -3 -4 6 5 9 4 11 -4 6 -17 -11
-101 -14 -101 -4 0 5 -5 6 -12 2 -17 -11 -459 -12 -480 -2 -10 5 -19 4 -23 -2
-4 -6 -11 -7 -17 -4 -5 3 -59 8 -120 9 -158 5 -165 8 -176 58 -15 74 -5 278
18 357 5 16 7 30 5 30 -2 0 9 39 25 86 83 243 225 385 432 428 80 17 227 12
298 -9z m-533 -1117 c25 -11 72 -54 74 -68 0 -3 3 -14 6 -25 8 -33 4 -63 -12
-110 -22 -62 -135 -94 -204 -58 -105 55 -105 203 -1 255 41 21 97 23 137 6z
m871 -8 c87 -53 96 -174 17 -242 -48 -41 -163 -31 -209 19 -22 24 -41 75 -37
98 2 5 4 22 6 37 11 87 140 138 223 88z m-381 -459 c7 7 28 -4 62 -31 76 -60
73 -61 -169 -64 -201 -1 -250 2 -250 17 0 5 17 25 38 44 l37 33 108 -1 c59 -1
110 0 113 4 3 3 16 2 29 -3 13 -5 26 -5 32 1z"/>
</g>
</svg>
