<svg xmlns="http://www.w3.org/2000/svg" version="1" viewBox="0 0 256 256">
  <path d="M152.6 3.7c-.2.2-1.6.6-3.1.9-3.6.6-6.5 2.2-6.5 3.5 0 4.4 21.4 38.8 38.8 62.4 2.8 3.8 4.9 7.1 4.8 7.3-.2.2-4.1.5-8.7.8-12.8.6-22.8 1.3-28.9 1.9-5.5.6-6.9.7-16.5 2.1-2.7.4-5.7.8-6.5.9-2.9.4-7.5 1.6-11.8 3.2-3.2 1.1-4.7 2.4-6.1 5.1-3.2 6.5-5.5 22.3-7.6 52.7-2.6 36.7-2.6 159 0 198 .2 3.3.6 10.7 1 16.5 1.1 19.2 2.3 34.3 3 37.9.2.9.6 4.7 1 8.4.7 7.4 2.9 17 4.7 20.5 1.2 2.3 6.8 4.4 15.8 5.8 2.5.3 5.2.8 6 .9.8.2 5.1.6 9.5 1s9.1.8 10.5 1c3.2.5 23.5 1.7 32.3 1.9l6.8.1-3.8 3.4c-20.6 18.6-40.7 38.3-44.9 44.3-2.1 2.9-2.2 3.8-1.4 7 1.2 4.1 8.2 12.4 12.8 15.1 3 1.7 3.1 1.7 6.1-.9 1.7-1.4 6.2-6.5 10.1-11.4 3.8-4.9 7.9-9.4 9-10 3.2-1.7 25.8-2.4 78.5-2.4 50.6 0 72.4.7 75.3 2.3.9.5 5.3 5.3 9.7 10.7 9.2 11.2 12.7 14.2 14.7 12.6 9.7-7.8 15.6-16 14.3-20.2-1.3-4-22-24.9-46.3-46.7l-4.3-3.8 4.8-.1c5.8-.1 29.2-1.4 34.8-1.9 2.2-.2 6.7-.7 10-1 14-1.4 17.4-1.9 25.1-4.1 5.6-1.5 7.7-4.2 8.9-11.4.3-1.9.8-4.2 1-5 .3-.8.7-3.8 1-6.5.3-2.8.7-6.6 1-8.5.2-1.9.7-7.1 1-11.5.3-4.4.8-9.4 1-11.1.2-1.7.7-8.2 1-14.5.4-6.3.8-14.3 1-17.9 2.6-45.7 2.6-159.8 0-197.5-1-15.2-1.6-23.3-2-26-.2-1.7-.7-5-1-7.5-.6-4.8-1.2-8.7-2.1-13.5-1-5-4.1-10-6.9-11.3-4.4-2-17.8-4.7-28.5-5.8-3-.3-7.3-.7-9.5-1-2.2-.2-7.9-.7-12.7-1-4.8-.3-11.1-.7-14-.9-2.9-.2-6.3-.4-7.6-.4-2.1-.1-1.9-.7 3.2-7.9 23-32.3 39.5-59.3 38.3-62.6-.9-2.2-8.3-3.9-17.2-3.9-11.4-.1-14.5 1.2-18.9 7.8-2 3-3.6 5.8-3.6 6.1 0 .4-1.1 2.1-2.3 3.8-1.3 1.7-2.6 3.6-2.8 4.1-.2.6-5.8 10-12.3 21-6.5 11-13.3 22.4-15 25.2l-3.1 5.3h-75L206 55.9c-6.9-11.6-13.2-22.3-14-23.8-.8-1.4-4.8-7.9-8.8-14.3C177 7.8 175.4 6 172.4 5c-3.3-1.1-19-2.1-19.8-1.3zm121.2 119.7c.5.3 3.1.8 5.8 1.2 7.4 1 21.8 6 30.3 10.5 28.3 15.1 49.9 45.9 60.1 85.9 2.5 9.8 2.4 9.1 4 19 .6 4.1 1.4 8.6 1.6 10 2.5 14.5 2.2 50.2-.5 57.2-1.3 3.6-3.4 4.5-11.6 5.3-3.9.4-8.3.9-10 1.1-16.5 1.7-136.7 2.5-171 1.1-40.1-1.7-44.1-2.4-45.7-8.2-2.6-9.4-2.8-44.1-.4-57.2.2-1 .7-3.8 1-6.3 2.4-17.4 9.9-41.8 17.7-57.2 12.3-24.4 28.6-41.6 49.4-51.8 12-5.9 20.8-8.6 33.5-10.3 8.8-1.3 34-1.4 35.8-.3zM184.7 347c21.9 9.7 22 42.3.1 52.1-7.8 3.4-20.2 3.3-27.4-.4-13-6.6-18.7-21.3-13.8-35.9 1.8-5.6 7.1-12.1 11.7-14.5 8.7-4.5 21-5 29.4-1.3zm168.9-.1c9.2 4.1 14.6 11.3 16.2 21.4 1 6.4.8 8.5-1.6 15.1-4.1 11.5-13.9 17.9-27.7 18-12.5.1-21.4-4.9-26.4-14.9-8.7-17.4.4-37.4 18.6-41.3 6.3-1.4 15.6-.6 20.9 1.7zm-70 91.1c2.9 0 19.4 14.3 19.4 16.8 0 1.9-11.1 2.6-44 2.5-39 0-46.5-.2-48.6-1.8-1.4-1-1.3-1.5 1.1-4.3 4-4.8 14.7-13 17.5-13.3 1.9-.3 34.7-.2 54.6.1z" />
</svg>
