<?xml version="1.0" standalone="no"?>
<!DOCTYPE svg PUBLIC "-//W3C//DTD SVG 20010904//EN"
 "http://www.w3.org/TR/2001/REC-SVG-20010904/DTD/svg10.dtd">
<svg version="1.0" xmlns="http://www.w3.org/2000/svg"
 width="512.000000pt" height="512.000000pt" viewBox="0 0 512.000000 512.000000"
 preserveAspectRatio="xMidYMid meet">
<metadata>
Created by potrace 1.11, written by Peter Selinger 2001-2013
</metadata>
<g transform="translate(0.000000,512.000000) scale(0.100000,-0.100000)"
fill="#000000" stroke="none">
<path d="M1526 5083 c-2 -2 -16 -6 -31 -9 -36 -6 -65 -22 -65 -35 0 -44 214
-388 388 -624 28 -38 49 -71 48 -73 -2 -2 -41 -5 -87 -8 -128 -6 -228 -13
-289 -19 -55 -6 -69 -7 -165 -21 -27 -4 -57 -8 -65 -9 -29 -4 -75 -16 -118
-32 -32 -11 -47 -24 -61 -51 -32 -65 -55 -223 -76 -527 -26 -367 -26 -1590 0
-1980 2 -33 6 -107 10 -165 11 -192 23 -343 30 -379 2 -9 6 -47 10 -84 7 -74
29 -170 47 -205 12 -23 68 -44 158 -58 25 -3 52 -8 60 -9 8 -2 51 -6 95 -10
44 -4 91 -8 105 -10 32 -5 235 -17 323 -19 l68 -1 -38 -34 c-206 -186 -407
-383 -449 -443 -21 -29 -22 -38 -14 -70 12 -41 82 -124 128 -151 30 -17 31
-17 61 9 17 14 62 65 101 114 38 49 79 94 90 100 32 17 258 24 785 24 506 0
724 -7 753 -23 9 -5 53 -53 97 -107 92 -112 127 -142 147 -126 97 78 156 160
143 202 -13 40 -220 249 -463 467 l-43 38 48 1 c58 1 292 14 348 19 22 2 67 7
100 10 140 14 174 19 251 41 56 15 77 42 89 114 3 19 8 42 10 50 3 8 7 38 10
65 3 28 7 66 10 85 2 19 7 71 10 115 3 44 8 94 10 111 2 17 7 82 10 145 4 63
8 143 10 179 26 457 26 1598 0 1975 -10 152 -16 233 -20 260 -2 17 -7 50 -10
75 -6 48 -12 87 -21 135 -10 50 -41 100 -69 113 -44 20 -178 47 -285 58 -30 3
-73 7 -95 10 -22 2 -79 7 -127 10 -48 3 -111 7 -140 9 -29 2 -63 4 -76 4 -21
1 -19 7 32 79 230 323 395 593 383 626 -9 22 -83 39 -172 39 -114 1 -145 -12
-189 -78 -20 -30 -36 -58 -36 -61 0 -4 -11 -21 -23 -38 -13 -17 -26 -36 -28
-41 -2 -6 -58 -100 -123 -210 -65 -110 -133 -224 -150 -252 l-31 -53 -375 0
-375 0 -125 211 c-69 116 -132 223 -140 238 -8 14 -48 79 -88 143 -62 100 -78
118 -108 128 -33 11 -190 21 -198 13z m1212 -1197 c5 -3 31 -8 58 -12 74 -10
218 -60 303 -105 283 -151 499 -459 601 -859 25 -98 24 -91 40 -190 6 -41 14
-86 16 -100 25 -145 22 -502 -5 -572 -13 -36 -34 -45 -116 -53 -39 -4 -83 -9
-100 -11 -165 -17 -1367 -25 -1710 -11 -401 17 -441 24 -457 82 -26 94 -28
441 -4 572 2 10 7 38 10 63 24 174 99 418 177 572 123 244 286 416 494 518
120 59 208 86 335 103 88 13 340 14 358 3z m-891 -2236 c219 -97 220 -423 1
-521 -78 -34 -202 -33 -274 4 -130 66 -187 213 -138 359 18 56 71 121 117 145
87 45 210 50 294 13z m1689 1 c92 -41 146 -113 162 -214 10 -64 8 -85 -16
-151 -41 -115 -139 -179 -277 -180 -125 -1 -214 49 -264 149 -87 174 4 374
186 413 63 14 156 6 209 -17z m-700 -911 c29 0 194 -143 194 -168 0 -19 -111
-26 -440 -25 -390 0 -465 2 -486 18 -14 10 -13 15 11 43 40 48 147 130 175
133 19 3 347 2 546 -1z"/>
</g>
</svg>
