<svg xmlns="http://www.w3.org/2000/svg" viewBox="0 0 1280 640">
	<path fill="#0090ea" d="M179.33 118.36s-45.78-79.33-50.61-82.17c-4.83-2.84-34.26-4.98-35.97 1.85-1.71 6.82 30 51.89 52.46 83.03M262.65 118.36s45.78-79.33 50.61-82.17c4.83-2.84 34.26-4.98 35.97 1.85 1.71 6.82-30 51.89-52.46 83.03" />
	<path fill="#fe3c00" d="M292.16 524.03H149.82s-60.28 51.38-60.28 60.85c0 9.47 12.71 22.38 18.57 21.61s20.27-25.22 26.53-27.3c6.26-2.08 86.3-2.64 86.3-2.64h.09s80.04.57 86.3 2.64 20.67 26.53 26.53 27.3 18.57-12.14 18.57-21.61c-.02-9.47-60.27-60.85-60.27-60.85zm-18.14 23.11c-1.85 4.27-53 2.7-53 2.7h-.09s-51.15 1.56-53-2.7c-1.85-4.27 23.32-22.32 23.32-22.32h59.43c.02 0 25.19 18.06 23.34 22.32z" />
	<path fill="#66ba6a" d="M398.08 191.38c-1.93-19.45-2.22-52.2-12.06-63.35-9.87-11.15-132.7-12.94-165-12.94s-155.16 1.79-165 12.94c-9.87 11.15-10.12 43.87-12.06 63.35-1.93 19.48-2.64 145.24-1.79 165.14.85 19.9 2.27 86.72 4.55 104.64 2.27 17.91 3.7 47.29 9.24 52.32 5.52 5 33.15 8.08 48.17 8.64 15.01.57 69.18 3.84 116.86 3.84s101.85-3.27 116.86-3.84c15.01-.57 42.65-3.64 48.2-8.67 5.54-5.03 6.97-34.41 9.24-52.32 2.27-17.91 3.7-84.73 4.55-104.64.85-19.9.17-145.66-1.76-165.11zM124.97 484.9c-18.23 0-32.98-14.76-32.98-32.98s14.76-32.98 32.98-32.98 32.98 14.76 32.98 32.98c0 18.2-14.78 32.98-32.98 32.98zm192.04 0c-18.23 0-32.98-14.76-32.98-32.98s14.76-32.98 32.98-32.98S350 433.69 350 451.92c0 18.2-14.76 32.98-32.99 32.98zm47.57-108.59c-6.82 9.95-54.88 19.34-143.59 19.34S84.22 386.26 77.4 376.31s-3.41-72.22 2.84-107.76C86.5 233 114.93 162.2 220.99 162.2c28.72 0 51.75 5.2 70.17 13.48 49.65 22.29 66.02 66.96 70.57 92.87 6.26 35.54 9.68 97.81 2.85 107.76z" />
	<path fill="#66ba6a" d="M683.7 216.89s17.3-5.49 17.3-44.17-29.5-46.61-36.2-48.95c-6.69-2.34-86.77-4.6-94.27 3.82 0 0-2.17 177.77.8 181.98 2.98 4.21 64.71 4.46 85.29 3.22 20.58-1.24 52.81-13.14 52.81-50.08s-25.73-45.82-25.73-45.82zm-60.3-54.31c2.76-2.76 32.23-2.06 32.23 16.78s-30.32 19.84-32.23 17.93c-1.92-1.91-2.76-31.95 0-34.71zm1.34 107.19c-1.91-1.91-2.76-31.95 0-34.71 2.76-2.76 32.23-2.06 32.23 16.78 0 18.85-30.32 19.84-32.23 17.93zM719.29 124.47c4.54-4.54 49.69-4.17 53.86 0s-11 136.13 19.17 136.13 15.29-132.76 18.76-136.23 49.34-2.48 52.56.74 35.15 189.81-72.18 189.81-72.17-190.45-72.17-190.45z" />
	<path fill="#66ba6a" d="M885.55 253.49c3.87-2.92 17.01 6.35 33.13 8.29 16.12 1.94 32.48 2.68 35.45-6 2.98-8.68-11.9-12.64-18.59-14.13-6.69-1.49-32.73-11.65-39.92-19.09-7.19-7.44-20.33-29.01-16.86-54.54 3.47-25.54 11.9-38.43 31.24-43.88 19.34-5.45 40.79-6.4 57.05-5.18 16.26 1.22 37.22 4.58 40.17 10.21 2.95 5.63-.54 46.93-6.72 49.51-6.19 2.58-22.81-8.68-36.45-11.16s-28.76-1.74-31.49 5.21c-2.73 6.94 2.98 11.4 15.12 15.37 12.15 3.97 41.65 11.4 53.3 25.78 11.65 14.38 19.09 36.2 10.91 59.75-8.18 23.55-26.03 33.57-44.38 37.44-18.35 3.87-41.7 5.41-52.11 4.91s-34.51-2.2-37.19-6.04 3.47-53.54 7.34-56.45zM1235.58 311.81c3.66-4.47 3.28-185.67 0-188.04-3.28-2.37-56.54-4.66-59.97-1.48-3.42 3.18-2.64 187.54 0 189.52 2.65 1.98 56.31 4.47 59.97 0zM1032.17 254.23c3.87-2.92 17.01 6.35 33.13 8.29s32.48 2.68 35.45-6c2.98-8.68-11.9-12.64-18.59-14.13-6.69-1.49-32.73-11.65-39.92-19.09-7.19-7.44-20.33-29.01-16.86-54.54s11.9-38.43 31.24-43.88c19.34-5.45 40.79-6.4 57.05-5.18s37.22 4.58 40.17 10.21c2.95 5.63-.54 46.93-6.72 49.51-6.19 2.58-22.81-8.68-36.45-11.16-13.64-2.48-28.76-1.74-31.49 5.21-2.73 6.94 2.98 11.4 15.12 15.37 12.15 3.97 41.65 11.4 53.3 25.78 11.65 14.38 19.09 36.2 10.91 59.75-8.18 23.55-26.03 33.57-44.38 37.44-18.35 3.87-41.7 5.41-52.11 4.91-10.41-.5-34.51-2.2-37.19-6.04-2.67-3.83 3.47-53.53 7.34-56.45z" />
	<path fill="#0090ea" d="M586.18 333.65c-3.87-4.22-83.01-4.09-86.48-1.27-3.47 2.82-36.43 184.11-34.18 186.71 2.25 2.6 55.31 2.92 57.88.62s2.14-32.18 5.7-34.35c3.56-2.17 23.95-3.23 27.8 0 3.84 3.23 2.17 32.05 6.07 34.09s56.04 4.22 58.24.25-31.16-181.83-35.03-186.05zm-32.5 113.11c-3.25 3.25-20.55 2.7-23.24 0-2.7-2.7 4.55-72.03 11.29-72.03 6.74 0 15.21 68.78 11.95 72.03zM633.22 332.38c3.95-3.57 114.99-1.88 116.87 0 1.88 1.88 2.37 51.84.76 53.58s-57.48-1.96-59.3.01c-1.82 1.97-1.61 14.58-.16 16.4 1.44 1.81 37.47-.91 38.86 1.07s1.48 45.22-.05 46.97-37.36-1.84-38.97.88c-1.61 2.73-1.57 13.6.33 15.35 1.9 1.75 57.69-2.62 59.3 0 1.61 2.62 2.44 51.85.97 53.7-1.47 1.85-116.11 2.35-118.6-.5-2.51-2.86-3.97-183.89-.01-187.46zM897.8 339.84c4.28 6.14-.74 41.02-6.29 44.99-5.55 3.97-42.74-16.11-60.22 1.62-17.48 17.73-18.47 84.54 10.91 84.54 13.76 0 17.79-17.68 18.78-24.36.99-6.67-.02-16.96 2.91-19.4 2.92-2.44 34.06-.45 36.34 1.92 2.28 2.36 3.74 14.99 3.74 32.71 0 28.35-4.29 49.1-6.78 52.55-4.54 6.3-84.5 18.07-108.3-7.59s-31.73-66.94-26.03-101.77c5.7-34.83 25.91-63.9 63.22-71.65s67.44.31 71.72 6.44z" />
	<path fill="#fe3c00" d="M916.34 471.32c4.13-4.13 47.22-2.31 50.32.79 3.1 3.1 3.36 44.81.56 47.61s-47.95 1.94-50.88-1c-2.93-2.93-4.13-43.27 0-47.4zM982.25 332.67c3.95-3.57 114.99-1.88 116.87 0 1.88 1.88 2.37 51.84.76 53.58-1.61 1.74-57.48-1.96-59.3.01-1.82 1.97-1.61 14.58-.16 16.4 1.44 1.81 37.47-.91 38.86 1.07 1.39 1.98 1.48 45.22-.05 46.97s-37.36-1.84-38.97.88c-1.61 2.73-1.57 13.6.33 15.35 1.9 1.75 57.69-2.62 59.3 0 1.61 2.62 2.44 51.85.97 53.7-1.47 1.85-116.11 2.35-118.6-.5-2.51-2.86-3.97-183.89-.01-187.46zM1118.13 332.38c3.95-3.57 114.99-1.88 116.87 0 1.88 1.88 2.37 51.84.76 53.58-1.61 1.74-57.48-1.96-59.3.01-1.82 1.97-1.61 14.58-.16 16.4 1.44 1.81 37.47-.91 38.86 1.07 1.39 1.98 1.48 45.22-.05 46.97s-37.36-1.84-38.97.88c-1.61 2.73-1.57 13.6.33 15.35 1.9 1.75 57.69-2.62 59.3 0 1.61 2.62 2.44 51.85.97 53.7-1.47 1.85-116.11 2.35-118.6-.5s-3.96-183.89-.01-187.46z" />
	<path fill="#4a5" d="M1166.23 121.25c.51 3.94-.43 9.73 6.03 8.89s4.71-5.91 4.2-9.85M1207.4 115.87c.51 3.94 2.91 9.29-3.54 10.14s-6.07-4.5-6.59-8.44" />
	<path fill="#66ba6a" d="M1208.39 63.39c-.71-3.07-1.44-8.3-3.25-9.87-1.81-1.58-21.48.7-26.64 1.38-5.16.67-24.76 3.52-26.1 5.51-1.34 1.99-.7 7.22-.6 10.38.1 3.15 2.61 23.27 3.16 26.43.55 3.16 2.17 13.81 2.91 16.63.74 2.82 1.58 7.48 2.57 8.17.99.69 5.47.6 7.88.38 2.41-.22 11.14-.83 18.76-1.83 7.62-1 16.21-2.65 18.6-3.05 2.39-.4 6.74-1.47 7.52-2.39.78-.92.4-5.64.39-8.55-.01-2.91-1.18-13.62-1.46-16.82s-3.03-23.3-3.74-26.37zM1170.87 116c-2.91.38-5.58-1.67-5.96-4.58-.38-2.91 1.67-5.58 4.58-5.96s5.58 1.67 5.96 4.58c.38 2.91-1.67 5.58-4.58 5.96zm30.69-4.01c-2.91.38-5.58-1.67-5.96-4.58-.38-2.91 1.67-5.58 4.58-5.96 2.91-.38 5.58 1.67 5.96 4.58.38 2.91-1.67 5.58-4.58 5.96zm5.34-18.34c-.88 1.73-8.37 4.24-22.54 6.09s-22.05 1.35-23.35-.09c-1.3-1.45-2.05-11.47-1.79-17.28s3.32-17.72 20.27-19.93 22.97 8.51 24.71 14.06c1.73 5.53 3.58 15.41 2.7 17.15z" />
	<path fill="#0276bc" d="M488.91 331.2c.8 3.99.25 9.97 6.78 8.65s4.4-6.38 3.59-10.36M530.58 322.81c.8 3.99 3.63 9.29-2.9 10.6-6.53 1.32-6.52-4.18-7.32-8.16" />
	<path fill="#0276bc" d="M490.57 263.93s-9.99-11.34-10.86-11.64c-.87-.3-5.7.31-5.76 1.47-.05 1.16 6.54 7.42 11.19 11.72M504.05 261.21s4.82-14.32 5.51-14.94 5.38-1.92 5.88-.87-3.16 9.37-5.78 15.14" />
	<path fill="#0090ea" d="M527.9 269.13c-.95-3.08-2.06-8.37-4.01-9.86-1.96-1.48-21.89 2.23-27.11 3.28-5.23 1.05-25.04 5.34-26.27 7.47-1.23 2.12-.21 7.43.11 10.64.32 3.21 4.3 23.58 5.09 26.77.79 3.19 3.19 13.95 4.14 16.78.95 2.82 2.14 7.53 3.2 8.16s5.63.23 8.08-.17 11.32-1.63 19.03-3.19 16.37-3.85 18.78-4.43 6.78-1.98 7.51-2.97c.73-.99.01-5.79-.21-8.76-.22-2.97-2.16-13.83-2.67-17.07-.51-3.24-4.73-23.57-5.67-26.65zm-34.62 56.38c-2.95.59-5.82-1.31-6.41-4.26-.59-2.95 1.31-5.82 4.26-6.41 2.95-.59 5.82 1.31 6.41 4.26.59 2.94-1.32 5.82-4.26 6.41zm31.07-6.26c-2.95.59-5.82-1.31-6.41-4.26-.59-2.95 1.31-5.82 4.26-6.41 2.95-.59 5.82 1.31 6.41 4.26.59 2.95-1.32 5.82-4.26 6.41zm4.15-19.11c-.78 1.83-8.25 4.92-22.6 7.81-14.35 2.89-22.43 2.94-23.86 1.55-1.43-1.39-2.9-11.57-3.05-17.52s2.15-18.33 19.3-21.79c17.16-3.46 24.06 7.07 26.23 12.62 2.18 5.53 4.76 15.49 3.98 17.33z" />
	<path fill="#d84214" d="M953.05 460.99l-22.08-2.2s-10.14 7.04-10.29 8.51 1.62 3.67 2.55 3.64c.92-.03 3.54-3.6 4.54-3.82 1-.23 13.43.92 13.43.92h.01s12.41 1.33 13.35 1.75 2.79 4.44 3.69 4.64c.9.21 3.07-1.59 3.22-3.06s-8.42-10.38-8.42-10.38zm-3.18 3.31c-.35.63-8.26-.4-8.26-.4h-.01s-7.96-.55-8.18-1.24c-.22-.69 3.96-3.1 3.96-3.1l9.22.92s3.62 3.19 3.27 3.82zM948.52 394.5s-10.74-1.03-11.46-.1c-.72.93 4.19 6.88 4.19 6.88s-1.1 3.01-3.46.5-6.95-9.62-6.52-10.52c.42-.89 9.82-.69 17.56.08 7.74.77 17 2.43 17.23 3.39.24.96-5.67 7.03-8.47 9.02s-3.29-1.17-3.29-1.17 5.99-4.86 5.47-5.91c-.51-1.05-11.25-2.17-11.25-2.17z" />
	<path fill="#fe3c00" d="M972.84 443.3c.55-20.81-1.23-30.03-4.81-34.84-3.58-4.81-15.57-6.37-20.2-6.89h-.01c-4.64-.41-16.71-1.24-21.17 2.77-4.46 4-8.03 12.69-11.6 33.2-1.39 8.77-1.86 13.09.56 16.71 2.42 3.62 10.09 4.23 26.36 5.85h.01c16.27 1.62 23.92 2.54 27-.53 3.1-3.07 3.5-7.41 3.86-16.27zM932 454.9c-2.83-.28-4.89-2.8-4.61-5.63.28-2.83 2.8-4.89 5.63-4.61 2.83.28 4.89 2.8 4.61 5.63-.28 2.82-2.8 4.89-5.63 4.61zm20.8 2.07c-2.83-.28-4.89-2.8-4.61-5.63.28-2.83 2.8-4.89 5.63-4.61s4.89 2.8 4.61 5.63c-.29 2.83-2.81 4.89-5.63 4.61zm13.47-14.82c-1.21 1.44-8.81 2.15-22.57.78-13.76-1.37-21.07-3.57-21.97-5.22-.9-1.65.59-11.26 2.11-16.67 1.52-5.42 7.03-15.96 23.48-14.32s19.77 13.06 20.19 18.67c.4 5.61-.03 15.32-1.24 16.76z" />
</svg>
