<svg version="1" xmlns="http://www.w3.org/2000/svg" width="933.333" height="933.333" viewBox="0 0 700.000000 700.000000">
	<path d="M203.9 9c-4.6 1.3-6.9 3-6.9 5.1 0 3.2 5.2 13.7 12.6 25.5 11.3 18.1 40 59.8 44.7 65.1 1.1 1.3 1.6 2.3 1.1 2.4-2.8.3-9.2.7-19.4 1.3-16.7 1-25.9 1.6-31 2.1-2.5.3-7.2.7-10.5 1-19.7 1.9-33.1 4.6-38.6 7.7-9.5 5.3-14 25.5-17.5 79.3-1.1 16.6-1.8 69.1-1.9 132 0 62.3.4 89.2 2 126.2.3 6 .7 16.6 1 23.8.7 16.7 1.4 29 2 34 .2 2.2.7 6.5 1 9.5.3 3 .7 7.1 1 9 .2 1.9.7 6.9 1.1 11 1.2 13.2 4.1 28.8 6.3 33.4 1.7 3.4 3 4.7 6.4 5.9 8.2 3.1 21.6 5.5 39.7 7.2 5.3.5 9.4.7 39 2.1 13.4.6 22.6 1.1 26.5 1.3 2.1.1 2.5-.3-9 9.8-29.5 25.9-50.5 46.7-58.4 58.1-1.8 2.6-2.2 4-1.6 7 1.9 10.4 14.5 23.9 21.2 22.9 2.8-.4 6.8-3.8 11.6-9.9 11.5-14.6 18.5-21.7 22.1-22.3 13.7-2.5 93.8-3.5 157.1-2.1 42.3.9 46.1 1.2 49.6 3.7 1.5 1.1 7.4 7.5 13 14.2 11.3 13.6 14.5 16.7 17.3 16.7 4.6 0 13.5-7.6 18-15.3 3.3-5.8 4-9.9 2.3-13.4-4.7-8.9-25.8-30.2-58.7-59-2.5-2.2-6.1-5.4-8-7.1l-3.5-3.1 3-.2c1.7-.1 4.6-.2 6.5-.4 1.9-.1 10.3-.5 18.5-.9 27.1-1.3 31.9-1.5 38.5-2.1 6.2-.6 7.8-.7 17.7-2 8-.9 22.6-4.5 24.9-6 1.3-.8 3.1-2.6 3.9-3.9 1.9-2.8 5.2-18.1 6-27.6.4-3.6.8-7.2 1-8 .2-.8.7-4.9 1-9 .4-4.1.9-8.2 1-9.1.2-.9.6-6.1 1-11.5.3-5.5.8-11.7 1-13.9.3-2.2.7-11 1-19.5.4-8.5.8-19.1 1-23.5 1.6-36.7 2-63.6 2-126-.1-62.9-.9-119.3-1.9-132-.2-2.2-.6-8.3-1-13.5-.8-9.8-.9-10.8-2-22.5-2.5-25-7.4-39.8-14.4-43.4-3.2-1.6-9.7-3.5-10.4-3.1-.2.1-1.4-.3-2.8-.8-1.4-.6-5.5-1.3-9-1.7-3.6-.4-7.2-.8-8.1-1-.8-.2-4.9-.6-9-.9-4.1-.4-9-.9-10.9-1.1-6.4-.7-37.4-2.7-44.2-2.8-2.7 0-4.8-.4-4.8-.8 0-.5 2.1-3.8 4.8-7.4 2.6-3.7 5.6-8 6.7-9.5 3.3-4.6 20.4-29.8 26.9-39.5 9-13.5 18.5-30.4 19.2-34.3.8-4.1-.5-5.6-6.1-7.1-3.9-1.1-26.6-.9-31.4.3-6.8 1.6-8.8 4.6-50.8 74.8-1.9 3.2-3.9 6.8-4.6 8-.7 1.3-2.7 4.8-4.6 7.8l-3.3 5.6H298.2l-14.8-25.1c-16-27.2-36.2-60-40.3-65.4-4-5.3-7.8-6.4-23.1-6.6-7.4-.2-14.7 0-16.1.5zM371 162.4c6.6.6 12.3 1.4 23.5 3.2 5.6.9 19 4.5 26.5 7.1 34.4 11.9 64.7 37.7 80.7 68.8 9.1 17.8 14.6 34.5 17.3 53.4.5 3.7 1.2 7.7 1.4 9.1.2 1.4.7 5.2 1.1 8.5.3 3.3.8 7.8 1.1 10 2.7 22.1 3.9 68 2.1 82.4-1.7 14.1-5.2 17.1-26.2 23-6.4 1.7-12.5 3.1-16.5 3.6-.8.1-2.8.5-4.5.8-1.6.4-5 .9-7.5 1.2-2.5.3-7.9.9-12 1.5-42.6 5.4-111 6.7-176 3.5-5.8-.3-12.3-.8-14.5-1-2.2-.3-7.1-.7-11-1-3.8-.3-8.8-.8-11-1-2.2-.3-5.7-.8-7.7-1-12.8-1.6-12-1.5-19.8-3-1.4-.3-3.8-.8-5.5-1-12.4-2.2-25.5-6.6-30.4-10.3-6.4-4.7-7.5-11.1-7.5-41.7-.1-26.7.7-39.7 4-66 .9-6.6 1.8-13.8 2-16 1.8-15.3 8.7-37.4 16.4-52.7 10.9-21.6 29.5-42.4 49.5-55.3 14.4-9.3 37.5-18.6 55-22 12-2.3 20.2-3.4 31-4.2 5-.3 9.1-.6 9.2-.7.5-.4 22.8.3 29.3.8zM247 470.1c6.5 2.1 11 4.9 16 10 19.9 20.1 12.6 54-13.7 63.9-13.5 5-27.2 2.9-38.3-5.9-5.6-4.4-7.3-6.5-9.9-11.6-3.6-7.1-4.4-9.9-4.7-17.3-.6-14.9 5.6-26.6 18.3-34.8 8.8-5.8 22.2-7.5 32.3-4.3zm228.7-.1c13.7 4.5 23.5 14.6 27.1 28 2.3 8.8 0 23.2-5 30.4-7.8 11.4-18 17.3-31 18.1-25 1.4-44.8-20.5-40.8-45.2 3.8-22.9 28.1-38.2 49.7-31.3zm-87.5 126.6c14.2 10.9 24.8 20.9 24.8 23.5 0 1.2-.9 2.1-2.5 2.4-1.4.3-3.7.8-5.2 1.2-4.1.9-95.3 1.1-105.6.2-10.9-1-12.7-1.5-12.7-3.8 0-2.2 10.3-12.5 19.6-19.4l6.9-5.2 36.7.1c23 0 37.1.4 38 1z" />
</svg>
