<svg xmlns="http://www.w3.org/2000/svg" viewBox="0 0 300 200"><defs/><filter id="prefix__a"><feGaussianBlur stdDeviation="8"/></filter><rect width="100%" height="100%" fill="#2882b6"/><g filter="url(#prefix__a)"><g fill-opacity=".5" transform="translate(.6 .6) scale(1.17188)"><ellipse fill="#fff3c2" rx="1" ry="1" transform="matrix(-7.77764 -11.71938 66.6777 -44.2511 151.2 96.5)"/><ellipse fill="#ffedbf" rx="1" ry="1" transform="matrix(34.81858 -2.52658 .87415 12.04663 197.2 31.3)"/><ellipse fill="#ffe5a4" rx="1" ry="1" transform="rotate(157 23.8 40.6) scale(44.00047 11.49486)"/><ellipse fill="#0069c0" rx="1" ry="1" transform="matrix(-12.49783 -23.7585 140.31416 -73.81032 172.3 128.4)"/><path fill="#fff6c7" d="M35.3 112.5l-8.1-20.3 48 7.2-17.6 11.1z"/><ellipse cx="57" cy="3" fill="#0068be" rx="120" ry="48"/><path fill="#d9cead" d="M140.2 93l7.6 16.3-68 31.7-7.6-16.3z"/><ellipse fill="#d2b58e" rx="1" ry="1" transform="matrix(2.5037 4.1327 -39.11974 23.69985 130.7 66.7)"/><ellipse cx="214" cy="169" fill="#0072be" rx="85" ry="85"/><ellipse cy="144" fill="#006bc2" rx="52" ry="52"/><ellipse fill="#0070ba" rx="1" ry="1" transform="matrix(-49.47795 123.96352 -17.63952 -7.04052 235.5 54.7)"/><path fill="#f3d9c5" d="M196 83l34-53-95 65z"/><ellipse fill="#00538e" rx="1" ry="1" transform="matrix(-5.47455 -9.36857 58.08362 -33.94133 135.4 79.9)"/><ellipse fill="#fae3cf" rx="1" ry="1" transform="matrix(1.08152 2.60742 -53.89921 22.35659 106.1 53.7)"/><ellipse fill="#0072bf" rx="1" ry="1" transform="rotate(120.4 -8.2 35) scale(118.77401 16.39384)"/><ellipse cx="203" cy="27" fill="#fff1df" rx="21" ry="8"/><ellipse fill="#717d84" rx="1" ry="1" transform="rotate(-27.3 320.6 -87) scale(32.5433 6.25452)"/><path fill="#bdb39e" d="M225.4 31.6L165 27.4l-24.7 14.2 79.5 1.7z"/><path fill="#e5d2bb" d="M65 53l25 10-60 35z"/><path fill="#006ab9" d="M162.9 10.8l5.2-24.5 89 19-5.2 24.4z"/><path fill="#4e5036" d="M32 92l-7-7 32-15z"/><path fill="#b7baa2" d="M89.4 85.1l48.8-31.9 1.3 13.6-105.8 50.7z"/><path fill="#00497f" d="M78 94l-26-9 72-37z"/><path fill="#0074bc" d="M-16 109l108 2-107 74z"/><path fill="#dee1dc" d="M153 82l-76 41 34-1z"/><ellipse fill="#0075bd" rx="1" ry="1" transform="matrix(-151.48496 18.74504 -2.74437 -22.17817 154.1 158)"/><path fill="#fbe6e3" d="M189.7 80.4l-52.2 26.5-42.7 35L193 83z"/><path fill="#024c7a" d="M102 142l-24.1-8.2.4-8.9-8.9-8.7z"/><path fill="#dee2e8" d="M72 66.7l14.7-8.5 56.7-21.3-77 41.1z"/><path fill="#005895" d="M146 49l-8-17-40 43z"/><path fill="#f8e0d6" d="M38 109L26 91l37 10z"/><path fill="#5aa85d" d="M188 70l20-8-29 24z"/><ellipse fill="#0075b9" rx="1" ry="1" transform="rotate(-12.7 131.7 -430.5) scale(134.49964 27.34238)"/><path fill="#f33514" d="M162 83h11v7h-11z"/><path fill="#c7bfa9" d="M62 53L29 71l46 1z"/><path fill="#74b391" d="M135.1 113.2l30.3-31.4-60.7 38.1 4-8.8z"/><ellipse fill="#ebf0f3" rx="1" ry="1" transform="matrix(24.66042 -15.05341 2.44717 4.00894 176.1 72.3)"/><path fill="#0075bd" d="M227 0h29v170h-29z"/><path fill="#05385f" d="M40 92h29v5H40z"/><ellipse fill="#006ead" rx="1" ry="1" transform="matrix(-1.73826 -2.839 63.95585 -39.15899 170.2 101)"/><path fill="#0063a0" d="M56 111l69-38-32 44z"/><path fill="#e51d1f" d="M44 70h10v7H44z"/><path fill="#60a175" d="M61 77.2L63.1 60l57.2-18.8-48.4 22.9z"/><ellipse fill="#9a4f47" rx="1" ry="1" transform="matrix(2.51137 -5.71344 3.54645 1.55886 180.6 32.8)"/><path fill="#b8a69f" d="M59 137h41v5H59z"/></g></g></svg>