<svg xmlns="http://www.w3.org/2000/svg" viewBox="0 0 300 200"><defs/><filter id="prefix__a"><feGaussianBlur stdDeviation="8"/></filter><rect width="100%" height="100%" fill="#498fb3"/><g filter="url(#prefix__a)"><g fill-opacity=".5" transform="translate(.6 .6) scale(1.17188)"><ellipse fill="#ffffcf" rx="1" ry="1" transform="matrix(-13.05685 -21.32943 151.3499 -92.64912 188 56.8)"/><ellipse fill="#005ec4" rx="1" ry="1" transform="rotate(63.1 6.8 240.8) scale(48.23287 228.2976)"/><ellipse fill="#fffff9" rx="1" ry="1" transform="matrix(-35.84044 11.0105 -5.85177 -19.04817 2.2 1.4)"/><ellipse fill="#004693" rx="1" ry="1" transform="matrix(-10.51955 -19.81986 142.98843 -75.89231 102.9 51.6)"/><ellipse fill="#00488f" rx="1" ry="1" transform="matrix(-65.95009 40.41427 -9.97651 -16.2802 29.5 30.9)"/><ellipse fill="#f1c59d" rx="1" ry="1" transform="matrix(-55.40436 31.53752 -5.6824 -9.9827 108.6 12.5)"/><ellipse cx="75" cy="122" fill="#e7cab7" rx="47" ry="19"/><ellipse cx="215" cy="127" fill="#0077bc" rx="51" ry="51"/><ellipse fill="#ff604d" rx="1" ry="1" transform="matrix(-4.70087 -9.29859 14.5824 -7.37209 207.1 47)"/><ellipse fill="#fffffe" rx="1" ry="1" transform="matrix(-73.82947 35.96299 -2.28652 -4.69407 133.8 70.3)"/><path fill="#002f5f" d="M37.8 154.9l22.1.2-35.2-30.8-6.7 9.3z"/><ellipse fill="#d5b09b" rx="1" ry="1" transform="rotate(11.1 -786.9 226) scale(30.69922 5.87478)"/><path fill="#4c4c5f" d="M74.3 129.9l-29 7.7-3.6-13.5 29-7.7z"/><ellipse fill="#f4dfdc" rx="1" ry="1" transform="matrix(-85.9145 52.4258 -4.87873 -7.99518 150.9 97.7)"/><ellipse fill="#07b" rx="1" ry="1" transform="matrix(-81.94024 41.65395 -11.67772 -22.97202 143 142.2)"/><ellipse fill="#fff" rx="1" ry="1" transform="matrix(2.3141 4.18001 -27.31232 15.12038 204.5 25.6)"/><path fill="#006dac" d="M97.7 31.2l19 40.8-130.4 60.8-19-40.8z"/><path fill="#faece1" d="M233 45l-42-19 70-42z"/><path fill="#78ae6d" d="M105.8 124.2l-14.3-1.1 26.2-37.8 66-26.1z"/><ellipse cx="10" fill="#fff6db" rx="27" ry="14"/><path fill="#e7dfd5" d="M60.7 119.3l91.1-15.6-120.7 5.2-15.6 19.3z"/><path fill="#fff1e8" d="M75 138H52l3 19z"/><path fill="#ee4b40" d="M104 19l-3-15 24 2z"/><path fill="#0074c1" d="M-9.4 157.1l-6.6-51.7L8.4 76l5.8 70.3z"/><path fill="#006090" d="M203.3-23.4L215-.2 70.7 73.4 59 50.2z"/><path fill="#fff6e7" d="M127.5 63.4l1.6 2.6-74.6 46.6-1.6-2.6z"/><path fill="#0074b9" d="M263 39l-132 83 123 63z"/><path fill="#ae8c76" d="M17 131l16 17-46 35z"/><ellipse fill="#d4bea8" rx="1" ry="1" transform="rotate(-112.6 32.5 21.9) scale(3.77087 39.4705)"/><path fill="#0058a3" d="M10 160l-22 24 97-16z"/><ellipse fill="#fffbff" rx="1" ry="1" transform="rotate(-119.5 97.6 -26.8) scale(3.8798 36.05485)"/><ellipse fill="#0069a4" rx="1" ry="1" transform="rotate(-117.5 26.5 1.5) scale(14.78042 84.73157)"/><path fill="#3c7ccd" d="M171 75l-12-13 46-10z"/><ellipse cx="13" cy="45" fill="#00639b" rx="22" ry="17"/><path fill="#e33010" d="M219 32l-10 22-10-10z"/><ellipse fill="#006eac" rx="1" ry="1" transform="matrix(-6.15246 -23.12264 36.39974 -9.68522 41.8 85.9)"/><path fill="#96b97d" d="M225.2 23.5l43.7-22.3 2.1 7.6-32 38.4z"/><ellipse fill="#0077bd" rx="1" ry="1" transform="rotate(-160.6 89.2 68.2) scale(54.76418 33.10173)"/><ellipse fill="#fffaf5" rx="1" ry="1" transform="rotate(9.5 -937.3 371.9) scale(7.2341 4.27147)"/><path fill="#c4fbff" d="M203.2 52.8l-11 6.9-5.4-8.5 11-6.9z"/><ellipse cx="254" cy="4" fill="#fef4fc" rx="26" ry="8"/><path fill="#dcd3cd" d="M22.9 143.9l-26.3 22.4-3.2 3.5 18.1-8.6z"/><ellipse fill="#48926e" rx="1" ry="1" transform="matrix(-27.2374 16.89963 -1.92407 -3.10105 73 31.5)"/><path fill="#c09881" d="M57 163l35-24-28 7z"/><path fill="#13812a" d="M86.2 103.3l-2.7 7.5-5.7-2 2.7-7.6z"/><ellipse fill="#0069a0" rx="1" ry="1" transform="matrix(61.81802 -36.12354 9.49292 16.24518 158.8 25.4)"/><path fill="#ffeee6" d="M-14 30l80-42-51-4z"/><path fill="#edf0f4" d="M109 130l-41-28 1 20z"/><path fill="#feffe1" d="M50 136l-28-17 8-9z"/><path fill="#ffebeb" d="M271 18v19l-43 17z"/><ellipse cx="39" cy="146" fill="#005491" rx="8" ry="8"/><path fill="#ece8ec" d="M89.3 33.7l-2.5-4.4 39.9-23 2.5 4.4z"/><path fill="#eae6e9" d="M167 95.7l78.1-45.2-32.4-21.9 35.8-6.5z"/><path fill="#54b18e" d="M57.5 127.5L43 140l-6.6-7.5L51 120z"/><path fill="#efe5e1" d="M145 65.3L98.1 98 93 90.7 139.8 58z"/><path fill="#d8cdc2" d="M12 124h6v21h-6z"/><path fill="#72904a" d="M250 24l-2 16-14-1z"/><path fill="#eddbd6" d="M209.2 43.6l14.5 19.8-22.8-37.5 16.3 37.4z"/><path fill="#4882c6" d="M83.3 30.4l-6.7-6.1 21.1-12.1 6.9 7.2z"/><path fill="#d7140d" d="M75 126l-6 3-11-14z"/><path fill="#c2bec3" d="M-16 92l8-29 28 4z"/><path fill="#2f3333" d="M17 148h13v5H17z"/><path fill="#f2e4cd" d="M57 41L45 53l27-12z"/><path fill="#3576bd" d="M193.6 49l-21.7 12.5-1.5-2.5 21.7-12.5z"/></g></g></svg>