<svg xmlns="http://www.w3.org/2000/svg" viewBox="0 0 300 200"><defs/><filter id="prefix__a"><feGaussianBlur stdDeviation="8"/></filter><rect width="100%" height="100%" fill="#61aa67"/><g filter="url(#prefix__a)"><g fill-opacity=".5" transform="translate(.6 .6) scale(1.17188)"><ellipse fill="#fff9ff" rx="1" ry="1" transform="matrix(-2.97745 52.66906 -43.70399 -2.47064 130.1 84)"/><ellipse cx="26" cy="85" fill="#218a2b" rx="32" ry="254"/><path fill="#f4dff8" d="M91 38h77v92H91z"/><ellipse cx="132" cy="84" fill="#65945e" rx="18" ry="26"/><ellipse cx="197" cy="47" fill="#359f3d" rx="29" ry="255"/><path fill="#299431" d="M57 0h112v36H57z"/><path fill="#1b8722" d="M69 61h22v44H69z"/><path fill="#fff6ff" d="M68 110L56 93l5-37z"/><ellipse cx="117" cy="161" fill="#3fa146" rx="255" ry="29"/><path fill="#fff" d="M74 115h28l-42-14z"/><path fill="#fff1ff" d="M110 50H72L60 65z"/><path fill="#fff" d="M163 101l-12-66 19 4z"/><path fill="#f4ebf9" d="M94 107h74v24H94z"/><ellipse cx="137" cy="80" fill="#f4f2ff" rx="18" ry="8"/><ellipse cx="246" cy="77" fill="#42a74a" rx="27" ry="115"/><path fill="#0f7919" d="M58 117h33v15H58z"/><path fill="#78581f" d="M135.3 89.8l-6.7-.2-5.9 14 23.6 2.6z"/><path fill="#fffeff" d="M150 39h19v88h-19z"/><ellipse cx="132" cy="67" fill="#309546" rx="17" ry="4"/><path fill="#258e2d" d="M57 36h32v16H57z"/><path fill="#f7effe" d="M124 69h17v19h-17z"/><path fill="#007000" d="M145 87.6l-2-22.9 4-.3 2 22.9z"/><path fill="#36a451" d="M118 88h31v10h-31z"/><ellipse cx="173" cy="98" fill="#439e4a" rx="5" ry="117"/><path fill="#469c4d" d="M94.8 65.8l-5.2 45.1L62 91.3l7.9-31.6z"/></g></g></svg>