<svg xmlns="http://www.w3.org/2000/svg" viewBox="0 0 300 200"><defs/><filter id="prefix__a"><feGaussianBlur stdDeviation="8"/></filter><rect width="100%" height="100%" fill="#aec8b3"/><g filter="url(#prefix__a)"><g fill-opacity=".5" transform="translate(.6 .6) scale(1.17188)"><ellipse cx="240" cy="87" fill="#007e00" rx="17" ry="255"/><ellipse cx="12" cy="86" fill="#007500" rx="18" ry="66"/><ellipse fill="#fff" rx="1" ry="1" transform="matrix(26.01083 -.1538 1.03182 174.49579 198 78.4)"/><ellipse cx="131" cy="118" fill="#4e6a1e" rx="39" ry="22"/><ellipse fill="#f8e2fd" rx="1" ry="1" transform="matrix(11.16795 142.44652 -31.24524 2.44966 61.5 101.5)"/><path fill="#097f14" d="M170.6 83.5l-34.2-51-55.9 27.4 89.7-22.5z"/><ellipse fill="#fff4ff" rx="1" ry="1" transform="matrix(10.5478 18.4175 -26.08006 14.93619 130.3 75.4)"/><ellipse cx="136" cy="10" fill="#ede8ff" rx="88" ry="28"/><path fill="#f9e6f9" d="M-16 152l242-20-61 53z"/><ellipse cx="205" cy="59" fill="#fff" rx="18" ry="255"/><path fill="red" d="M111.5 132.2l42.5.8 14.5 9.5-65.1-3.9z"/><path fill="#007803" d="M94 41h7v83h-7z"/><path fill="#137e59" d="M108.8 19.3l16.9 19.9L92 77.8l.9-14.1z"/><path fill="#005e6f" d="M150 47l-17-1 27-34z"/><path fill="#097d15" d="M164 51h7v67h-7z"/><path fill="#179b3a" d="M120 101l54-5-60 30z"/><path fill="#007600" d="M-4.8 5.7l.7-13 31 1.6-.8 13z"/><path fill="#fff1ff" d="M19.2 5.8L-16 9.3l31.2 18.3 23.2-15.3z"/><path fill="#2f9a39" d="M0 28h29v121H0z"/><path fill="#e5e1ec" d="M170 124.3L177.1-16l30.1 201-57.5-55.3z"/><ellipse fill="#fff" rx="1" ry="1" transform="matrix(-3.70366 5.37023 -6.96099 -4.80075 153.8 111.6)"/><path fill="#d1e7e4" d="M109.1 102.8l10.7 5.4-20.9 41-10.7-5.4z"/><path fill="#078d23" d="M98 119h68v8H98z"/><path fill="#e5e1ed" d="M100 63h61v36h-61z"/><path fill="#f30000" d="M120 126l-22 17 26-7z"/><path fill="#d3d4d7" d="M28 0h64v170H28z"/><ellipse cx="103" cy="101" fill="#0d841f" rx="11" ry="5"/><path fill="#ce0000" d="M162.2 144.2l-6.5 2.8-3.9-9.2 6.5-2.8z"/><path fill="#e8e4eb" d="M48 44L89-3l23 39z"/><path fill="#016ad7" d="M111.3 35.3l-6.4-8.9.3-12.7 22.5 30.2z"/><ellipse fill="#fff" rx="1" ry="1" transform="rotate(89.6 65.3 148.3) scale(161.60987 9.84036)"/><ellipse cx="132" cy="42" fill="#38982a" rx="37" ry="5"/><ellipse cx="133" cy="7" fill="#eee7ed" rx="49" ry="14"/><path fill="#fff" d="M123 128h19v5h-19z"/></g></g></svg>