<svg xmlns="http://www.w3.org/2000/svg" viewBox="0 0 300 200"><defs/><filter id="prefix__a"><feGaussianBlur stdDeviation="8"/></filter><rect width="100%" height="100%" fill="#79533f"/><g filter="url(#prefix__a)"><g fill-opacity=".5" transform="translate(.6 .6) scale(1.17188)"><ellipse cx="126" cy="57" fill="#ff5e08" rx="48" ry="80"/><ellipse fill="#b5d4f1" rx="1" ry="1" transform="matrix(2.73447 -64.11628 27.62747 1.17827 185.7 161)"/><ellipse cx="3" cy="72" fill="#162e23" rx="76" ry="76"/><ellipse fill="#00225e" rx="1" ry="1" transform="matrix(8.09607 21.04182 -43.93278 16.90362 116 164.1)"/><ellipse cx="127" cy="81" fill="#ff4300" rx="32" ry="56"/><ellipse fill="#304641" rx="1" ry="1" transform="rotate(79.7 78 168) scale(112.37232 43.37203)"/><ellipse fill="#a29fb4" rx="1" ry="1" transform="matrix(45.88872 -3.64132 2.02803 25.5577 141.5 0)"/><ellipse fill="#7e838b" rx="1" ry="1" transform="matrix(-22.88634 -42.50455 15.67095 -8.43794 216.4 145.3)"/><ellipse fill="#24403a" rx="1" ry="1" transform="matrix(2.35318 -21.69286 28.1216 3.05055 76.3 8.6)"/><ellipse cx="167" cy="96" fill="#a895a2" rx="11" ry="35"/><path fill="#d4a7a5" d="M77.5 64h15v78h-15z"/><ellipse fill="#42474e" rx="1" ry="1" transform="rotate(-86.2 101.4 53) scale(50.73945 41.44051)"/><ellipse cx="149" cy="42" fill="#ff5200" rx="22" ry="22"/><ellipse fill="#ff4600" rx="1" ry="1" transform="matrix(16.68553 -19.8599 15.64709 13.14609 102.2 44.1)"/><path fill="#93746d" d="M160.5.9l16.6 56.4 8.3 5 .1-72.9z"/><ellipse cx="116" cy="124" fill="#ff4800" rx="23" ry="12"/><ellipse cx="127" cy="18" fill="#ecc0b3" rx="10" ry="10"/><path fill="#c3bcc9" d="M160 132h28v38h-28z"/><ellipse cx="124" cy="167" fill="#0f3351" rx="32" ry="32"/><path fill="#302e21" d="M271 151l-99-70 36-18z"/><ellipse cx="92" cy="94" fill="#515a67" rx="5" ry="31"/><ellipse fill="#6a6049" rx="1" ry="1" transform="matrix(2.97982 15.92255 -25.91153 4.84921 61.3 33.4)"/><ellipse cx="121" cy="79" fill="#fb5800" rx="24" ry="54"/><path fill="#950000" d="M151 68h6v53h-6z"/><path fill="#ffa691" d="M88.6 136l6.5 20-5.7 2-6.5-20z"/><path fill="#c1a4a6" d="M151.5 143.9l-.9-19.7 43 8.7-15.5-25.3z"/><path fill="#ed4200" d="M144.8 140.2l9.6-70.3 26.2-14.4-35.5-42z"/><path fill="#b4dbe9" d="M109.7-16l6.6 32.5-9.7-9.8L93.1-16z"/><ellipse cx="3" cy="67" fill="#322f20" rx="30" ry="58"/><path fill="#75443c" d="M180.1 67.2l-14 43.3-9.5 37.4 12.8-25.3z"/><ellipse fill="#79797d" rx="1" ry="1" transform="rotate(-12.8 859.5 -881.7) scale(18.75565 57.95593)"/><path fill="#f29258" d="M151 65l-12-9 6-23z"/><path fill="#b1b5bc" d="M160.4 149.2l19.4-5.3-6.6-53.7 13 4.6z"/><ellipse cx="84" cy="92" fill="#d28f77" rx="8" ry="31"/><path fill="#834338" d="M140 6h50v9h-50z"/><path fill="#2b271f" d="M271 167l-51-66 32 77z"/><path fill="#757d7e" d="M190 59l-16-48-16 3z"/><ellipse cx="116" cy="147" fill="#2c4765" rx="20" ry="12"/><ellipse cx="35" cy="169" fill="#544a47" rx="54" ry="54"/><ellipse fill="#444031" rx="1" ry="1" transform="matrix(43.76521 8.62899 -1.58288 8.02818 63.4 11.5)"/><path fill="#6b2d32" d="M159.4 116.4l-3.5-40.6-2.5-1.6 6.7-23.6z"/><path fill="#e74000" d="M94 119h51v17H94z"/><path fill="#ec9382" d="M167 8l21-8-24-16z"/><path fill="#000d35" d="M165 182l-13-37v22z"/><path fill="#36362c" d="M250.3 111.6l-71.6-31.9-3-20.1-1.1 29.6z"/><path fill="#807561" d="M193-16l7 55 12-55z"/></g></g></svg>