<svg xmlns="http://www.w3.org/2000/svg" viewBox="0 0 300 200"><defs/><filter id="prefix__a"><feGaussianBlur stdDeviation="8"/></filter><rect width="100%" height="100%" fill="#dd5412"/><g filter="url(#prefix__a)"><g transform="translate(.6 .6) scale(1.17188)"><ellipse fill="#5c96c0" fill-opacity=".5" rx="1" ry="1" transform="matrix(17.89825 38.849 -60.88322 28.0497 246.5 136.7)"/><ellipse cx="255" cy="13" fill="#004764" fill-opacity=".5" rx="27" ry="63"/><ellipse cx="248" cy="115" fill="#000f06" fill-opacity=".5" rx="13" ry="28"/><ellipse cx="206" cy="150" fill="#ebb2a8" fill-opacity=".5" rx="21" ry="41"/><path fill="#ffd6b3" fill-opacity=".5" d="M131 55h25v34h-25z"/><ellipse cx="72" cy="73" fill="#ff5100" fill-opacity=".5" rx="114" ry="114"/><ellipse fill="#a60200" fill-opacity=".5" rx="1" ry="1" transform="rotate(-79 170 -41.5) scale(96.03563 10.79901)"/><path fill="#f6ecde" fill-opacity=".5" d="M130 76h25v13h-25z"/><ellipse cx="214" cy="65" fill="#f34200" fill-opacity=".5" rx="25" ry="43"/><path fill="#364e46" fill-opacity=".5" d="M271 9l-57-25 46 122z"/><path fill="#eed5cb" fill-opacity=".5" d="M82 79l-7-19 3 40z"/><path fill="#838f9f" fill-opacity=".5" d="M186.3 141.8l3.5-28.8 10 1.2-3.6 28.8z"/><path fill="#f4d8c2" fill-opacity=".5" d="M147.5 61.5L128.7 65l6.7-12.6 27.8 11.1z"/><ellipse cx="255" cy="153" fill="#456570" fill-opacity=".5" rx="17" ry="22"/><ellipse fill="#f44b00" fill-opacity=".5" rx="1" ry="1" transform="matrix(19.90112 46.01166 -36.41521 15.75043 184.1 18)"/><path fill="#f4d1bf" fill-opacity=".5" d="M70.8 117.2l-18.6 54-1-.4 18.6-54z"/><path fill="#910000" fill-opacity=".5" d="M185.5 128.9v42.9L161.6 185l38.8-108.5z"/><ellipse cx="194" cy="167" fill="#bdb4ba" fill-opacity=".5" rx="9" ry="29"/><path fill="#e1c6bc" fill-opacity=".5" d="M234 123h4v38h-4z"/><ellipse cx="215" cy="169" fill="#b46855" fill-opacity=".5" rx="18" ry="18"/><ellipse fill="#f64e00" fill-opacity=".5" rx="1" ry="1" transform="matrix(15.8187 -6.32703 33.98776 84.97547 142 142.3)"/><ellipse cx="74" cy="41" fill="#ed9e73" fill-opacity=".5" rx="3" ry="19"/><ellipse fill="#ee4d00" fill-opacity=".5" rx="1" ry="1" transform="matrix(-8.57062 -16.46401 5.9251 -3.08442 234.9 61.5)"/><path fill="#e54200" fill-opacity=".5" d="M151 84l12 101 19-105z"/><path fill="#f75200" fill-opacity=".5" d="M80 39h50v131H80z"/><ellipse cx="21" cy="41" fill="#f14d00" fill-opacity=".5" rx="40" ry="207"/><path fill="#393328" fill-opacity=".5" d="M229 101l26 42 16-70z"/><path fill="#dd9782" fill-opacity=".5" d="M195.9 185l33.5-83.6.9 3.7-35.8 7.2z"/><path fill="#eb3400" fill-opacity=".5" d="M136 63h16v12h-16z"/><path fill="#fffef2" fill-opacity=".5" d="M131 60h3v21h-3z"/><path fill="#f4b68e" fill-opacity=".5" d="M143.7 40.2l9.7 31.2-5.5 21.3 11.3-24z"/><path fill="#f35300" fill-opacity=".5" d="M156 20h27v69h-27z"/><path fill="#f3a17a" fill-opacity=".5" d="M72.2 117.5l-1-.3 12.6-32.7 1 .3z"/><path fill="#572931" fill-opacity=".5" d="M196.5 133.6l-5.5-33.2-3.9 14.5 4.8 11.6z"/><path fill="none" stroke="#f7dcc2" stroke-opacity=".5" stroke-width=".5" d="M76.2 58.6Q73 34.9 63.8 9.3"/><ellipse fill="#e04300" fill-opacity=".5" rx="1" ry="1" transform="matrix(18.12048 9.84246 -53.27488 98.0818 23 0)"/></g></g></svg>