<svg xmlns="http://www.w3.org/2000/svg" viewBox="0 0 300 200"><defs/><filter id="prefix__a"><feGaussianBlur stdDeviation="8"/></filter><rect width="100%" height="100%" fill="#24649d"/><g filter="url(#prefix__a)"><g transform="translate(.6 .6) scale(1.17188)"><ellipse cx="234" cy="149" fill="#ff8233" fill-opacity=".5" rx="49" ry="49"/><path fill="#803400" fill-opacity=".5" d="M271 144V-16h-56z"/><path fill="#141805" fill-opacity=".5" d="M255.2 91.2l7.5 85.7-22 1.9-7.4-85.7z"/><ellipse cx="206" cy="152" fill="#f2ad9f" fill-opacity=".5" rx="21" ry="44"/><path fill="#b6e0fb" fill-opacity=".5" d="M130 57h26v31h-26z"/><path fill="#001465" fill-opacity=".5" d="M200 48l-48 99 26 38z"/><ellipse cx="24" cy="64" fill="#086cbc" fill-opacity=".5" rx="161" ry="161"/><path fill="#d1dee4" fill-opacity=".5" d="M130 76h27v14h-27z"/><ellipse cx="205" cy="54" fill="#0055a8" fill-opacity=".5" rx="28" ry="57"/><ellipse fill="#eff2f3" fill-opacity=".5" rx="1" ry="1" transform="rotate(-95.2 68.2 -2) scale(34.73847 1)"/><ellipse cx="186" cy="96" fill="#001f59" fill-opacity=".5" rx="8" ry="30"/><ellipse fill="#80593d" fill-opacity=".5" rx="1" ry="1" transform="rotate(152.6 113.2 78.2) scale(24.99463 7.53841)"/><path fill="#eff1f3" fill-opacity=".5" d="M133 55h21v7h-21z"/><ellipse cx="236" cy="157" fill="#e4c2b1" fill-opacity=".5" rx="2" ry="36"/><ellipse fill="#00559e" fill-opacity=".5" rx="1" ry="1" transform="matrix(22.85654 21.21218 -74.61634 80.40057 0 27.7)"/><path fill="#000850" fill-opacity=".5" d="M164.8 174.7l9.8-36.7 12.6 3.3-9.8 36.7z"/><path fill="#818690" fill-opacity=".5" d="M187.2 118l-2.9 67 8.3-4.2 4.7-67.5z"/><ellipse cx="255" cy="22" fill="#504627" fill-opacity=".5" rx="24" ry="47"/><path fill="#00599f" fill-opacity=".5" d="M151 83h21v87h-21z"/><path fill="#e3a08d" fill-opacity=".5" d="M199 112l33-8-37 63z"/><ellipse fill="#b06958" fill-opacity=".5" rx="1" ry="1" transform="rotate(127.4 68.2 138.6) scale(21.42363 15.57487)"/><path fill="none" stroke="#c5e5fe" stroke-opacity=".5" stroke-width=".5" d="M73.9 48.2q-5.2-32.2-16-52"/><path fill="#cfe1ed" fill-opacity=".5" d="M132.5 86l-1.7-28.3 9.2-6.8-8.2 20.4z"/><ellipse fill="#005ba6" fill-opacity=".5" rx="1" ry="1" transform="matrix(5.20598 -16.6228 18.40408 5.76385 230.3 78.6)"/><path fill="#5c96c4" fill-opacity=".5" d="M88 95l-20 18-8 27z"/><ellipse cx="113" cy="99" fill="#1267ae" fill-opacity=".5" rx="27" ry="21"/><path fill="#bcd3e4" fill-opacity=".5" d="M154 82l-9 7 9-30z"/><path fill="#005299" fill-opacity=".5" d="M129 75l18-14 6 13z"/><ellipse cx="142" cy="82" fill="#d6e8f2" fill-opacity=".5" rx="6" ry="6"/><path fill="#a5c1d8" fill-opacity=".5" d="M74.6 63l2.5 28.7 4.3 7.6-3.8-37.1z"/><ellipse fill="#1068b0" fill-opacity=".5" rx="1" ry="1" transform="rotate(137.6 86.4 43.5) scale(55.26472 20.55881)"/><path fill="#6e9fc4" fill-opacity=".5" d="M55 162l12-27-9 5z"/><path fill="#5c1c16" fill-opacity=".5" d="M192 109.8l3.8 17.6-3.9.8-3.7-17.6z"/></g></g></svg>