<svg xmlns="http://www.w3.org/2000/svg" viewBox="0 0 300 200"><defs/><filter id="prefix__a"><feGaussianBlur stdDeviation="8"/></filter><rect width="100%" height="100%" fill="#559d50"/><g filter="url(#prefix__a)"><g fill-opacity=".5" transform="translate(.6 .6) scale(1.17188)"><ellipse fill="#ff7baa" rx="1" ry="1" transform="matrix(-26.21882 -3.14062 5.63786 -47.06654 213 149.7)"/><ellipse fill="#511d3a" rx="1" ry="1" transform="matrix(-19.11016 1.52244 -18.47158 -231.86098 251.9 75.4)"/><path fill="#005900" d="M159 142l37-95-15 138z"/><path fill="#c4f4c8" d="M131 54h27v35h-27z"/><ellipse cx="206" cy="73" fill="#31a53c" rx="37" ry="37"/><ellipse fill="#c78683" rx="1" ry="1" transform="matrix(14.03927 -16.91038 45.39839 37.69047 234.4 160.8)"/><ellipse cx="71" cy="85" fill="#4eb953" rx="60" ry="255"/><path fill="#a04c49" d="M237.2 95.1l-27.9 16.4 12.2-3.9 9.4 74.2z"/><path fill="#bddcbf" d="M75 62h5v43h-5z"/><path fill="#2e181a" d="M236.6 98.1l17.6-10 2.9 53.1-18.9-15.8z"/><path fill="#015c07" d="M168.5 158.8l-11.6 2.2 24 24 17.9-141.1z"/><ellipse cx="196" cy="153" fill="#cfa5a8" rx="11" ry="42"/><ellipse cx="166" cy="92" fill="#42ab46" rx="12" ry="69"/><path fill="#279729" d="M142 58l-11 17 24-2z"/><ellipse fill="#523430" rx="1" ry="1" transform="rotate(75.8 112.4 154.3) scale(48.87984 11.32846)"/><path fill="#1e4415" d="M196 131l-13-29 11-24z"/><ellipse fill="#4acc55" rx="1" ry="1" transform="matrix(-8.72252 -1.41994 1.92971 -11.85402 240 81.7)"/><path fill="#fefffd" d="M140 76h14v9h-14z"/><path fill="#e29b84" d="M194 112h31v42h-31z"/><ellipse cx="181" cy="23" fill="#45ae4c" rx="44" ry="44"/><ellipse fill="#3a9f41" rx="1" ry="1" transform="matrix(49.52537 -88.25317 22.4336 12.58915 23.6 0)"/><path fill="#b1d7ae" d="M72 32h4v30h-4z"/><path fill="#606e7c" d="M266 150.4l-28.4-23.9.6 46.6 17.6 11.9z"/><path fill="#b4e4b3" d="M58.2 149.7l-1-.4 16.6-43 1 .4z"/><path fill="#fff" d="M134 58h21v3h-21z"/><path fill="#aa6553" d="M200 158h37v12h-37z"/><path fill="#4dac4f" d="M78.4 110.2L2 185-14.1 72.7l86.4-31.4z"/><ellipse cx="211" cy="57" fill="#409d45" rx="28" ry="28"/><ellipse fill="#49ae4c" rx="1" ry="1" transform="matrix(-26.829 -3.29419 7.2387 -58.9545 135.7 148.3)"/><path fill="#a4c0cc" d="M196.1 163l-9.2 22-1.4-25.4 4.6-33.8z"/><ellipse cx="187" cy="85" fill="#116e14" rx="4" ry="33"/></g></g></svg>