<svg xmlns="http://www.w3.org/2000/svg" viewBox="0 0 300 200"><defs/><filter id="prefix__a"><feGaussianBlur stdDeviation="8"/></filter><rect width="100%" height="100%" fill="#545b61"/><g filter="url(#prefix__a)"><g fill-opacity=".5" transform="translate(.6 .6) scale(1.17188)"><ellipse cx="196" cy="142" fill="#dbcdd1" rx="32" ry="42"/><ellipse fill="#0071e6" rx="1" ry="1" transform="matrix(-21.22035 65.69947 -29.03215 -9.37713 131.6 75)"/><ellipse cx="141" fill="#f3bcaa" rx="37" ry="27"/><ellipse cy="74" fill="#463108" rx="78" ry="78"/><ellipse fill="#0064d0" rx="1" ry="1" transform="matrix(25.42153 -8.31763 7.29544 22.29734 107 46)"/><ellipse cx="236" cy="55" fill="#503916" rx="41" ry="72"/><ellipse fill="#001842" rx="1" ry="1" transform="matrix(30.78743 -17.84685 14.98754 25.85487 125 164)"/><path fill="#ff9873" d="M90 66.6l-15.6-7.1 8.4 95.1 13.5 1.8z"/><path fill="#db8166" d="M159 65h17v70h-17z"/><ellipse cx="127" cy="101" fill="#0056a4" rx="34" ry="34"/><ellipse fill="#9f8b7e" rx="1" ry="1" transform="matrix(14.90153 -4.21738 12.01821 42.46474 182.4 23.5)"/><ellipse fill="#858282" rx="1" ry="1" transform="matrix(-24.8553 -39.58582 16.24206 -10.19813 229.6 147.5)"/><path fill="#675338" d="M134.1 5L27.3 50.3 4-5l106.8-45.3z"/><ellipse fill="#beb9c3" rx="1" ry="1" transform="matrix(13.60543 -26.24754 18.21156 9.43998 185 162.3)"/><path fill="#00093c" d="M152 58h8v48h-8z"/><ellipse cx="39" cy="164" fill="#5d4944" rx="48" ry="48"/><path fill="#4a4a51" d="M165 112h10v40h-10z"/><path fill="#0669b3" d="M184 54l-37-37-54 67z"/><path fill="#322a1c" d="M271 133.6l-42.3-52.8-48.9-.4-3.7 11.4z"/><path fill="#ff8c79" d="M151 124h10v17h-10z"/><ellipse cx="125" cy="18" fill="#ffba97" rx="9" ry="9"/><ellipse cx="30" cy="75" fill="#3e3d24" rx="49" ry="36"/><path fill="#f2a781" d="M77 78h7v49h-7z"/><ellipse cx="100" cy="44" fill="#005eac" rx="19" ry="22"/><ellipse cx="187" cy="114" fill="#a8a5aa" rx="17" ry="17"/><ellipse cx="54" cy="28" fill="#625b42" rx="31" ry="31"/><ellipse fill="#c58675" rx="1" ry="1" transform="matrix(5.56964 -23.19922 7.17513 1.7226 165.8 90.3)"/><ellipse fill="#352f22" rx="1" ry="1" transform="matrix(38.49589 39.5862 -7.69465 7.48272 254.9 127)"/><path fill="#bebfc3" d="M139 5h28v14h-28z"/><ellipse fill="#0c5fa2" rx="1" ry="1" transform="matrix(-1.34696 -24.53958 29.29497 -1.60798 120.7 118.1)"/><ellipse cx="94" cy="103" fill="#4e3e32" rx="4" ry="21"/><path fill="#95bedc" d="M148 58l-9-5 9-10z"/><ellipse fill="#0762ad" rx="1" ry="1" transform="rotate(5.3 -303 1673.2) scale(19.12658 13.21299)"/><ellipse fill="#6b6150" rx="1" ry="1" transform="matrix(26.6625 -16.22244 8.05847 13.24456 199.5 57.2)"/><path fill="#99968b" d="M187 20.6l9.6 25.2-19.6 7.6-9.6-25.2z"/><path fill="#002679" d="M148 68h9v56h-9z"/><ellipse cx="87" cy="74" fill="#e49679" rx="7" ry="12"/><ellipse cx="118" cy="72" fill="#176eb0" rx="23" ry="23"/><ellipse fill="#7d7d80" rx="1" ry="1" transform="matrix(14.56515 -2.7042 7.13577 38.43403 223.5 147.1)"/><path fill="#6e6565" d="M83 136l-76-4 67-20z"/><ellipse fill="#443d2a" rx="1" ry="1" transform="rotate(6.3 27 490) scale(37.35497 13.24923)"/><path fill="#0f64a6" d="M112.4 27.2l4.9-17.1-43.7 50.6 94.6-18.8z"/><ellipse cx="165" cy="73" fill="#f9b399" rx="4" ry="10"/><ellipse cx="163" cy="48" fill="#0052a1" rx="11" ry="16"/><path fill="#43392a" d="M212.9-16L206 55l20.6-21.8-34.3-18.6z"/></g></g></svg>