<svg xmlns="http://www.w3.org/2000/svg" viewBox="0 0 300 200"><defs/><filter id="prefix__a"><feGaussianBlur stdDeviation="8"/></filter><rect width="100%" height="100%" fill="#5b634c"/><g filter="url(#prefix__a)"><g fill-opacity=".5" transform="translate(.6 .6) scale(1.17188)"><ellipse fill="#cab3ce" rx="1" ry="1" transform="matrix(30.0867 -10.65067 18.63368 52.63763 190.7 145.5)"/><ellipse cx="124" cy="72" fill="#5ed358" rx="47" ry="65"/><ellipse fill="#39221d" rx="1" ry="1" transform="matrix(4.17823 -130.18922 47.54537 1.5259 31.5 53.4)"/><ellipse cx="140" fill="#ed939f" rx="39" ry="27"/><ellipse cx="85" cy="107" fill="#ff7c87" rx="9" ry="47"/><path fill="#001752" d="M100.5 129l60.6 13-9.6 45L91 174z"/><ellipse fill="#48312e" rx="1" ry="1" transform="matrix(-44.82462 12.81047 -26.10495 -91.34279 236.4 71.3)"/><path fill="#ff728f" d="M172.2 63.7l-1.5 43-11-.4 1.6-43z"/><ellipse cx="175" cy="169" fill="#c6c5d4" rx="17" ry="51"/><ellipse cx="152" cy="85" fill="#01710d" rx="6" ry="40"/><ellipse fill="#50bb5d" rx="1" ry="1" transform="matrix(-27.03847 1.21824 -.96302 -21.3739 153.8 41)"/><ellipse cx="216" cy="156" fill="#71767d" rx="19" ry="38"/><ellipse cx="119" cy="112" fill="#39a347" rx="31" ry="31"/><ellipse cx="41" cy="149" fill="#594a50" rx="43" ry="43"/><ellipse fill="#373026" rx="1" ry="1" transform="rotate(121.6 82.3 117) scale(11.43654 58.99943)"/><path fill="#a95948" d="M166.1 86l11.4 3.7L160 144l-11.4-3.7z"/><ellipse cx="9" cy="68" fill="#2f2e1e" rx="26" ry="58"/><ellipse cx="174" fill="#985a4d" rx="35" ry="19"/><path fill="#685d46" d="M113 12L57 56 32 22z"/><ellipse fill="#45b24d" rx="1" ry="1" transform="rotate(-138.6 69 6) scale(40.76781 27.22329)"/><path fill="#4a3138" d="M92 64h5v70h-5z"/><ellipse fill="#8e6b72" rx="1" ry="1" transform="matrix(9.19656 27.57037 -6.8832 2.296 178.2 33.5)"/><ellipse cx="129" cy="17" fill="#efa6a9" rx="11" ry="11"/><path fill="#005404" d="M160 67.7l-5-.7 3-20.7 5 .7z"/><path fill="#c7e5ed" d="M80.9-16h31.7l1.2 29.6-26.3-29.1z"/><path fill="#e99f80" d="M81.4 139.5L78 70.7l9.3 59.5 8.5 29.4z"/><path fill="#767678" d="M251.1 185l-52-20.6-7-73.8 32 32.5z"/><ellipse fill="#2d2721" rx="1" ry="1" transform="rotate(-21.7 566.6 -575.3) scale(7.16705 62.72649)"/><ellipse fill="#bf7f7e" rx="1" ry="1" transform="rotate(16.7 -215.5 611.4) scale(7.05784 23.13991)"/><path fill="#1c7a1f" d="M135 110h24v15h-24z"/><ellipse cx="154" cy="131" fill="#e3877c" rx="6" ry="8"/><ellipse cx="179" cy="129" fill="#b2b0b6" rx="9" ry="33"/><path fill="#e89b94" d="M185.7 5.2L170 7l-16.9-23h37.6z"/><path fill="#9ecf99" d="M146 60l-11-7 7-11 11 7z"/><path fill="#162646" d="M109 145h49v25h-49z"/><ellipse cx="119" cy="141" fill="#374376" rx="22" ry="6"/><ellipse cx="56" cy="78" fill="#3d3d1d" rx="22" ry="22"/><ellipse fill="#bf7b65" rx="1" ry="1" transform="matrix(9.1202 -1.43187 1.85314 11.80343 86 71.4)"/><ellipse cx="90" cy="10" fill="#583b3c" rx="15" ry="14"/><ellipse fill="#56b355" rx="1" ry="1" transform="matrix(-8.68617 44.71644 -13.44595 -2.61187 115.1 92.3)"/><ellipse fill="#5a4f4e" rx="1" ry="1" transform="matrix(-4.97735 54.69191 -21.18632 -1.9281 60.8 161.9)"/><path fill="#389c3f" d="M85.8 34.3l25.4 11.8-11 23.6-25.4-11.8z"/><ellipse fill="#3aa841" rx="1" ry="1" transform="rotate(-128 90.4 -18.6) scale(25.20099 7.97008)"/><ellipse cx="201" cy="20" fill="#6f6a57" rx="5" ry="44"/></g></g></svg>