<svg xmlns="http://www.w3.org/2000/svg" viewBox="0 0 300 169"><defs/><filter id="prefix__a"><feGaussianBlur stdDeviation="8"/></filter><rect width="100%" height="100%" fill="#2f374d"/><g filter="url(#prefix__a)"><g fill-opacity=".5" transform="translate(.6 .6) scale(1.17188)"><ellipse cx="180" cy="143" fill="#ddae5b" rx="60" ry="60"/><ellipse fill="#00002c" rx="1" ry="1" transform="matrix(10.62757 52.10618 -184.22776 37.57509 64 19.4)"/><ellipse cx="229" cy="37" fill="#0240b0" rx="59" ry="38"/><ellipse cx="127" cy="132" fill="#8e8adb" rx="35" ry="21"/><ellipse fill="#6d5839" rx="1" ry="1" transform="matrix(15.594 -23.44498 52.379 34.83891 223.1 99.7)"/><ellipse cx="8" cy="55" fill="#000310" rx="29" ry="110"/><ellipse fill="#ffdf81" rx="1" ry="1" transform="rotate(-173.5 103.3 21.8) scale(4.74084 15.07428)"/><ellipse fill="#615350" rx="1" ry="1" transform="matrix(-16.64981 -14.78266 34.56745 -38.93354 112.6 114.3)"/><ellipse fill="#000b37" rx="1" ry="1" transform="matrix(-231.60483 63.79665 -15.35328 -55.73793 96 0)"/><path fill="#d1e4ff" d="M138 118h19v26h-19z"/><ellipse cx="46" cy="109" fill="#5d6d69" rx="14" ry="39"/><ellipse fill="#002470" rx="1" ry="1" transform="matrix(4.89734 15.50937 -104.27148 32.92544 174.2 32.8)"/><ellipse cx="247" cy="60" fill="#1d56b7" rx="28" ry="22"/><ellipse fill="#a68b45" rx="1" ry="1" transform="matrix(-42.86685 -37.4351 10.39205 -11.8999 182 120)"/><path fill="#a3a5b7" d="M183.5 80.5l-1.4-10.2 6.8-6.2 30.6-1.7z"/><ellipse cx="214" cy="114" fill="#000900" rx="25" ry="4"/><path fill="#514939" d="M156.3 104.5L172 34.9l20.7 67.9-53.8-17z"/><ellipse cx="132" cy="135" fill="#483df2" rx="7" ry="19"/><path fill="#baddff" d="M135 80h16v7h-16z"/><path fill="#d39f1b" d="M221.6 122.8l17.7 36.2-3.9-41.3-70.2 3.1z"/><ellipse cx="171" cy="135" fill="#946b00" rx="14" ry="14"/><ellipse fill="#00061d" rx="1" ry="1" transform="rotate(170.2 28.3 8.1) scale(90.37159 30.89745)"/><path fill="#9ea492" d="M119 60h6v33h-6z"/><ellipse cx="115" cy="134" fill="#3a3222" rx="7" ry="38"/><ellipse cx="33" cy="115" fill="#645130" rx="135" ry="4"/><ellipse fill="#151c2f" rx="1" ry="1" transform="matrix(-18.6779 -7.93683 8.27306 -19.46916 70.4 135.1)"/><path fill="#9a8adf" d="M109 121l-7 27-4-39z"/><path fill="#91bfe2" d="M175.2 116l43.9-5.4-21.8 1-50.4 3.2z"/><path fill="#37240d" d="M194.8 101l17.5 13.5 34-18.4 8.5 13.1z"/><ellipse fill="#191e2c" rx="1" ry="1" transform="matrix(.07701 -22.06278 19.8096 .06915 80.7 85)"/><path fill="#0f39a0" d="M193 62h7v33h-7z"/><ellipse cx="152" cy="89" fill="#373942" rx="63" ry="5"/><path fill="#734b11" d="M207.3 126.2l20.9-2.2 2.5 23.8-20.9 2.2z"/><path fill="#ffffd3" d="M185 72h6v5h-6z"/><path fill="#e4bf49" d="M193 92l-46 14h32z"/><path fill="#d7a58e" d="M195 118h11v26h-11z"/><path fill="#baa36e" d="M215 71l-8-31-10 10z"/><path fill="#98a8c1" d="M46 78h13v7H46z"/><path fill="#f6f2d4" d="M120 113.8l2.2-3.4 5.8 3.8-2.2 3.4z"/><ellipse fill="#476c92" rx="1" ry="1" transform="rotate(-50.8 161.3 17.7) scale(18.50722 7.96643)"/><ellipse cx="236" cy="37" fill="#002e91" rx="28" ry="18"/><path fill="#c7ab69" d="M214 97h17v6h-17z"/><path fill="#bcc4d6" d="M40 72h8v5h-8z"/><path fill="#2b2929" d="M20 73l31 4-33 43z"/><ellipse cx="134" cy="102" fill="#131717" rx="3" ry="16"/><path fill="#836c3f" d="M63 108h38v7H63z"/><ellipse cx="246" cy="111" fill="#8abbb6" rx="14" ry="2"/><path fill="#e7ca76" d="M178 54l-10 2-1-4z"/><path fill="#00389d" d="M179 53l13-5 5 13-13 5z"/><path fill="#e4cedb" d="M170.7 43.5L172 42l5.3 4.5L176 48z"/><ellipse fill="#032a77" rx="1" ry="1" transform="rotate(64.2 32.9 152.7) scale(21.8084 6.76363)"/><path fill="#00206b" d="M131 47h10v34h-10z"/><path fill="#473015" d="M15 110h28v14H15z"/><ellipse fill="#001948" rx="1" ry="1" transform="rotate(-115 77 -26.2) scale(16.05235 95.59819)"/><path fill="#502602" d="M135 111h41v2h-41z"/><ellipse cx="237" cy="116" fill="#32260b" rx="57" ry="3"/><ellipse fill="#002066" rx="1" ry="1" transform="matrix(4.33567 -.517 2.6181 21.95605 115.4 78)"/><path fill="#e9ffff" d="M180 111l-1 7-6-4z"/><ellipse cx="246" cy="84" fill="#040005" rx="7" ry="5"/><path fill="#fff" d="M55.4 81L47 84l-.3-1 8.5-2.8z"/><path fill="#757672" d="M94 91h12v17H94z"/><path fill="#bcbe96" d="M214 87h5v16h-5z"/><path fill="#453f59" d="M110 131h20v13h-20z"/><path fill="#da9b37" d="M251 118h5v9h-5z"/><path fill="#8f9390" d="M127.6 71.6L121 60.5l3.5-2.1 6.7 11.1z"/><path fill="#272019" d="M178.6 74.2l-12.6-.1 13.3-22.9-7.3-1.7z"/><ellipse cx="192" cy="119" fill="#cbb962" rx="30" ry="2"/><path fill="#decbf9" d="M99 67h9v2h-9z"/><path fill="#42351d" d="M135.3 101.4l45.9-4.8-19.1-48.7 14.7 51.2z"/><path fill="#87a2bc" d="M145 60h-4l6-10z"/><ellipse fill="#d5b646" rx="1" ry="1" transform="matrix(-.42554 -4.44338 15.17794 -1.45359 158 105.6)"/><path fill="#455fa2" d="M235 63h21v16h-21z"/><path fill="#fff" d="M135 82h14v2h-14z"/><path fill="#351e1b" d="M143 60h11v16h-11z"/><path fill="#c7bee2" d="M120 119h34v4h-34z"/><path fill="#310" d="M204 105h52v3h-52z"/><path fill="#56492e" d="M211.4 62.6l-13.7 2.7-1.1-6 13.7-2.6z"/><ellipse cx="114" cy="117" rx="16" ry="1"/><path fill="#4c5c9a" d="M195.7 72.4l7 .2-.4 23-7-.2z"/><ellipse cx="68" cy="81" fill="#1c2f56" rx="13" ry="8"/><ellipse cx="6" cy="132" fill="#110c10" rx="18" ry="15"/><path fill="#8d733b" d="M178.4 113.2l12.7-22.1 2.6-18.6L176.9 94z"/><path fill="#463a2c" d="M186 102l16 1 21-23z"/><path fill="#7b462b" d="M198 41h8v4h-8z"/><path fill="#8290e6" d="M150.2 159h-12.9l-1.9-41.2 10 9.1z"/><path fill="#0c4579" d="M53.5 159l5.6-36.9-9.7-1.3-5.9 37.1z"/><ellipse fill="#002074" rx="1" ry="1" transform="matrix(-5.12401 29.98398 -30.35312 -5.1871 233.2 4.8)"/><path fill="#3d4d7a" d="M153 58l18 26-11 4z"/><path fill="#ffffbf" d="M200 64h11v3h-11z"/><path fill="#624d2b" d="M256.2 128.7l-22.5-30.2-18.6-7.1 6.2 12z"/><ellipse cx="149" cy="116" fill="#00000b" rx="27" ry="1"/><ellipse cx="155" cy="80" fill="#40332a" rx="4" ry="17"/><ellipse fill="#2d3138" rx="1" ry="1" transform="matrix(30.20638 -2.52855 .29355 3.50681 56 87.5)"/><path fill="#002365" d="M123 42h40v14h-40z"/><ellipse cx="86" cy="114" fill="#ffeebf" rx="2" ry="2"/><path fill="#9ea8a9" d="M54 76h9v3h-9z"/><path fill="#ead2e1" d="M251 101l20-1-7 8z"/><path fill="#a39193" d="M94 114h11v8H94z"/><path fill="#9ea48c" d="M120 79h3v16h-3z"/><ellipse cx="86" cy="91" fill="#2a1c15" rx="6" ry="17"/><path fill="#fff095" d="M253 94h3v3h-3z"/><path fill="#392d18" d="M142 112l-19-28 5 28z"/><path fill="#928250" d="M153.9 105.9L128.1 117l-5.7-8.5 20.2 9.3z"/><ellipse cx="253" cy="110" fill="#95acbb" rx="45" ry="1"/><path fill="#48495c" d="M220 94l26-5-34-28z"/><path fill="#150303" d="M114 120l-4-12-7 4z"/><path fill="#fdebcf" d="M188.2 65.7l4.5 12.2-1 .4-4.4-12.2z"/><path fill="#9f8885" d="M155 123h6v21h-6z"/><path fill="#383123" d="M209 69h5v37h-5z"/><path fill="#fbc318" d="M230 119h4v19h-4z"/><ellipse cx="129" cy="87" fill="#473fab" rx="4" ry="4"/><path fill="#473148" d="M271 159l-32-18-4-27z"/><path fill="#d6dcf2" d="M156 116l-16 4 11 10z"/><ellipse cx="178" cy="95" fill="#ffe09e" rx="6" ry="1"/><path fill="#150c08" d="M23 114h50v2H23z"/><ellipse cx="173" cy="120" fill="#d6bb4b" rx="18" ry="3"/><path fill="#73777d" d="M32.3 134.4l10.8-18 8.6 5.2-10.8 18z"/><path fill="#957214" d="M162 122h25v22h-25z"/><ellipse cx="119" cy="108" fill="#806839" rx="40" ry="2"/><path fill="#77644d" d="M193 72l-12 1-6-13z"/><path fill="#514497" d="M93 131h17v13H93z"/><path fill="#0c0f2a" d="M-20.8 84.8L18 81.4l2.8 31.8-38.8 3.4z"/><path fill="#3b443a" d="M56.7 98.1l24-1.2.6 13-24 1.2z"/><path fill="#0c499c" d="M211 42h40v23h-40z"/><ellipse cx="195" cy="103" fill="#593f04" rx="10" ry="3"/><path fill="#807aca" d="M109.4 118.8l-18.5 1.9 7.4 3.3 2.9 11.5z"/><path fill="#e5f0ff" d="M55 82.4l-9.8 2.1-.2-1 9.8-2z"/><path fill="#8d825a" d="M186.9 109.8l26-11.4 2.7-16.4 11.2 7.8z"/><path fill="#828ca0" d="M171 82.4l-1 6-5-.8 1-6z"/><ellipse cx="142" cy="93" fill="#6c664d" rx="7" ry="7"/><ellipse cx="247" cy="115" fill="#332f18" rx="64" ry="4"/><ellipse fill="#061b43" rx="1" ry="1" transform="matrix(5.46095 15.33614 -23.33883 8.31058 81 61.1)"/><ellipse fill="#091d3d" rx="1" ry="1" transform="rotate(87.3 -16.5 51.3) scale(8.3734 24.85406)"/><path fill="#fafbe9" d="M183 75h11v3h-11z"/><path fill="#dbdac5" d="M198.3 51.3l-.5-3 12-1.6.4 3z"/><ellipse cx="209" cy="120" fill="#543b18" rx="2" ry="10"/><path fill="#1f4185" d="M192.6 75.7l10.3 22-7.3-56.7-5.6 11.9z"/><path fill="#3f3733" d="M180.6 54.2l-14.8 47.3 12.5-57.9-19.1 9z"/><path fill="#52516c" d="M81.1 64.9l3.6 1.8-5.5 16.4 2.5-14.3z"/><path fill="#a38459" d="M183 121.8l6.2 10.5 26.1-28.5-8.6 12.9z"/><path fill="#796c54" d="M72.3 111.3L42 121.7l-.3-1L72 110.3z"/><path fill="#3a5196" d="M234 60h6v35h-6z"/><path fill="#022f79" d="M160 40h5v45h-5z"/><path fill="#ad6969" d="M148 66h9v4h-9z"/><path fill="#002e7c" d="M199 18l-2 43-20-15z"/><path fill="#bbd7ff" d="M169 42h7v2h-7z"/><path fill="#574726" d="M170.8 82.2l12-7.5 7.7 18.5-19.6 1z"/><path fill="#e1b550" d="M200 120l5-2 3 20z"/><path fill="#f1ce98" d="M196 107.2v1l-14-1.4v-1z"/><path fill="#9ab6bf" d="M239.3 110.7l13 .3 18.7-6.3-4.9 9.5z"/><path fill="#94773f" d="M234 118h21v3h-21z"/><path fill="#8a8b8e" d="M103 91h4v16h-4z"/><path fill="#68706e" d="M62.7 89.2l-21.6 13.3 6.8 10.6 8.7-25.5z"/><path fill="#fff" d="M146 81h6v3h-6z"/><path fill="#6d411f" d="M175 109h14v3h-14z"/><ellipse fill="#00102f" rx="1" ry="1" transform="matrix(96.3202 -33.71163 5.11429 14.61244 65.4 34.7)"/><ellipse cx="187" cy="111" fill="#7998c7" rx="8" ry="1"/><ellipse cx="12" cy="117" fill="#8a7a59" rx="16" ry="1"/><ellipse cx="120" cy="113" fill="#d8c9b1" rx="6" ry="2"/><ellipse cx="145" cy="58" fill="#eaf6fe" rx="2" ry="2"/><ellipse cx="178" cy="116" fill="#fff" rx="2" ry="2"/><path fill="#393f3c" d="M112 99V88l-22 21z"/><ellipse cx="118" cy="76" fill="#0b2661" rx="2" ry="13"/><path fill="#72513f" d="M201 69h7v12h-7z"/><path fill="#46392f" d="M26 108h10v36H26z"/><path fill="#aeb9cf" d="M196 91h3v6h-3z"/><path fill="#012363" d="M142 34h27v20h-27z"/><path fill="#15160b" d="M177 62l-3-7-13 3z"/><ellipse fill="#221e2a" rx="1" ry="1" transform="matrix(-12.03913 -3.84218 4.41286 -13.82732 72.3 139.3)"/><ellipse cx="79" cy="110" fill="#756477" rx="1" ry="15"/><path fill="#6754ed" d="M136.6 117.4l3.4 10.4-8.6 2.8-3.4-10.4z"/><path fill="#864104" d="M226 107h30v2h-30z"/><path fill="#142a50" d="M130 58l-3 22 26-1z"/><path fill="#342a2a" d="M107 91l3-9-34 6z"/><path fill="#36313a" d="M235 94l-16 2 14-23z"/><path fill="#332611" d="M113.2 117.3l-6.5-6.3 4.1-4.3 6.5 6.3z"/></g></g></svg>