<?xml version="1.0" standalone="no"?>
<!DOCTYPE svg PUBLIC "-//W3C//DTD SVG 20010904//EN"
 "http://www.w3.org/TR/2001/REC-SVG-20010904/DTD/svg10.dtd">
<svg version="1.0" xmlns="http://www.w3.org/2000/svg"
 width="512.000000pt" height="512.000000pt" viewBox="0 0 512.000000 512.000000"
 preserveAspectRatio="xMidYMid meet">
<metadata>
Created by potrace 1.11, written by Peter Selinger 2001-2013
</metadata>
<g transform="translate(0.000000,512.000000) scale(0.100000,-0.100000)"
fill="#000000" stroke="none">
<path d="M3389 4725 c-3 -2 -28 -6 -58 -9 -62 -6 -95 -24 -116 -66 -9 -17 -20
-30 -25 -30 -6 0 -9 -3 -8 -7 2 -8 -17 -45 -52 -98 -11 -16 -24 -40 -30 -53
-6 -14 -15 -20 -22 -16 -7 4 -8 3 -4 -4 9 -14 -12 -55 -24 -47 -5 3 -12 0 -16
-6 -4 -8 -3 -9 4 -5 20 12 13 -4 -33 -81 -25 -40 -45 -78 -45 -83 0 -6 -4 -10
-10 -10 -5 0 -10 -4 -10 -9 0 -5 -14 -32 -31 -60 l-32 -50 -324 0 c-208 0
-322 3 -318 9 3 6 1 10 -4 10 -6 0 -11 4 -11 10 0 5 -16 35 -37 67 -20 31 -36
63 -36 70 0 7 -3 13 -7 13 -3 0 -17 19 -30 43 -12 23 -29 50 -37 59 -9 9 -12
23 -7 30 4 7 3 10 -1 5 -9 -7 -57 68 -58 90 0 7 -3 10 -7 8 -4 -2 -13 8 -19
23 -7 15 -12 27 -10 27 2 0 -5 9 -14 20 -9 11 -32 43 -50 70 -23 35 -43 53
-67 61 -34 12 -162 12 -208 1 -46 -12 -47 -16 -19 -81 9 -21 14 -43 10 -49 -3
-6 -1 -7 5 -3 13 8 36 -30 27 -44 -3 -5 4 -14 15 -20 11 -6 20 -17 20 -25 0
-8 5 -15 10 -15 6 0 10 -7 10 -15 0 -8 5 -15 10 -15 6 0 10 -7 10 -15 0 -8 4
-15 9 -15 5 0 12 -8 16 -19 3 -10 17 -31 30 -47 14 -16 25 -35 25 -41 0 -7 5
-13 12 -13 6 0 9 -3 6 -6 -4 -3 1 -14 10 -23 43 -46 50 -59 39 -71 -9 -8 -7
-9 7 -4 13 5 17 4 12 -4 -4 -7 -3 -12 3 -12 5 0 20 -14 32 -31 32 -46 13 -59
-92 -64 -113 -6 -286 -21 -325 -29 -12 -2 -39 -7 -60 -11 -22 -4 -43 -8 -49
-10 -5 -1 -23 -6 -40 -9 -41 -10 -59 -25 -75 -66 -8 -19 -15 -37 -15 -40 -1
-3 -5 -25 -10 -50 -5 -25 -8 -51 -6 -59 1 -7 -1 -11 -6 -8 -4 3 -8 -20 -7 -51
1 -67 -4 -84 -20 -75 -8 5 -8 3 1 -8 7 -8 10 -36 7 -69 -2 -30 -6 -87 -8 -127
-2 -40 -7 -77 -11 -82 -3 -6 0 -11 7 -11 10 0 10 -2 -1 -9 -9 -6 -10 -10 -2
-16 9 -5 9 -11 -1 -23 -11 -13 -11 -14 2 -7 12 7 13 6 4 -6 -13 -16 -16 -1182
-4 -1264 4 -25 3 -48 -2 -51 -4 -3 -5 -11 -1 -17 4 -7 9 -52 11 -102 7 -218 9
-252 17 -264 6 -10 4 -12 -6 -6 -12 8 -12 6 0 -8 11 -14 11 -17 0 -17 -12 0
-12 -2 0 -9 9 -6 10 -11 2 -15 -6 -4 -8 -13 -4 -19 10 -16 12 -29 17 -109 3
-37 7 -72 11 -78 3 -5 0 -10 -7 -10 -9 0 -10 -2 -1 -8 6 -4 13 -27 15 -52 2
-25 7 -51 12 -58 4 -6 2 -12 -3 -12 -6 0 -11 -5 -11 -11 0 -5 5 -7 12 -3 8 5
9 2 5 -9 -3 -10 -2 -17 4 -17 6 0 8 -4 5 -9 -20 -31 61 -102 107 -95 10 1 17
-1 17 -6 0 -4 11 -6 25 -5 15 2 29 -3 35 -13 6 -10 10 -12 10 -4 0 8 13 11 43
8 23 -2 42 -5 42 -6 0 -2 123 -11 172 -13 12 -1 19 -6 15 -11 -3 -6 1 -6 9 1
9 8 20 9 29 3 19 -12 33 -13 26 -2 -8 13 58 1 66 -12 5 -7 8 -7 8 -1 0 6 9 11
20 12 11 1 18 -2 15 -7 -3 -4 12 -4 32 0 l37 9 -44 -39 c-24 -21 -47 -37 -51
-34 -4 2 -11 -1 -15 -7 -4 -8 -3 -9 4 -5 7 4 12 2 12 -3 0 -6 -4 -11 -8 -11
-4 0 -38 -29 -76 -65 -37 -36 -73 -62 -79 -58 -6 3 -7 1 -3 -5 7 -12 -27 -52
-44 -52 -5 0 -10 -4 -10 -9 0 -14 -52 -61 -61 -55 -5 3 -6 -1 -3 -9 3 -8 -6
-23 -20 -35 -14 -11 -26 -27 -26 -36 0 -9 -4 -16 -10 -16 -14 0 -1 -29 36 -81
25 -36 30 -50 21 -60 -10 -10 -9 -11 3 -2 12 9 21 7 40 -9 14 -11 19 -16 11
-12 -9 4 -12 3 -8 -3 9 -14 52 -4 71 16 8 9 29 30 45 48 17 18 31 37 31 43 0
5 7 10 16 10 8 0 13 3 10 8 -5 8 15 38 27 40 4 1 6 5 5 8 -5 10 32 25 44 18 7
-5 8 -3 3 6 -6 10 -4 12 7 7 9 -3 19 -3 22 0 10 10 115 9 109 -1 -4 -5 -1 -6
8 0 20 12 51 12 68 0 11 -8 13 -8 7 2 -10 16 16 16 33 0 10 -9 12 -9 7 -1 -5
9 24 12 116 13 68 0 176 1 241 3 71 1 119 -2 121 -8 3 -5 5 -4 5 3 1 10 6 10
21 2 12 -6 20 -7 20 -1 0 6 11 6 30 1 19 -5 30 -5 30 1 0 6 5 7 10 4 6 -4 8
-12 4 -18 -3 -7 2 -3 10 7 14 17 16 18 16 3 0 -9 4 -17 10 -17 5 0 6 7 3 17
-5 12 -3 14 7 8 7 -4 55 -8 106 -8 65 0 91 -3 87 -11 -5 -8 -3 -8 8 0 13 10
85 10 149 0 14 -2 31 -4 38 -5 6 0 12 -8 12 -17 0 -8 5 -12 10 -9 9 6 14 -8
11 -27 0 -5 4 -7 10 -5 6 1 16 -6 22 -16 7 -11 26 -35 44 -54 18 -20 29 -41
26 -46 -3 -6 -1 -7 4 -4 6 4 16 0 23 -8 24 -29 54 -19 102 32 18 19 24 21 37
10 14 -10 14 -10 3 5 -11 14 -11 21 4 43 28 43 25 84 -8 115 -15 15 -28 32
-28 38 0 6 -9 14 -20 17 -11 4 -18 11 -15 16 4 5 2 9 -4 9 -6 0 -25 16 -43 37
-18 20 -39 41 -46 47 -7 6 -35 31 -62 56 -27 25 -63 57 -80 72 -16 15 -30 32
-30 37 0 6 -5 13 -12 17 -7 5 -9 2 -3 -7 4 -8 -4 -2 -17 13 -14 15 -28 25 -32
23 -3 -3 -3 -2 0 2 3 4 47 9 97 10 51 1 102 4 114 7 13 2 25 1 28 -5 4 -5 12
-9 18 -9 7 0 6 4 -3 10 -11 7 5 10 53 10 78 0 75 0 106 11 20 8 22 7 17 -8 -6
-17 -5 -17 8 0 15 19 31 23 20 4 -6 -9 -5 -9 8 1 8 6 38 13 67 14 28 2 51 5
51 8 0 3 21 11 46 18 37 10 48 19 57 42 8 21 17 29 27 25 12 -4 11 -2 -2 8
-15 12 -15 14 0 25 9 7 11 10 3 6 -10 -5 -11 -1 -6 15 7 22 8 30 19 131 13
110 17 156 20 227 3 40 7 77 11 83 3 5 3 10 -2 10 -4 0 -1 5 7 10 8 5 10 10 4
10 -7 0 -10 19 -8 52 1 29 4 77 5 106 1 29 6 55 11 58 5 3 5 11 0 17 -12 15
-12 47 0 47 5 0 4 8 -1 18 -6 11 -6 24 -1 32 5 9 5 19 -2 27 -6 7 -7 13 -2 13
18 0 17 1246 0 1345 -2 11 1 28 6 39 6 11 6 16 1 13 -6 -4 -11 16 -12 46 -7
149 -10 194 -15 215 -3 13 0 22 7 22 9 0 9 2 0 8 -7 4 -14 30 -17 57 -3 28 -5
50 -6 50 -1 0 -3 14 -6 30 -7 47 -10 58 -25 90 -21 46 -30 51 -124 72 -44 10
-50 12 -50 13 0 1 -20 3 -45 6 -85 8 -109 12 -120 19 -5 3 -10 0 -10 -7 0 -8
-3 -9 -8 -3 -4 6 -27 11 -52 12 -44 3 -203 12 -246 15 -18 2 -20 5 -11 19 6
10 15 15 21 12 5 -3 6 -2 3 4 -3 5 1 20 9 32 13 19 18 20 32 9 15 -12 16 -11
3 5 -9 11 -11 21 -5 25 5 4 23 27 39 52 16 25 34 48 40 52 5 4 6 8 2 8 -5 0
-2 6 5 14 15 15 19 21 90 131 29 44 56 82 60 83 4 2 6 7 3 12 -3 5 0 14 7 22
17 18 46 78 50 103 3 22 -31 43 -79 48 -16 2 -34 6 -40 10 -5 3 -12 5 -14 2z
m-1424 -635 c3 -5 -1 -10 -10 -10 -9 0 -13 5 -10 10 3 6 8 10 10 10 2 0 7 -4
10 -10z m556 -390 c0 8 5 4 9 -10 6 -19 8 -20 9 -6 1 16 3 17 18 5 9 -8 14 -9
10 -3 -4 7 0 15 9 18 13 5 15 2 11 -16 -5 -19 -4 -21 6 -7 12 16 53 19 74 6 6
-4 14 -3 17 1 8 13 56 2 56 -12 0 -6 5 -4 10 4 6 9 10 10 10 3 0 -6 8 -10 19
-8 10 2 29 -2 43 -9 13 -7 29 -11 36 -8 6 2 12 -2 12 -9 0 -7 3 -9 7 -6 3 4
13 1 21 -6 13 -10 14 -9 8 1 -7 11 -3 11 20 0 16 -8 55 -27 87 -43 31 -15 57
-32 57 -37 0 -4 7 -8 15 -8 8 0 15 -5 15 -10 0 -6 4 -9 8 -8 13 5 91 -65 85
-75 -3 -6 -1 -7 6 -3 6 4 14 0 17 -8 3 -9 13 -16 21 -16 12 0 13 -3 4 -14 -9
-11 -8 -14 5 -12 9 0 19 -5 22 -13 3 -9 0 -11 -8 -6 -8 5 -11 4 -6 -3 4 -6 13
-9 21 -5 18 6 19 -8 3 -27 -11 -12 -10 -12 5 -1 15 12 21 9 18 -11 0 -5 2 -7
6 -7 20 3 24 -2 14 -15 -9 -11 -9 -16 0 -22 8 -4 9 -3 5 4 -4 7 -2 12 4 12 6
0 15 -11 20 -24 5 -13 14 -27 20 -31 5 -3 8 -11 5 -16 -4 -5 -2 -9 3 -9 8 0
82 -141 86 -165 1 -5 5 -15 9 -22 16 -25 47 -136 40 -146 -3 -6 -1 -7 5 -3 8
5 12 -2 13 -18 2 -34 3 -39 11 -52 4 -6 9 -30 10 -52 2 -23 6 -42 9 -42 3 0 6
-6 6 -12 3 -56 8 -88 15 -88 5 0 4 -9 -2 -20 -8 -15 -8 -20 1 -20 6 0 9 -6 6
-14 -3 -8 -2 -29 3 -45 5 -20 5 -31 -1 -31 -6 0 -7 -6 -2 -12 11 -18 10 -41
-2 -57 -7 -11 -7 -13 1 -8 8 4 10 -27 8 -111 -1 -64 -3 -117 -4 -117 -1 0 -3
-17 -5 -37 -3 -36 -26 -70 -49 -74 -69 -11 -108 -15 -198 -18 -59 -2 -110 -6
-115 -9 -12 -6 -1293 -5 -1293 2 0 3 -59 7 -132 8 -73 1 -139 5 -148 9 -16 7
-29 10 -71 12 -40 3 -48 40 -52 237 -3 156 2 217 17 208 8 -5 8 -3 0 8 -9 11
-12 64 -4 64 1 0 3 16 5 35 6 60 20 135 25 135 1 0 3 9 5 20 13 75 17 92 22
105 4 8 8 22 9 30 5 41 25 72 42 66 15 -5 16 -4 1 6 -14 10 -15 16 -6 37 7 14
15 29 20 32 5 3 7 8 6 10 -6 9 21 69 30 69 6 0 7 8 4 17 -5 13 -2 15 12 10 16
-7 16 -5 4 10 -12 15 -12 16 5 10 17 -7 17 -6 5 10 -12 15 -12 16 4 10 12 -4
16 -3 11 4 -8 14 14 57 44 87 13 12 21 22 18 22 -3 0 2 10 12 21 56 70 75 88
86 82 6 -3 8 -3 4 2 -10 11 11 37 23 29 5 -3 8 0 7 8 -2 7 5 12 14 12 10 -1
14 4 11 12 -3 8 1 14 10 14 9 0 21 8 26 18 6 9 11 14 11 10 0 -5 10 2 21 13
17 17 23 19 30 8 7 -11 9 -10 9 4 0 19 45 41 62 31 6 -4 8 -3 5 3 -6 10 40 38
56 35 4 -1 7 2 7 6 0 5 7 9 15 9 12 0 12 -3 3 -16 -7 -9 -1 -7 12 5 30 25 60
37 60 24 0 -6 5 -10 10 -10 6 0 9 5 8 11 -5 19 93 34 104 16 5 -8 8 -6 8 6 0
10 5 15 10 12 6 -4 7 -11 4 -17 -4 -7 -2 -8 5 -4 6 4 9 12 6 17 -4 5 1 9 9 9
10 0 13 -6 10 -17 -5 -17 -5 -17 6 0 6 9 15 15 21 12 5 -4 9 0 9 7 0 9 3 9 10
-2 9 -13 10 -13 11 0z m-700 -1899 c0 11 2 11 6 1 4 -9 8 -10 18 -2 9 7 15 8
19 1 4 -6 13 -8 21 -4 9 3 15 -1 15 -8 0 -12 2 -12 9 0 6 9 11 10 15 2 4 -6
12 -9 17 -6 5 4 9 1 9 -4 0 -6 6 -10 13 -8 6 1 11 -4 9 -12 -2 -8 3 -11 12 -8
12 5 69 -46 72 -63 0 -3 7 -21 15 -40 17 -38 24 -123 13 -142 -4 -7 -9 -23
-10 -37 -2 -13 -9 -28 -16 -32 -7 -5 -9 -9 -4 -9 6 0 -10 -20 -35 -44 -73 -71
-194 -94 -285 -54 -50 22 -85 50 -80 64 3 8 0 13 -6 11 -6 -1 -22 17 -35 41
-14 24 -20 42 -13 42 8 0 7 5 -2 14 -8 7 -13 29 -12 47 1 19 2 44 3 57 1 16 5
21 14 16 8 -5 8 -2 -2 9 -9 11 -10 17 -2 17 6 0 10 3 9 8 -1 4 4 18 11 32 12
22 25 34 66 68 11 8 71 37 95 44 8 3 21 1 28 -5 8 -6 12 -5 13 4z m1507 0 c8
-1 10 -6 6 -13 -5 -10 -4 -10 5 -2 14 13 51 7 51 -7 0 -5 8 -9 18 -9 22 0 65
-38 57 -50 -3 -6 1 -7 9 -4 11 4 16 0 16 -10 0 -9 5 -16 11 -16 5 0 7 -4 4
-10 -3 -5 -1 -10 5 -10 6 0 8 -4 5 -10 -3 -5 -2 -10 2 -10 9 0 14 -25 15 -80
1 -55 -6 -100 -14 -100 -4 0 -8 -8 -8 -17 0 -20 -62 -93 -79 -93 -6 0 -11 -5
-11 -11 0 -6 -9 -9 -20 -6 -11 3 -18 1 -15 -4 13 -20 -120 -32 -180 -16 -64
17 -152 94 -141 124 3 8 1 11 -4 8 -6 -3 -10 -3 -11 2 0 4 -3 17 -6 28 -11 42
-15 125 -5 125 6 0 8 8 5 19 -6 24 44 104 59 95 6 -4 8 -3 5 3 -4 6 0 16 8 23
8 7 15 9 15 4 0 -5 5 -1 11 9 5 9 19 17 29 17 10 0 22 5 25 10 4 6 11 8 16 5
5 -4 15 -2 23 2 13 7 29 8 94 4z m-938 -804 c0 -4 6 -5 13 0 17 11 61 10 69
-2 5 -6 8 -5 8 3 0 7 5 10 10 7 6 -4 7 -12 3 -18 -4 -7 0 -7 10 1 9 8 21 11
27 7 5 -3 10 0 11 7 0 10 2 10 6 1 3 -9 10 -10 23 -3 13 7 20 6 23 -3 4 -8 8
-8 14 -2 11 13 93 13 93 0 0 -5 5 -3 10 5 8 12 10 12 10 1 0 -9 4 -10 13 -4
27 22 116 -4 100 -30 -4 -6 -1 -7 6 -2 14 8 63 -33 55 -47 -3 -5 -2 -8 3 -7
20 3 30 -3 46 -31 21 -34 30 -30 -78 -35 -27 -2 -52 -4 -55 -5 -16 -7 -280 -4
-280 3 0 5 -5 5 -12 1 -17 -11 -108 -12 -108 -2 0 5 -9 4 -20 -2 -15 -8 -20
-8 -20 2 0 9 -3 9 -10 -2 -6 -9 -10 -10 -10 -3 0 8 -9 9 -30 3 -16 -5 -32 -5
-35 0 -3 4 -15 6 -27 3 -14 -4 -26 0 -36 13 -12 15 -14 16 -9 2 4 -12 2 -16
-9 -12 -48 15 -47 12 -24 44 12 17 26 28 31 25 5 -4 9 -1 9 5 0 6 4 8 10 5 6
-3 7 1 4 9 -4 9 -1 16 6 16 7 0 20 8 29 18 9 10 24 23 33 28 22 12 88 13 88 1z"/>
<path d="M2495 3671 c-3 -5 -2 -12 3 -15 5 -3 9 1 9 9 0 17 -3 19 -12 6z"/>
<path d="M2340 3660 c-9 -6 -10 -10 -3 -10 6 0 15 5 18 10 8 12 4 12 -15 0z"/>
<path d="M2650 3659 c0 -5 5 -7 10 -4 6 3 10 8 10 11 0 2 -4 4 -10 4 -5 0 -10
-5 -10 -11z"/>
<path d="M2766 3638 c3 -5 10 -6 15 -3 13 9 11 12 -6 12 -8 0 -12 -4 -9 -9z"/>
<path d="M2290 3619 c0 -5 5 -7 10 -4 6 3 10 8 10 11 0 2 -4 4 -10 4 -5 0 -10
-5 -10 -11z"/>
<path d="M2330 3626 c0 -2 7 -7 16 -10 8 -3 12 -2 9 4 -6 10 -25 14 -25 6z"/>
<path d="M2870 3616 c0 -2 8 -10 18 -17 15 -13 16 -12 3 4 -13 16 -21 21 -21
13z"/>
<path d="M2210 3600 c0 -5 5 -10 11 -10 5 0 7 5 4 10 -3 6 -8 10 -11 10 -2 0
-4 -4 -4 -10z"/>
<path d="M1910 3399 c0 -5 5 -7 10 -4 6 3 10 8 10 11 0 2 -4 4 -10 4 -5 0 -10
-5 -10 -11z"/>
<path d="M1850 3380 c0 -5 5 -10 11 -10 5 0 7 5 4 10 -3 6 -8 10 -11 10 -2 0
-4 -4 -4 -10z"/>
<path d="M1760 1780 c-9 -6 -10 -10 -3 -10 6 0 15 5 18 10 8 12 4 12 -15 0z"/>
<path d="M1816 1738 c3 -4 11 -5 19 -1 21 7 19 12 -4 10 -11 0 -18 -5 -15 -9z"/>
<path d="M1979 1708 c-5 -18 -6 -38 -1 -34 7 8 12 36 6 36 -2 0 -4 -1 -5 -2z"/>
<path d="M2040 1600 c-9 -6 -10 -10 -3 -10 6 0 15 5 18 10 8 12 4 12 -15 0z"/>
<path d="M3236 1782 c-3 -5 1 -9 9 -9 8 0 12 4 9 9 -3 4 -7 8 -9 8 -2 0 -6 -4
-9 -8z"/>
<path d="M3286 1758 c3 -5 10 -6 15 -3 13 9 11 12 -6 12 -8 0 -12 -4 -9 -9z"/>
<path d="M3250 1740 c0 -5 5 -10 11 -10 5 0 7 5 4 10 -3 6 -8 10 -11 10 -2 0
-4 -4 -4 -10z"/>
<path d="M3335 1740 c-3 -5 -1 -10 4 -10 6 0 11 5 11 10 0 6 -2 10 -4 10 -3 0
-8 -4 -11 -10z"/>
<path d="M3075 1660 c3 -5 8 -10 11 -10 2 0 4 5 4 10 0 6 -5 10 -11 10 -5 0
-7 -4 -4 -10z"/>
<path d="M2355 991 c-3 -5 -2 -12 3 -15 5 -3 9 1 9 9 0 17 -3 19 -12 6z"/>
<path d="M2295 980 c-3 -6 1 -7 9 -4 18 7 21 14 7 14 -6 0 -13 -4 -16 -10z"/>
<path d="M2400 980 c-9 -6 -10 -10 -3 -10 6 0 15 5 18 10 8 12 4 12 -15 0z"/>
<path d="M2750 978 c0 -4 4 -8 9 -8 6 0 12 4 15 8 3 5 -1 9 -9 9 -8 0 -15 -4
-15 -9z"/>
<path d="M2355 940 c3 -5 8 -10 11 -10 2 0 4 5 4 10 0 6 -5 10 -11 10 -5 0 -7
-4 -4 -10z"/>
<path d="M2776 938 c3 -4 11 -5 19 -1 21 7 19 12 -4 10 -11 0 -18 -5 -15 -9z"/>
<path d="M2250 899 c0 -5 5 -7 10 -4 6 3 10 8 10 11 0 2 -4 4 -10 4 -5 0 -10
-5 -10 -11z"/>
<path d="M2850 899 c0 -5 5 -7 10 -4 6 3 10 8 10 11 0 2 -4 4 -10 4 -5 0 -10
-5 -10 -11z"/>
<path d="M1716 4375 c-9 -26 -7 -32 5 -12 6 10 9 21 6 23 -2 3 -7 -2 -11 -11z"/>
<path d="M3375 4360 c3 -5 8 -10 11 -10 2 0 4 5 4 10 0 6 -5 10 -11 10 -5 0
-7 -4 -4 -10z"/>
<path d="M3330 4301 c0 -6 4 -13 10 -16 6 -3 7 1 4 9 -7 18 -14 21 -14 7z"/>
<path d="M1894 4139 c-4 -7 -3 -9 4 -5 6 3 15 -2 21 -11 6 -10 11 -13 11 -7 0
20 -27 37 -36 23z"/>
<path d="M3876 1367 c3 -10 9 -15 12 -12 3 3 0 11 -7 18 -10 9 -11 8 -5 -6z"/>
<path d="M1335 1060 c-3 -5 -1 -10 4 -10 6 0 11 5 11 10 0 6 -2 10 -4 10 -3 0
-8 -4 -11 -10z"/>
<path d="M1473 1005 c0 -8 4 -12 9 -9 5 3 6 10 3 15 -9 13 -12 11 -12 -6z"/>
<path d="M1740 1006 c0 -2 8 -10 18 -17 15 -13 16 -12 3 4 -13 16 -21 21 -21
13z"/>
<path d="M1653 985 c0 -8 4 -12 9 -9 5 3 6 10 3 15 -9 13 -12 11 -12 -6z"/>
<path d="M1695 991 c-3 -5 -2 -12 3 -15 5 -3 9 1 9 9 0 17 -3 19 -12 6z"/>
<path d="M3415 980 c-3 -5 -1 -10 4 -10 6 0 11 5 11 10 0 6 -2 10 -4 10 -3 0
-8 -4 -11 -10z"/>
<path d="M1826 958 c3 -5 10 -6 15 -3 13 9 11 12 -6 12 -8 0 -12 -4 -9 -9z"/>
<path d="M3315 920 c3 -5 8 -10 11 -10 2 0 4 5 4 10 0 6 -5 10 -11 10 -5 0 -7
-4 -4 -10z"/>
<path d="M2599 628 c-5 -18 -6 -38 -1 -34 7 8 12 36 6 36 -2 0 -4 -1 -5 -2z"/>
<path d="M3076 593 c-6 -14 -5 -15 5 -6 7 7 10 15 7 18 -3 3 -9 -2 -12 -12z"/>
<path d="M3113 595 c0 -8 4 -12 9 -9 4 3 8 9 8 15 0 5 -4 9 -8 9 -5 0 -9 -7
-9 -15z"/>
<path d="M3150 601 c0 -6 4 -13 10 -16 6 -3 7 1 4 9 -7 18 -14 21 -14 7z"/>
<path d="M2309 583 c-13 -16 -12 -17 4 -4 16 13 21 21 13 21 -2 0 -10 -8 -17
-17z"/>
<path d="M2475 590 c-4 -6 -11 -7 -17 -4 -7 4 -8 2 -4 -5 6 -9 11 -9 22 0 14
11 18 19 10 19 -3 0 -8 -5 -11 -10z"/>
<path d="M2815 591 c-3 -5 -2 -12 3 -15 5 -3 9 1 9 9 0 17 -3 19 -12 6z"/>
<path d="M2055 580 c3 -5 8 -10 11 -10 2 0 4 5 4 10 0 6 -5 10 -11 10 -5 0 -7
-4 -4 -10z"/>
<path d="M2135 580 c3 -5 8 -10 11 -10 2 0 4 5 4 10 0 6 -5 10 -11 10 -5 0 -7
-4 -4 -10z"/>
<path d="M2670 585 c0 -7 30 -13 34 -7 3 4 -4 9 -15 9 -10 1 -19 0 -19 -2z"/>
<path d="M2735 579 c-3 -4 2 -6 10 -5 21 3 28 13 10 13 -9 0 -18 -4 -20 -8z"/>
<path d="M2930 579 c0 -5 5 -7 10 -4 6 3 10 8 10 11 0 2 -4 4 -10 4 -5 0 -10
-5 -10 -11z"/>
<path d="M2593 555 c0 -8 4 -12 9 -9 4 3 8 9 8 15 0 5 -4 9 -8 9 -5 0 -9 -7
-9 -15z"/>
<path d="M1835 500 c3 -5 8 -10 11 -10 2 0 4 5 4 10 0 6 -5 10 -11 10 -5 0 -7
-4 -4 -10z"/>
<path d="M1790 401 c0 -6 4 -13 10 -16 6 -3 7 1 4 9 -7 18 -14 21 -14 7z"/>
</g>
</svg>
