<svg xmlns="http://www.w3.org/2000/svg" viewBox="0 0 540 128">
	<path fill="#246fdd" d="M64.1 33.5c-1.4-.9-7.4 3.6-13 4.9s-5.9-.6-10.4.4-9.6 5.7-9.4 6.9c.3 1.1.5 2.2 1.9 3.1 1.1.7 3.1-1.9 6.2-3.4.4 2.5 1.1 6.7 1.7 12.2.9 9.2-2.3 15.8-.9 16.6 1.4.9 7.7-.9 8.6-2.3.7-1.2-.5-20.6-1.6-27.9 2.6-.2 2.8-.1 5.9-.9.7-.2.5-.3 1.2-.4 1.2 5.2 4.9 26.7 6.1 27.4 1.4.9 6.7-.9 7.6-2.3.9-1.4-1.1.3-4.4-14.2-1.4-6.3-2.2-9.8-2.7-11.8 2.2-.4 4-.8 4.4-1.4.8-1.5.1-6.1-1.2-6.9z" />
	<path fill="#333130" d="M263.9 54.1c-1.5-1.1-9.2 3.3-16.1 4.2-6.9.9-7.5-.2-13.1.4s-13.6 4.3-13.4 5.6c.2 1.3.3 3.6 1.9 4.7 1.3.9 4-1.8 8-3.3.2 2.8.5 7.6.4 13.9-.1 10.4-4.9 17.5-3.3 18.6 1.5 1.1 7.7-.4 8.9-1.9 1-1.2 2.5-23.3 2.1-31.6 3.2 0 4.8.3 8.7-.2.9-.1 1.8-.2 2.8-.3.8 5.9 3.8 29.5 5.2 30.4 1.5 1.1 4.7.6 5.9-.9 3.6-4.2.9 2.9-1.4-16.5l-1.7-13.6c2.7-.2 3.9-.5 4.5-1.2 1.3-1.2 2.2-7.2.6-8.3z" />
	<path fill="#e8e8e8" d="M433.5 46.5c-1.4-1.1-6.1 2.9-11.4 4.3-5.3 1.3-6.7.3-11 1.4-4.3 1.1-10 5.3-9.7 6.7.3 1.3.7 2.6 2.1 3.7 1.1.9 2.8-2.2 5.7-3.9.6 2.9 1.6 7.9 2.6 14.5 1.6 10.8-1 18.5.4 19.6 1.4 1.1 4.6.2 5.3-1.3.6-1.4-1.2-25.5-2.9-34.2 2.5-.2 4.6-.1 7.6-.8.7-.2 1.4-.3 2.2-.5 1.6 6.2 7.8 30.5 9 31.4 1.4 1.1 4.6.2 5.3-1.3.7-1.6-1.1.3-5.4-16.9-1.9-7.4-2.9-11.6-3.5-14 2.1-.4 3.8-.8 4.1-1.6.9-1.8 1-6-.4-7.1z" />
	<path fill="#ddd" d="M516.5 53.7c-2.6 1.3-2-6.2-9.5-8.8-7.4-2.6-11.6 1.6-14.2 9s.7 14.1 5.7 15.8c5 1.7 12.1-2.8 12.9-1.1.8 1.7-1.3 7.9-3 8.7-1.7.8-8.7 1.2-13.7-.5s-17.7-13-11.4-27.5c6.3-14.5 18.8-14.4 25-12.2 6.2 2.1 10.3 6.3 11.1 8s-1.2 7.8-2.9 8.6z" />
	<path fill="#333" d="M342.8 55.6s8.1-.4 7.8-9.7c-.2-9.4-25.9-14.5-28-11.4-1.6 2.5-5.9 38-4.7 39.5 1.2 1.5 6.6.8 17.1 2.1 10.5 1.3 15.3-4.8 15.9-10.1s-8.1-10.4-8.1-10.4zm-11.7-13.4c1.5-1.2 10.7-.1 8.7 5.1s-8.5 4.3-9.7 2.8-.5-6.7 1-7.9zm8.9 25.1c-1.7 5-11.3 4.6-11.7 1.6-.4-2.9.5-9.6 2.1-10.5 2.6-1.3 11.3 3.8 9.6 8.9z" />
	<path fill="#339de5" d="M151.7 48.2c-1.2-1.4-10.6-2.6-11.6-1.1-1.5 2.4-17.6 35.9-16.5 37.3 1.2 1.4 8.9 2.1 10.3 1 1.4-1.2 1.9-6.3 3.3-7.5 1.4-1.2 10.4-.3 11.6 1.1 1.2 1.4-.6 6.4 1.8 7.9s7.5 3.3 10.3 1-8.1-38.3-9.2-39.7zm-3.2 20.4c-1.4 1.2-9.4 3-10.4.3s5.1-12.5 7.6-12.2c2.6.2 4.2 10.7 2.8 11.9z" />
</svg>
