<svg xmlns="http://www.w3.org/2000/svg" viewBox="0 0 540 128">
	<style>.st0{fill:#c96331}.st2{fill:#87bc73}.st4{fill:#408fdd}.st6{fill:#9040dd}.st8{fill:#ef861d}</style>
	<path class="st2" d="M97.7 41.8c-1.6-1.5-4.3-1.7-6-.3L71.9 57.1c-1.7 1.4-2.6 4.2-2 6.3l2.1 7.2c.6 2.1 2.9 4 5.1 4.2l25.1 2.4c2.2.2 4.4-1.4 4.8-3.5 0 0 1.4-6.6-1.7-17s-7.6-14.9-7.6-14.9zM31.2 61.3c.5-2.1 2.7-3.7 4.9-3.5l25 2.2c2.2.2 4.5 2.1 5.1 4.2l2.1 7.2c.6 2.1-.3 5-2 6.3L46.7 93.5c-1.7 1.4-4.4 1.2-6-.3 0 0-4.8-4.7-7.9-15.1s-1.6-16.8-1.6-16.8z" />
	<path d="M69.7 57l-7.1 2.1c-1.2.4-1.9 1.9-1.4 3.5l.2.6 3.7 12.4.1.5c.5 1.6 1.8 2.5 3.1 2.2l7.1-2.1c1.2-.4 1.9-1.9 1.4-3.5l-.1-.4-3.8-12.6-.1-.4c-.4-1.7-1.8-2.7-3.1-2.3z" fill="#4da34d" />
	<path class="st4" d="M240 62.2c-.6-2.1-2.9-3.6-5.1-3.2l-17 2.5c-2.2.3-4.4 2.3-4.9 4.5l-.9 3.7c-.5 2.1.6 4.9 2.4 6.2l14.1 10c1.8 1.3 4.5 1 5.9-.7 0 0 2.8-3.1 4.7-11.1s.8-11.9.8-11.9zM187.8 49.8c1.5-1.6 4.2-1.9 6-.7l14.1 9.8c1.8 1.3 2.9 4 2.4 6.2l-.9 3.7c-.5 2.1-2.7 4.2-4.9 4.5l-17 2.7c-2.2.3-4.4-1.1-5-3.2 0 0-1.1-4 .7-12 1.9-8.1 4.6-11 4.6-11z" />
	<path d="M215.6 60.8l-5.5-1.3c-.9-.2-2 .6-2.2 1.8l-.1.4-2.2 9.6-.1.4c-.3 1.2.3 2.4 1.2 2.6l5.5 1.3c.9.2 2-.6 2.2-1.8l.1-.3 2.3-9.8.1-.3c.2-1.2-.4-2.4-1.3-2.6z" fill="#3a7bc1" />
	<g>
		<path class="st6" d="M380.4 36.5c-1.6-1.5-4.3-1.5-6-.1l-17.8 15c-1.7 1.4-2.5 4.3-1.8 6.4l2.1 6.3c.7 2.1 3.1 3.9 5.3 4l23.3 1.5c2.2.1 4.3-1.5 4.7-3.7 0 0 1.1-6-2.1-15.7-3.3-9.7-7.7-13.7-7.7-13.7zM322.4 56.3c1.4-1.7 4.3-3 6.5-2.8l17.2 1.2c2.2.1 4.6 2 5.3 4.1l2.1 6.3c.7 2.1-.1 5-1.8 6.4L334 86.6c-1.7 1.4-4.4 1.4-6-.1 0 0-4.5-4.2-7.8-13.8s2.2-16.4 2.2-16.4z" />
		<path d="M354.4 51.6l-6.7 2.2c-1.1.4-1.7 1.9-1.2 3.3l.2.5 3.9 11.6.1.4c.5 1.4 1.8 2.3 3 1.9l6.7-2.2c1.1-.4 1.7-1.9 1.2-3.3l-.1-.4-4-11.8-.1-.4c-.5-1.4-1.9-2.2-3-1.8z" fill="#723ac1" />
	</g>
	<g>
		<path class="st8" d="M515.2 63.8c-.5-2.2-2.6-3.8-4.8-3.6l-19.7 1.4c-2.2.2-4.5 2-5.2 4.1l-1.5 4.8c-.7 2.1.2 5 1.9 6.4l15.3 12.7c1.7 1.4 4.4 1.3 6-.2 0 0 3.6-3.5 6.4-12.1 2.6-8.8 1.6-13.5 1.6-13.5zM459.3 45.8c1.6-1.5 4.3-1.6 6-.2l15.3 12.5c1.7 1.4 2.6 4.2 1.9 6.3l-1.5 4.8c-.7 2.1-3 4-5.2 4.1L456 74.9c-2.2.2-4.3-1.5-4.8-3.6 0 0-1-4.9 1.8-13.6 2.7-8.6 6.3-11.9 6.3-11.9z" />
		<path d="M488.6 60.5l-6-1.9c-1-.3-2.2.5-2.6 1.8l-.1.5-3.3 10.3-.1.4c-.4 1.3.1 2.6 1.1 2.9l6 1.9c1 .3 2.2-.5 2.6-1.8l.1-.3 3.3-10.6.1-.3c.4-1.3-.1-2.6-1.1-2.9z" fill="#ce5619" />
	</g>
</svg>
