<svg xmlns="http://www.w3.org/2000/svg" viewBox="0 0 460.41 85.88">
	<path fill="#66bb6a" d="M184.38 47.72l-10.61-1.23a89.49 89.49 0 0 1-13.85 13.44 45.47 45.47 0 0 1-6.53 4.11 35.14 35.14 0 0 1-11.77 3.7 19 19 0 0 0 .84 5c1.38 2.38 30.4 5.2 32.78 3.81s9.44-28.8 9.44-28.8z" />
	<path fill="#7fcc7f" d="M140.73 42.65h-.3s.38 16.48 1.19 25.13a35.14 35.14 0 0 0 11.77-3.7 45.47 45.47 0 0 0 6.53-4.15 89.49 89.49 0 0 0 13.85-13.44z" />
	<path fill="#7c4c32" d="M184.61 42.3a22 22 0 0 0-42.69-5.56 4.39 4.39 0 0 0-.61 8.75h.27a4.93 4.93 0 0 0 8 1.17 4.91 4.91 0 0 0 8.66.82 4.93 4.93 0 0 0 8.44 1.45 4.93 4.93 0 0 0 8.41.65 4.9 4.9 0 0 0 7.54 1.21h.17a4.39 4.39 0 0 0 1.81-8.56z" />
	<rect fill="#633826" x="196.23" y="40.02" width="6.05" height="1.65" rx=".74" ry=".74" transform="matrix(.5 .86 -.86 .5 91.5 -163.07)" />
	<rect fill="#633826" x="209.83" y="42.15" width="6.05" height="1.65" rx=".74" ry=".74" transform="rotate(120.16 194.5 25.052)" />
	<rect fill="#633826" x="202.19" y="50.68" width="6.05" height="1.65" rx=".74" ry=".74" transform="rotate(79.54 190.327 20.08)" />
	<rect fill="#633826" x="216.52" y="51.23" width="6.05" height="1.65" rx=".74" ry=".74" transform="rotate(109.45 201.926 31.292)" />
	<rect fill="#633826" x="190.84" y="48.25" width="6.05" height="1.65" rx=".74" ry=".74" transform="rotate(109.45 176.245 28.303)" />
	<path fill="#e28150" d="M164.44 28.93h.15-.28z" />
	<path fill="#603813" d="M167.04 6.93h-.3l-.09.8h.31z" />
	<path fill="#e57715" d="M166.75 0s-3.79 7.16 0 7.32h.31c3.86-.25-.31-7.32-.31-7.32zm.27 7h-.32c-2.9-.19 0-6.24.06-6.25s3.26 6.03.26 6.27z" />
	<path fill="#e29017" d="M166.76.77c-.08 0-3 6.06-.06 6.25h.32c3-.24-.17-6.25-.26-6.25zm.25 6h-.31c-2.3-.21 0-5.07.08-5.07s2.61 4.79.23 5.03z" />
	<path fill="#eab83b" d="M166.78 1.66c-.05 0-2.38 4.86-.08 5.07h.31c2.38-.24-.17-5.07-.23-5.07z" />
	<path fill="#d65e34" d="M167.51 26.43l1.22-10.65a10.73 10.73 0 0 1-3 3.23c-1.4 1-2.44 1.21-3.21 1l-.66 5.74-.24 2a6.19 6.19 0 0 0 2.69 1.18h.28a8.35 8.35 0 0 0 2.66-.25z" />
	<path fill="#e28150" d="M165.69 19.01a10.83 10.83 0 0 0 3-3.24v-.05l.89-7.74-2.7-.31v.37h-.31v-.36l-2.7-.31-1.46 12.68c.84.17 1.88-.04 3.28-1.04z" />
	<path fill="#e28150" d="M166.595 8.019l.042-.368.308.035-.042.368zM165.69 19.01a10.73 10.73 0 0 0 3-3.23 10.83 10.83 0 0 1-3 3.23z" />
	<path fill="#633826" d="M161.14 26.93c.39 0 1.8 1 3.26 1.14a14.91 14.91 0 0 0 3.53-.35.79.79 0 0 1 .74.74c0 .36-.89.56-.89.56a9.43 9.43 0 0 1-3.53.35 8.75 8.75 0 0 1-3.26-1.14s-.79-.39-.75-.75c.05-.33.5-.55.9-.55z" />
	<path fill="#fe3c00" d="M35.52 72.49L20 75.86s-5.35 7.07-5.08 8.07 1.92 2.14 2.54 1.92 1.61-3.24 2.24-3.61 9.3-2.31 9.3-2.31 8.74-1.84 9.48-1.76 2.88 2.4 3.54 2.35 1.73-1.77 1.51-2.8-8.01-5.23-8.01-5.23zm-1.43 3c-.1.51-5.71 1.55-5.71 1.55s-5.54 1.39-5.85 1 2-3 2-3l6.48-1.41s3.18 1.3 3.08 1.81z" />
	<path fill="#0090ea" d="M13.59 30.93s-6.88-7.56-7.47-7.76-3.86.27-3.88 1.06 4.5 4.94 7.69 7.81M22.67 28.93s3.11-9.73 3.57-10.16 3.62-1.35 4-.65-2 6.37-3.75 10.3" />
	<path fill="#66ba6a" d="M39.18 33.69c-.68-2.07-1.48-5.64-2.82-6.62s-14.78 1.74-18.3 2.51S1.18 33.46.37 34.93s-.06 5 .19 7.2 3.16 15.9 3.72 18 2.31 9.41 3 11.31 1.51 5.09 2.23 5.49 3.81.1 5.46-.2 7.64-1.22 12.84-2.35 11-2.78 12.65-3.2 4.57-1.41 5-2.09-.06-3.91-.23-5.92-1.61-9.33-2-11.52-3.38-15.88-4.05-17.96zm-22.82 38.5a3.68 3.68 0 1 1 2.81-4.38 3.68 3.68 0 0 1-2.81 4.38zm20.94-4.56a3.68 3.68 0 1 1 2.82-4.38 3.69 3.69 0 0 1-2.82 4.38zm2.61-13c-.5 1.24-5.52 3.41-15.2 5.51S9.58 62.37 8.6 61.44s-2.09-7.79-2.25-11.82 1.26-12.39 12.82-14.9a18.76 18.76 0 0 1 8-.2 13.81 13.81 0 0 1 9.88 8.41c1.52 3.77 3.37 10.48 2.87 11.73z" />
	<path fill="#678dba" d="M457.04 56.58l-10.56-1.65a89.58 89.58 0 0 1-14.31 13 45.78 45.78 0 0 1-6.68 3.87 35 35 0 0 1-11.89 3.29 19.25 19.25 0 0 0 .66 5c1.3 2.42 30.21 6.26 32.63 5s10.45-28.46 10.45-28.46z" />
	<path fill="#619dc6" d="M413.59 49.93h-.3s-.19 16.48.31 25.16a35 35 0 0 0 11.89-3.29 45.78 45.78 0 0 0 6.68-3.87 89.58 89.58 0 0 0 14.31-13z" />
	<path fill="#7c4c32" d="M457.46 51.16a22 22 0 0 0-42.44-7 4.39 4.39 0 0 0-.92 8.72h.27a4.93 4.93 0 0 0 8 1.45 4.91 4.91 0 0 0 8.55 1.09 4.93 4.93 0 0 0 8.35 1.78 4.93 4.93 0 0 0 8.38 1 4.91 4.91 0 0 0 7.49 1.47h.17a4.4 4.4 0 0 0 2.11-8.5z" />
	<rect fill="#633826" x="469.54" y="47.89" width="6.05" height="1.65" rx=".74" ry=".74" transform="rotate(61.89 460.265 7.251)" />
	<rect fill="#633826" x="483.05" y="50.5" width="6.05" height="1.65" rx=".74" ry=".74" transform="rotate(122.18 467.591 33.884)" />
	<rect fill="#633826" x="475.12" y="58.75" width="6.05" height="1.65" rx=".74" ry=".74" transform="rotate(81.56 463.006 29.045)" />
	<rect fill="#633826" x="489.42" y="59.81" width="6.05" height="1.65" rx=".74" ry=".74" transform="rotate(111.47 474.669 40.41)" />
	<rect fill="#633826" x="463.87" y="55.93" width="6.05" height="1.65" rx=".74" ry=".74" transform="rotate(111.47 449.112 36.52)" />
	<path fill="#e28150" d="M437.77 37.12h.15-.29z" />
	<path fill="#603813" d="M441.15 15.16h-.14l-.17-.05-.12.79.31.05z" />
	<path fill="#e57715" d="M441.1 8.26s-4 7-.3 7.32h.32c3.85-.11-.02-7.32-.02-7.32zm0 7h-.14a1 1 0 0 1-.17 0c-2.9-.3.19-6.24.28-6.24s3.06 6.13.05 6.27z" />
	<path fill="#e29017" d="M441.09 9.04c-.09 0-3.18 5.94-.28 6.24a1 1 0 0 0 .17 0h.14c3.01-.13.05-6.24-.03-6.24zm0 6h-.31c-2.29-.29.21-5.07.26-5.07s2.47 4.88.08 5.03z" />
	<path fill="#eab83b" d="M441.07 9.93s-2.55 4.78-.26 5.07h.31c2.39-.15.01-5.07-.05-5.07z" />
	<path fill="#d65e34" d="M440.92 34.7l1.59-10.6a10.67 10.67 0 0 1-3.15 3.13c-1.44.94-2.48 1.12-3.24.89l-.87 5.72-.3 2a6.15 6.15 0 0 0 2.68 1.24h.29a8.29 8.29 0 0 0 2.66-.15z" />
	<path fill="#e28150" d="M439.37 27.23a10.93 10.93 0 0 0 3.15-3.14v-.05l1.16-7.7-2.68-.4-.05.36-.31-.05.05-.36-2.69-.4-1.9 12.62c.82.24 1.82.06 3.27-.88z" />
	<path fill="#e28150" d="M440.706 16.268l.055-.366.306.046-.055.366zM439.37 27.23a10.67 10.67 0 0 0 3.15-3.13 10.93 10.93 0 0 1-3.15 3.13z" />
	<path fill="#633826" d="M434.54 35c.4 0 1.77 1 3.23 1.25a14.16 14.16 0 0 0 3.53-.23c.35 0 .77.42.72.77-.06.36-.92.53-.92.53a9.27 9.27 0 0 1-3.53.22 8.66 8.66 0 0 1-3.22-1.25s-.77-.42-.72-.77c.05-.36.52-.59.91-.52z" />
	<path fill="#fe3c00" d="M299.48 69.61l-15.78 1.86s-6 6.48-5.89 7.53 1.7 2.32 2.34 2.15 1.92-3.06 2.59-3.37 9.53-1.42 9.53-1.42 8.88-1 9.6-.84 2.64 2.67 3.3 2.68 1.89-1.59 1.77-2.64-7.46-5.95-7.46-5.95zm-1.71 2.8c-.15.49-5.84 1-5.84 1s-5.65.84-5.91.4 2.29-2.78 2.29-2.78l6.59-.78s3.02 1.68 2.87 2.16z" />
	<path fill="#0090ea" d="M281.66 26.12s-6.11-8.2-6.68-8.45-3.86-.1-4 .68 4 5.36 6.9 8.51M290.92 25.03s4-9.39 4.53-9.77 3.74-1 4-.27-2.64 6.15-4.73 9.89" />
	<path fill="#66ba6a" d="M306.86 31.35c-.46-2.13-.92-5.76-2.16-6.86s-14.88.3-18.46.72-17.17 2.23-18.12 3.59-.55 5-.51 7.18 1.61 16.14 2 18.33 1.31 9.62 1.84 11.54 1 5.19 1.71 5.68 3.78.46 5.45.33 7.72-.48 13-1.11 11.25-1.69 12.91-1.95 4.68-1 5.22-1.59.33-3.91.34-5.92-.69-9.44-.86-11.66-1.89-16.15-2.36-18.28zm-26.43 36.11a3.68 3.68 0 1 1 3.23-4.09 3.69 3.69 0 0 1-3.23 4.09zm21.29-2.53a3.69 3.69 0 1 1 3.2-4.07 3.69 3.69 0 0 1-3.2 4.07zm3.85-12.66c-.63 1.19-5.83 2.86-15.66 4s-15.28.75-16.17-.27-1.32-8-1.1-12 2.46-12.24 14.21-13.63a19 19 0 0 1 8 .58 13.83 13.83 0 0 1 9 9.37c1.15 3.92 2.35 10.77 1.72 11.97z" />
</svg>
