<svg xmlns="http://www.w3.org/2000/svg" viewBox="0 0 540 128">
	<style>.st3{fill:#845431}</style>
	<g>
		<path d="M69.2 79.1c-19.1-3.4-8.6-33.3-6.6-33-.5 1.1 3.8 11.7 6.1 11.1 0 0 0-7.1 4.3-9.5 4.2-2.4 3.5-11.3 3.5-11.3 4.8 4.5 6 17.8 3.2 24.8 4.2-1.4 6-8.7 7.7-13 .2-2 4.1 7.4 2.8 18.5-.8 4.7-4.5 15.3-21 12.4z" opacity=".9" fill="#fbb03b" />
		<path d="M73 60.9c-.1-1.1 5.2 4.9 4.6 11.3-.7 4.8-1.6 7.9-6.4 7.1-4.8-.7-4.6-8.8-2-12 2.6-3 3.9-3.9 3.8-6.4z" opacity=".9" fill="#ffe133" />
		<path d="M45 73c-.8 1.4-.3 3.3 1.2 4.1l43.7 24c1.4.8 3.3.3 4.1-1.2l2.2-3.9c.8-1.4.3-3.3-1.2-4.1l-43.7-24c-1.4-.8-3.3-.3-4.1 1.2L45 73z" fill="#7a4f2c" />
		<path class="st3" d="M97.5 76.8c-.3-1.6-1.9-2.7-3.5-2.4l-49 9.8c-1.6.3-2.7 1.9-2.4 3.5l.9 4.4c.3 1.6 1.9 2.7 3.5 2.4l49-9.8c1.6-.3 2.7-1.9 2.4-3.5l-.9-4.4z" />
		<path d="M218.9 58.9c20.6-3.5 9.8-35.8 7.5-35.5.5 1.1-4.3 12.6-6.7 11.9 0 0 0-7.6-4.5-10.3-4.5-2.7-3.6-12.2-3.6-12.2-5.3 4.8-6.7 19.1-3.8 26.7-4.5-1.6-6.4-9.5-8.1-14.1-.2-2.2-4.5 7.9-3.3 20 .7 5 4.6 16.5 22.5 13.5z" opacity=".9" fill="#f9893d" />
		<path d="M214.9 39.3c.1-1.2-5.7 5.2-5.1 12.1.7 5.2 1.6 8.5 6.8 7.8 5.2-.7 5.1-9.5 2.4-12.9s-4.2-4.3-4.1-7z" opacity=".9" fill="#ffc033" />
		<path d="M245.2 52.9c.8 1.5.2 3.3-1.2 4.1l-47.8 25.5c-1.5.8-3.3.2-4.1-1.2l-2.5-4.7c-.8-1.5-.2-3.3 1.2-4.1L238.6 47c1.5-.8 3.3-.2 4.1 1.2l2.5 4.7z" fill="#895229" />
		<path d="M188.5 55.9c.3-1.6 1.9-2.7 3.6-2.3l53 11.2c1.6.3 2.7 1.9 2.3 3.6l-1.1 5.2c-.3 1.6-1.9 2.7-3.6 2.3l-53-11.2c-1.6-.3-2.7-1.9-2.3-3.6l1.1-5.2z" fill="#a86b42" />
		<path d="M346.7 80.2c-19.4-2.8-10-33.3-7.9-33-.4 1.1 4.3 11.7 6.5 11 0 0-.2-7.1 4-9.7s3.1-11.5 3.1-11.5c5 4.4 6.7 17.8 4.2 25 4.2-1.6 5.7-9 7.2-13.4.1-2 4.5 7.3 3.5 18.6-.5 4.4-3.9 15.4-20.6 13z" opacity=".9" fill="#edac45" />
		<path d="M349.9 61.7c-.1-1.1 5.5 4.8 5.1 11.2-.6 4.9-1.3 8-6.2 7.5-4.9-.6-5-8.7-2.5-12s3.7-4.2 3.6-6.7z" opacity=".9" fill="#ffc533" />
		<path d="M321.9 75c-.7 1.5-.1 3.3 1.3 4l45.1 22.6c1.5.7 3.3.1 4-1.3l2-4.1c.7-1.5.1-3.3-1.3-4l-45-22.7c-1.5-.7-3.3-.1-4 1.3l-2.1 4.2z" fill="#7f5a25" />
		<path d="M375.1 76.8c-.4-1.6-2-2.6-3.6-2.2l-49.1 11.7c-1.6.4-2.6 2-2.2 3.6l1.1 4.5c.4 1.6 2 2.6 3.6 2.2L374 84.9c1.6-.4 2.6-2 2.2-3.6l-1.1-4.5z" fill="#8e6228" />
		<path d="M482.8 63.8c20.3-4.5 7.8-36 5.6-35.5.6 1.1-3.6 12.7-6 12.1 0 0-.4-7.6-5-10s-4.2-11.9-4.2-11.9c-5 5.1-5.6 19.3-2.4 26.7-4.6-1.3-6.8-9-8.7-13.6-.3-2.1-4.1 8.1-2.2 19.9.9 5 5.4 16.2 22.9 12.3z" opacity=".9" fill="#f96c46" />
		<path d="M477.9 44.6c.1-1.2-5.4 5.5-4.5 12.3 1 5.1 2 8.4 7.1 7.4s4.6-9.6 1.7-12.9c-2.8-3.3-4.3-4.2-4.3-6.8z" opacity=".9" fill="#ff9d33" />
		<path d="M508.6 56.5c.9 1.4.4 3.3-1 4.1l-46.1 27.7c-1.4.9-3.3.4-4.1-1l-2.7-4.5c-.9-1.4-.4-3.3 1-4.1L501.8 51c1.4-.9 3.3-.4 4.1 1l2.7 4.5z" fill="#77452c" />
		<path class="st3" d="M452.5 62.4c.3-1.6 1.8-2.8 3.4-2.5l53.1 8.4c1.6.3 2.8 1.8 2.5 3.4l-.8 5.1c-.3 1.6-1.8 2.8-3.4 2.5L454.2 71c-1.6-.3-2.8-1.8-2.5-3.4l.8-5.2zM334.8 102.4z" />
	</g>
</svg>
