<svg xmlns="http://www.w3.org/2000/svg" viewBox="0 0 540 128">
	<path fill="#603813" d="M56.9 41.1h1v6h-1z" />
	<path fill="#e57715" d="M57.6 44c-15 0 0-25 0-25s15 25 0 25z" />
	<path fill="#e29017" d="M57.6 43c-11.9 0-.3-21.4 0-21.4S69.5 43 57.6 43z" />
	<path fill="#eab83b" d="M57.6 42c-9.6 0-.2-17.4 0-17.4.3 0 9.7 17.4 0 17.4z" />
	<path fill="#ccb485" d="M55.8 70c-3.5 2.1-6.2 2.6-8.2 2.2l-1.4 18.1 15 1.2L63.4 63c-1.7 2.5-4.1 5-7.6 7z" />
	<path fill="#d8c49a" d="M55.8 70c3.4-2.1 5.9-4.5 7.6-7l1.3-16.4-15-1.2-2.1 26.8c2 .5 4.7 0 8.2-2.2z" />
	<path fill="#603813" d="M188.8 38.2h1v6h-1z" />
	<path fill="#e57715" d="M188.6 41c-9.8 0 0-25 0-25s9.9 25 0 25z" />
	<path fill="#e29017" d="M188.6 40c-7.8 0-.2-21.4 0-21.4s7.8 21.4 0 21.4z" />
	<path fill="#eab83b" d="M188.6 39c-6.3 0-.1-17.4 0-17.4s6.3 17.4 0 17.4z" />
	<path fill="#82b3d8" d="M193.1 63.1c-6.1 2.8-11 4.1-14.9 4.3l2 15.2 28.5-3.7-3.1-23.9c-2.6 2.6-6.6 5.4-12.5 8.1z" />
	<path fill="#b0dbed" d="M205.5 55.1l-1.8-13.8-28.4 3.7 2.9 22.5c3.9-.3 8.8-1.5 14.9-4.3 5.9-2.8 9.9-5.6 12.4-8.1z" />
	<path fill="#603813" d="M344.2 23.8h1.1v6.4h-1.1z"/>
	<path fill="#e57715" d="M344.6 26.9c-14.3 0 0-19.9 0-19.9s14.4 19.9 0 19.9z" />
	<path fill="#e29017" d="M344.6 26.1c-11.3 0-.3-17 0-17s11.4 17 0 17z" />
	<path fill="#eab83b" d="M344.6 25.3c-9.2 0-.2-13.8 0-13.8s9.2 13.8 0 13.8z" />
	<path fill="#d65e34" d="M341.8 60c-4.8 2.6-8.4 3.1-11.1 2.5l-2.6 23.3 20 2.2 4-36.6c-2.3 3-5.6 6.1-10.3 8.6z" />
	<path fill="#e28150" d="M341.8 60c4.7-2.5 8-5.5 10.4-8.7l2.3-21-20-2.2-3.8 34.4c2.7.6 6.3.1 11.1-2.5z" />
	<path fill="#603813" d="M472.9 44.9h.9v5.2h-.9z" />
	<path fill="#e57715" d="M472.6 47.4c-18.8 0 0-25.4 0-25.4s18.9 25.4 0 25.4z" />
	<path fill="#e29017" d="M472.6 46.4c-14.9 0-.3-21.8 0-21.8s14.9 21.8 0 21.8z" />
	<path fill="#eab83b" d="M472.6 45.4c-12.1 0-.3-17.7 0-17.7s12.1 17.7 0 17.7z" />
	<path fill="#8adda6" d="M454.9 66.9l1.1 10.5 40.5-4.2-1.7-16.5c-3.9 1.9-9.8 4.1-18.4 6.3-9 2.3-16 3.5-21.5 3.9z" />
	<path fill="#a4eac9" d="M453.3 51.4l1.6 15.5c5.5-.4 12.5-1.6 21.4-3.9 8.7-2.3 14.5-4.4 18.4-6.3l-1-9.5-40.4 4.2z" />
</svg>
