<svg version="1.1" xmlns="http://www.w3.org/2000/svg" viewBox="0 0 540 128">
	<path fill="#b77b4f" d="M32.46 46.73l57.82-8.9 1.98 12.85-57.83 8.9z" />
	<path fill="#aa7244" d="M52.4 29.48l13.85-2.13L77.2 98.5l-13.84 2.13z" />
	<path fill="#9b6940" d="M186.63 51.63l41.67 7.28-1.61 9.26-41.67-7.28z" />
	<path fill="#8c6239" d="M204.27 44.43l9.95 1.73-8.97 51.33-9.95-1.74z" />
	<path fill="#b26938" d="M329.9 39.44l50.3-4.64 1.02 11.16-50.29 4.63z" />
	<path fill="#aa6535" d="M347.88 25.59l12.05-1.11 5.7 61.84-12.05 1.1z" />
	<path fill="#997541" d="M467.25 56.2l34.06 4.02-.89 7.55-34.06-4.02z" />
	<path fill="#896e38" d="M481.09 49.54l8.14.96-4.94 41.91-8.14-.96z" />
</svg>
