<svg xmlns="http://www.w3.org/2000/svg" viewBox="0 0 458.41 85.8">
	<path fill="#e230b4" d="M146.41 41.8c-11.63-3.32-18.05-7.57-21.45-10.69a44.57 44.57 0 0 0-1.31 5.81c4 2.88 10.76 6.38 21.76 8.88a159.57 159.57 0 0 0 26.19 3.93q.85-2.06 1.53-4.23c-5.55.22-14.65-.25-26.72-3.7zM174 17c-2.18-7.93-6.59-14.2-13.59-16.3-7.79-2.36-15.95 1.42-22.65 8.22 3.12 1.72 8.46 3.8 17.61 5.88A75.54 75.54 0 0 0 174 17zM150.41 24.8c-10.28-3.13-14.76-7.45-16.58-11.28a54.67 54.67 0 0 0-4.26 6.56c.88 1.42 5.63 8 20.78 12.11a72.36 72.36 0 0 0 25 2.32 53.19 53.19 0 0 0 .22-7c-5.67.78-14 .69-25.16-2.71zM124.81 52.97c2.33 6.3 7.24 11.4 15.56 13.93 7.69 2.33 14.2 1.21 19.44-2.1a78.18 78.18 0 0 1-18.4-4 69.55 69.55 0 0 1-16.6-7.83z" />
	<path fill="#9840ff" d="M123.65 36.92a32 32 0 0 0 1.16 16.05 69.55 69.55 0 0 0 16.6 7.83 78.18 78.18 0 0 0 18.4 4c5.19-3.28 9.14-8.71 11.79-15.07a159.57 159.57 0 0 1-26.19-3.93c-11-2.5-17.76-6-21.76-8.88z" />
	<path fill="#c04add" d="M150.35 32.19c-15.15-4.1-19.9-10.69-20.78-12.11a54.44 54.44 0 0 0-4.61 11c3.45 3.15 9.82 7.4 21.45 10.72 12.07 3.45 21.17 3.92 26.72 3.7a54.17 54.17 0 0 0 2.18-11 72.36 72.36 0 0 1-24.96-2.31z" />
	<path fill="#f0f" d="M155.41 14.8c-9.15-2.08-14.49-4.16-17.61-5.88a46.87 46.87 0 0 0-4 4.6c1.82 3.83 6.3 8.15 16.58 11.28 11.16 3.4 19.49 3.49 25.12 2.7a46 46 0 0 0-1.53-10.5 75.54 75.54 0 0 1-18.56-2.2z" />
	<path fill="white" opacity=".29" d="M139.66 11.11c8.94-4.65 33.6 2.92 8.44 17.84s-17.39-13.15-8.44-17.84z" />
	<path fill="#aa5424" d="M284.72 7.27c31.28-4.31 54.79 72.13 10.8 78.2s-42.11-73.88-10.8-78.2z" />
	<path fill="white" opacity=".29" d="M273.75 19.27c8.51-7.74 37.93-6.59 14.52 17.22s-23.03-9.48-14.52-17.22z" />
	<path fill="#89e541" d="M16.22 13.24c24.45-5 46.76 54.16 12.38 61.12S-8.23 18.19 16.22 13.24z" />
	<circle fill="#f7931e" cx="12.13" cy="28.39" r="3.9" />
	<circle fill="#f7931e" cx="30.64" cy="33.39" r="3.9" />
	<circle fill="#f7931e" cx="9.6" cy="55.15" r="3.12" />
	<circle fill="#f7931e" cx="22.77" cy="65.21" r="4.68" />
	<circle fill="#f7931e" cx="35.28" cy="52.33" r="3.12" />
	<circle fill="#f7931e" cx="19.2" cy="43.66" r="2.34" />
	<path fill="white" opacity=".29" d="M8.41 21.97c6.75-6.17 30-5.27 11.53 13.58S1.73 28.1 8.41 21.97z" />
	<path fill="#3397db" d="M457.74 40.5a33.87 33.87 0 0 0-2.17-7.38c-1.54.34-5.66.48-16.16-2.32-6.3-1.68-9.59-3-11.3-4a36.57 36.57 0 0 0-4.54 4.23 70.84 70.84 0 0 0 14.84 5.77 143.09 143.09 0 0 0 19.33 3.7zM428.41 65.8a62.78 62.78 0 0 1-16.51-9.65 30.78 30.78 0 0 0 .15 9.16c3.36 2 8.87 4.49 17.36 6.49a172 172 0 0 0 20 3.76 31 31 0 0 0 4.24-6.32 53 53 0 0 1-25.24-3.44zM412.74 68.17c1.91 6.2 6.4 11.25 14.39 13.63 7.58 2.26 13.84.78 18.73-2.92a65.44 65.44 0 0 1-18.45-3.08 55.28 55.28 0 0 1-14.67-7.63zM440.41 28.8c7.5 1.87 11.87 2.19 14.1 2.16-2.25-4.09-5.48-7.14-9.74-8.41-4.84-1.44-9.84-.23-14.43 2.69.58.56 2.74 1.73 10.07 3.56zM458.34 45.8c0-.46-.05-.92-.09-1.37-3.22.1-9.42-.63-20.84-4.63-8.72-3-13.44-5-16-6.15a46.37 46.37 0 0 0-2.7 3.89c2.82 1.95 8 4.5 17.7 7.26 1.3.37 2.54.7 3.73 1 8.55 2.13 14.43 2.48 18.26 2.24.01-.75.01-1.5-.06-2.24z" />
	<path fill="#3397db" d="M414.05 47.22a43.53 43.53 0 0 0-1.83 6.84c3.19 2.68 8.76 6.12 18.19 8.74 12.71 3.53 20.9 3.57 24.64 3.29a43.91 43.91 0 0 0 1.78-5.41c-5.42-.3-16.19-1.33-25.42-4.88a103.44 103.44 0 0 1-17.36-8.58zM434.41 46.8l-2.52-1a100.64 100.64 0 0 1-14.09-6.74 48.59 48.59 0 0 0-3 6.16l1 .58a85.28 85.28 0 0 0 17.61 7c11.9 3.5 20.36 3.57 24.38 3.3a52.5 52.5 0 0 0 .55-5.28c-5.24.39-13.59-.02-23.93-4.02z" />
	<path fill="#9fd1ed" d="M412.05 65.31a22.5 22.5 0 0 0 .69 2.86 55.28 55.28 0 0 0 14.67 7.63 65.44 65.44 0 0 0 18.45 3.08 23.49 23.49 0 0 0 3.55-3.32 172 172 0 0 1-20-3.76c-8.49-2-14-4.49-17.36-6.49zM430.41 62.8c-9.43-2.62-15-6.06-18.19-8.74-.13.7-.23 1.39-.32 2.09a62.78 62.78 0 0 0 16.51 9.65 53 53 0 0 0 25.22 3.44c.51-1 1-2.07 1.42-3.15-3.74.28-11.93.24-24.64-3.29zM433.41 52.8a85.28 85.28 0 0 1-17.6-7h-1.24c-.18.47-.36 1-.52 1.42a103.44 103.44 0 0 0 17.36 8.58c9.23 3.55 20 4.58 25.42 4.88.39-1.51.71-3 1-4.58-4.06.27-12.52.2-24.42-3.3zM415.81 45.8l-1-.58-.24.58zM440.14 45.8c-1.19-.3-2.43-.63-3.73-1-9.67-2.76-14.88-5.31-17.7-7.26-.31.5-.62 1-.91 1.52a100.64 100.64 0 0 0 14.09 6.74l2.52 1c10.34 4 18.69 4.41 23.93 4 .05-.93.07-1.86.06-2.78-3.83.26-9.71-.09-18.26-2.22zM458.25 44.43q-.16-2-.51-3.93a143.09 143.09 0 0 1-19.33-3.7 70.84 70.84 0 0 1-14.84-5.75c-.74.83-1.47 1.7-2.16 2.6 2.56 1.15 7.28 3.15 16 6.15 11.42 4 17.62 4.73 20.84 4.63zM455.57 33.12c-.33-.75-.68-1.47-1.06-2.16-2.23 0-6.6-.29-14.1-2.16-7.33-1.83-9.49-3-10.07-3.56-.76.48-1.5 1-2.23 1.58 1.71 1 5 2.3 11.3 4 10.5 2.78 14.62 2.64 16.16 2.3z" />
</svg>
