<svg xmlns="http://www.w3.org/2000/svg" viewBox="0 0 540 128">
	<style>.st0{fill:#e230b4}.st4{opacity:.29;fill:#fff}.st7{fill:#f7931e}.st8{fill:#3397db}.st9{fill:#9fd1ed}</style>
	<g>
		<path class="st0" d="M194 60c-11.6-3.3-18-7.6-21.5-10.7-.6 1.9-1 3.9-1.3 5.8 4 2.9 10.8 6.4 21.8 8.9 11.6 2.6 20.4 3.6 26.2 3.9.6-1.4 1.1-2.8 1.5-4.2-5.5.2-14.6-.3-26.7-3.7zM221.6 35.2c-2.2-7.9-6.6-14.2-13.5-16.3-7.8-2.4-16 1.4-22.7 8.2 3.1 1.7 8.5 3.8 17.6 5.9 8.1 1.8 14.2 2.3 18.6 2.2zM198 43c-10.3-3.1-14.8-7.5-16.6-11.3-1.6 2-3 4.3-4.3 6.6.9 1.4 5.6 8 20.8 12.1 10.6 2.9 19.6 2.8 25 2.3.2-2.4.3-4.7.2-7-5.6.8-13.9.7-25.1-2.7zM172.4 71.2c2.3 6.3 7.2 11.4 15.6 13.9 7.7 2.3 14.2 1.2 19.4-2.1-4.9-.4-11-1.5-18.4-4-7.2-2.4-12.6-5.2-16.6-7.8z" />
		<path d="M171.2 55.1c-.9 5.7-.6 11.2 1.2 16 4 2.7 9.4 5.4 16.6 7.8 7.4 2.5 13.5 3.6 18.4 4 5.2-3.3 9.1-8.7 11.8-15.1-5.7-.3-14.6-1.3-26.2-3.9-11-2.4-17.8-5.9-21.8-8.8z" fill="#9840ff" />
		<path d="M197.9 50.4c-15.1-4.1-19.9-10.7-20.8-12.1-1.9 3.5-3.5 7.2-4.6 11 3.4 3.1 9.8 7.4 21.5 10.7 12.1 3.4 21.2 3.9 26.7 3.7 1.1-3.5 1.8-7.3 2.2-11-5.3.5-14.4.6-25-2.3z" fill="#c04add" />
		<path d="M203 33c-9.2-2.1-14.5-4.2-17.6-5.9-1.4 1.4-2.7 3-4 4.6 1.8 3.8 6.3 8.2 16.6 11.3 11.2 3.4 19.5 3.5 25.1 2.7-.1-3.7-.6-7.2-1.5-10.5-4.4.1-10.5-.4-18.6-2.2z" fill="#f0f" />
		<path class="st4" d="M187.2 29.3c8.9-4.7 33.6 2.9 8.4 17.8s-17.3-13.1-8.4-17.8z" />
	</g>
	<g>
		<path d="M332.3 25.5c31.3-4.3 54.8 72.1 10.8 78.2-44 6-42.1-73.9-10.8-78.2z" fill="#aa5424" />
		<path class="st4" d="M321.3 37.5c8.5-7.7 37.9-6.6 14.5 17.2-23.4 23.8-23-9.5-14.5-17.2z" />
	</g>
	<g>
		<path d="M63.8 31.4c24.4-5 46.8 54.2 12.4 61.1S39.4 36.4 63.8 31.4z" fill="#89e541" />
		<circle class="st7" cx="59.7" cy="46.6" r="3.9" />
		<circle class="st7" cx="78.2" cy="51.6" r="3.9" />
		<circle class="st7" cx="57.2" cy="73.3" r="3.1" />
		<circle class="st7" cx="70.4" cy="83.4" r="4.7" />
		<circle class="st7" cx="82.9" cy="70.5" r="3.1" />
		<circle class="st7" cx="66.8" cy="61.9" r="2.3" />
		<path class="st4" d="M56 40.2c6.7-6.1 30-5.3 11.5 13.6S49.3 46.3 56 40.2z" />
	</g>
	<g>
		<path class="st8" d="M505.3 58.7c-.5-2.6-1.2-5.1-2.2-7.4-1.5.3-5.7.5-16.2-2.3-6.3-1.7-9.6-3-11.3-4-1.6 1.2-3.1 2.7-4.5 4.2 2.6 1.4 7.7 3.8 14.8 5.7 7.8 2.2 15.5 3.3 19.4 3.8zM476 84c-7.4-3-12.9-6.7-16.5-9.7-.4 3.2-.4 6.2.1 9.2 3.4 2 8.9 4.5 17.4 6.5 10.4 2.4 16.7 3.4 20 3.8 1.6-1.9 3-4 4.2-6.3-4.6.5-14.4.8-25.2-3.5zM460.3 86.4c1.9 6.2 6.4 11.2 14.4 13.6 7.6 2.3 13.8.8 18.7-2.9-4.6-.1-11.5-.8-18.4-3.1-6.1-2-11.2-5.1-14.7-7.6zM488 47c7.5 1.9 11.9 2.2 14.1 2.2-2.2-4.1-5.5-7.1-9.7-8.4-4.8-1.4-9.8-.2-14.4 2.7.5.5 2.7 1.7 10 3.5zM505.9 64c0-.5-.1-.9-.1-1.4-3.2.1-9.4-.6-20.8-4.6-8.7-3.1-13.4-5-16-6.1-1 1.2-1.9 2.5-2.7 3.9 2.8 1.9 8 4.5 17.7 7.3 1.3.4 2.5.7 3.7 1 8.5 2.1 14.4 2.5 18.3 2.2 0-.8 0-1.6-.1-2.3z" />
		<path class="st8" d="M461.6 65.4c-.8 2.3-1.4 4.6-1.8 6.8 3.2 2.7 8.8 6.1 18.2 8.7 12.7 3.5 20.9 3.6 24.6 3.3.7-1.7 1.3-3.6 1.8-5.4-5.5-.3-16.2-1.3-25.4-4.9-7.8-2.9-13.8-6.3-17.4-8.5zM482 65c-.9-.3-1.7-.7-2.5-1-6.9-2.8-11.3-5.1-14.1-6.7-1.1 2-2.1 4-3 6.2.3.2.6.4 1 .6 3.4 1.9 8.9 4.4 17.6 7 11.9 3.5 20.4 3.6 24.4 3.3.3-1.8.5-3.5.6-5.3-5.3.3-13.7-.1-24-4.1z" />
		<path class="st9" d="M459.6 83.5c.2 1 .4 1.9.7 2.9 3.5 2.5 8.6 5.6 14.7 7.6 6.9 2.3 13.8 2.9 18.4 3.1 1.3-1 2.5-2.1 3.5-3.3-3.3-.4-9.6-1.3-20-3.8-8.4-2-13.9-4.5-17.3-6.5zM478 81c-9.4-2.6-15-6.1-18.2-8.7l-.3 2.1c3.6 3 9.1 6.7 16.5 9.7 10.8 4.3 20.6 4 25.2 3.4.5-1 1-2.1 1.4-3.1-3.7.2-11.9.1-24.6-3.4zM481 71c-8.7-2.6-14.2-5.1-17.6-7h-1.2c-.2.5-.4.9-.5 1.4 3.5 2.2 9.5 5.6 17.4 8.6 9.2 3.5 20 4.6 25.4 4.9.4-1.5.7-3 1-4.6-4.1.3-12.6.2-24.5-3.3zM463.4 64c-.4-.2-.7-.4-1-.6-.1.2-.2.4-.2.6h1.2zM487.7 64c-1.2-.3-2.4-.6-3.7-1-9.7-2.8-14.9-5.3-17.7-7.3l-.9 1.5c2.8 1.7 7.2 3.9 14.1 6.7.8.3 1.6.7 2.5 1 10.3 4 18.7 4.4 23.9 4 0-.9.1-1.9.1-2.8-3.8.4-9.7 0-18.3-2.1zM505.8 62.6c-.1-1.3-.3-2.6-.5-3.9-3.9-.5-11.6-1.6-19.3-3.7-7.2-2-12.2-4.3-14.8-5.7-.7.8-1.5 1.7-2.2 2.6 2.6 1.2 7.3 3.1 16 6.1 11.4 4 17.6 4.7 20.8 4.6zM503.2 51.3c-.3-.7-.7-1.5-1.1-2.2-2.2 0-6.6-.3-14.1-2.2-7.3-1.8-9.5-3-10.1-3.6-.8.5-1.5 1-2.2 1.6 1.7 1 5 2.3 11.3 4 10.5 2.9 14.6 2.8 16.2 2.4z" />
	</g>
</svg>
