<svg xmlns="http://www.w3.org/2000/svg" viewBox="0 0 452 97.72" opacity=".8">
	<path fill="#5dea2f" d="M38 38s38.65 6.33 38 9.08S38 38 38 38zM38 38S-.65 31.67 0 28.92 38 38 38 38zM38 38s-6.33 38.65-9.08 38S38 38 38 38zM38 38S44.33-.65 47.08 0 38 38 38 38z" />
	<path fill="#92ff29" d="M38 38S56.55 8.46 58.58 10 38 38 38 38zM38 38S19.45 67.54 17.42 66.05 38 38 38 38zM38 38s29.54 18.55 28.05 20.58S38 38 38 38zM38 38S8.46 19.45 10 17.42 38 38 38 38zM38 38S23.34 6.35 25.7 5.46 38 38 38 38zM38 38s14.66 31.65 12.3 32.54S38 38 38 38zM38 38s31.65-14.66 32.54-12.3S38 38 38 38zM38 38S6.35 52.66 5.46 50.3 38 38 38 38z" />
	<path fill="#b0ed1b" d="M41.2 35.56s18.43-16.29 19.51-14.88S41.2 35.56 41.2 35.56zM33.75 41.24S16.31 56.65 15.29 55.32s18.46-14.08 18.46-14.08zM41.1 42.06s15.57 17.61 14.22 18.65S41.1 42.06 41.1 42.06zM35.44 34.64S19.28 16.36 20.68 15.29s14.76 19.35 14.76 19.35zM37.67 33.6S34.11 9.66 35.85 9.53s1.82 24.07 1.82 24.07zM38.33 42.4s3.56 23.94 1.82 24.07-1.82-24.07-1.82-24.07zM41.31 37.75s25-3.72 25.16-1.9-25.16 1.9-25.16 1.9zM32.94 38.38S9.65 41.84 9.53 40.15s23.41-1.77 23.41-1.77z" />
	<path fill="#6900ff" d="M223 57s27.34-37.15 29.87-35S223 57 223 57zM223 57s-27.34 37.15-29.87 35S223 57 223 57zM223 57s37.15 27.34 35 29.87S223 57 223 57zM223 57s-37.15-27.34-35-29.87S223 57 223 57z" />
	<path fill="#bf1ef4" d="M223 57s-21-35.28-18.39-36.61S223 57 223 57zM223 57s21.05 35.28 18.39 36.61S223 57 223 57zM223 57s35.28-21 36.61-18.39S223 57 223 57zM223 57s-35.28 21-36.61 18.39S223 57 223 57zM223 57s-41-1.57-40.72-4.52S223 57 223 57zM223 57s41.05 1.57 40.72 4.52S223 57 223 57zM223 57s1.57-41 4.52-40.72S223 57 223 57zM223 57s-1.57 41.05-4.52 40.72S223 57 223 57z" />
	<path fill="#1bd9ed" d="M222.15 52.34s-7.21-28.05-5.15-28.43 5.15 28.43 5.15 28.43zM224.12 63.2S231 89.73 229 90.09s-4.88-26.89-4.88-26.89zM228.92 55.93S255.73 49 256.09 51s-27.17 4.93-27.17 4.93zM218.11 57.89s-27.83 7.16-28.2 5.11 28.2-5.11 28.2-5.11zM218.21 55s-27-9.08-26.22-11 26.22 11 26.22 11zM227.79 59s27 9.08 26.22 11-26.22-11-26.22-11zM224.51 53.39S234 25.15 236 26s-11.49 27.39-11.49 27.39zM220.69 62.51S211.85 88.79 210 88s10.69-25.49 10.69-25.49z" />
	<path fill="red" d="M409 45S425 .65 428.13 2 409 45 409 45zM409 45s-16 44.35-19.13 43S409 45 409 45zM409 45s44.35 16 43 19.13S409 45 409 45zM409 45s-44.35-16-43-19.13S409 45 409 45z" />
	<path fill="#ff6d00" d="M409 45s-30.87-28.48-28.66-30.55S409 45 409 45zM409 45s30.87 28.48 28.66 30.55S409 45 409 45zM409 45s28.48-30.87 30.55-28.66S409 45 409 45zM409 45s-28.48 30.87-30.55 28.66S409 45 409 45zM409 45s-40.7 10.37-41.24 7.38S409 45 409 45zM409 45s40.7-10.37 41.24-7.38S409 45 409 45zM409 45s-10.37-40.7-7.38-41.24S409 45 409 45zM409 45s10.37 40.7 7.38 41.24S409 45 409 45z" />
	<path fill="#efdf18" d="M406.82 40.67s-15.22-25.4-13.31-26.37 13.31 26.37 13.31 26.37zM411.9 50.75s14.4 24 12.59 25-12.59-25-12.59-25zM414.49 42.23s24.28-14.55 25.21-12.72-25.21 12.72-25.21 12.72zM404.46 47.29s-25.2 15.09-26.16 13.2 26.16-13.2 26.16-13.2zM403.72 44.42s-29.13-1.06-28.9-3.16 28.9 3.16 28.9 3.16zM414.28 45.58s29.13 1.06 28.9 3.16-28.9-3.16-28.9-3.16zM409.43 41s1.12-30.44 3.31-30.2-3.31 30.2-3.31 30.2zM408.34 51.08s-1 28.32-3.08 28.1 3.08-28.1 3.08-28.1z" />
</svg>
