<svg xmlns="http://www.w3.org/2000/svg" viewBox="0 0 540 128">
	<style>.st0,.st1,.st2{opacity:.8;fill:#5dea2f}.st1,.st2{fill:#92ff29}.st2{fill:#b0ed1b}.st3,.st4,.st5{opacity:.8;fill:#6900ff}.st4,.st5{fill:#bf1ef4}.st5{fill:#1bd9ed}.st6,.st7,.st8{opacity:.8;fill:red}.st7,.st8{fill:#ff6d00}.st8{fill:#efdf18}</style>
	<g>
		<path class="st0" d="M88 55s38.6 6.3 38 9.1c-.7 2.7-38-9.1-38-9.1zM88 55s-38.6-6.3-38-9.1S88 55 88 55zM88 55s-6.3 38.6-9.1 38c-2.7-.7 9.1-38 9.1-38z" />
		<path class="st0" d="M88 55s6.3-38.6 9.1-38c2.7.7-9.1 38-9.1 38z" />
		<path class="st1" d="M88 55s18.6-29.5 20.6-28c2 1.4-20.6 28-20.6 28zM88 55S69.4 84.5 67.4 83C65.4 81.6 88 55 88 55z" />
		<path class="st1" d="M88 55s29.5 18.6 28 20.6c-1.4 2-28-20.6-28-20.6zM88 55S58.5 36.4 60 34.4c1.4-2 28 20.6 28 20.6zM88 55S73.3 23.3 75.7 22.5C78.1 21.6 88 55 88 55zM88 55s14.7 31.7 12.3 32.5C97.9 88.4 88 55 88 55z" />
		<path class="st1" d="M88 55s31.7-14.7 32.5-12.3C121.4 45.1 88 55 88 55zM88 55S56.3 69.7 55.5 67.3C54.6 64.9 88 55 88 55z" />
		<path class="st2" d="M91.2 52.6s18.4-16.3 19.5-14.9c1.1 1.4-19.5 14.9-19.5 14.9zM83.7 58.2S66.3 73.6 65.2 72.3c-.9-1.3 18.5-14.1 18.5-14.1zM91.1 59.1s15.6 17.6 14.2 18.6c-1.3 1-14.2-18.6-14.2-18.6zM85.4 51.6S69.2 33.3 70.6 32.3c1.5-1.1 14.8 19.3 14.8 19.3zM87.7 50.6s-3.6-23.9-1.8-24.1c1.7-.1 1.8 24.1 1.8 24.1zM88.3 59.4s3.6 23.9 1.8 24.1-1.8-24.1-1.8-24.1zM91.3 54.8s25-3.7 25.2-1.9c.1 1.8-25.2 1.9-25.2 1.9zM82.9 55.4s-23.3 3.5-23.4 1.8c-.1-1.7 23.4-1.8 23.4-1.8z" />
	</g>
	<g>
		<path class="st3" d="M273 74s27.3-37.1 29.9-35c2.5 2.2-29.9 35-29.9 35zM273 74s-27.3 37.1-29.9 35c-2.5-2.2 29.9-35 29.9-35zM273 74s37.1 27.3 35 29.9c-2.2 2.5-35-29.9-35-29.9zM273 74s-37.1-27.3-35-29.9c2.2-2.5 35 29.9 35 29.9z" />
		<path class="st4" d="M273 74s-21-35.3-18.4-36.6C257.3 36.1 273 74 273 74zM273 74s21 35.3 18.4 36.6C288.7 111.9 273 74 273 74zM273 74s35.3-21 36.6-18.4S273 74 273 74zM273 74s-35.3 21-36.6 18.4C235.1 89.7 273 74 273 74zM273 74s-41-1.6-40.7-4.5S273 74 273 74zM273 74s41 1.6 40.7 4.5c-.3 3-40.7-4.5-40.7-4.5zM273 74s1.6-41 4.5-40.7c3 .3-4.5 40.7-4.5 40.7zM273 74s-1.6 41-4.5 40.7c-3-.3 4.5-40.7 4.5-40.7z" />
		<path class="st5" d="M272.2 69.3s-7.2-28-5.2-28.4c2.1-.4 5.2 28.4 5.2 28.4zM274.1 80.2s6.8 26.5 4.9 26.9c-1.9.3-4.9-26.9-4.9-26.9zM278.9 72.9s26.8-6.9 27.2-4.9c.3 2-27.2 4.9-27.2 4.9zM268.1 74.9s-27.8 7.2-28.2 5.1 28.2-5.1 28.2-5.1zM268.2 72s-27-9.1-26.2-11c.8-1.9 26.2 11 26.2 11zM277.8 76s27 9.1 26.2 11c-.8 1.9-26.2-11-26.2-11zM274.5 70.4S284 42.2 286 43s-11.5 27.4-11.5 27.4zM270.7 79.5s-8.8 26.3-10.7 25.5 10.7-25.5 10.7-25.5z" />
	</g>
	<g>
		<path class="st6" d="M459 62s16-44.4 19.1-43S459 62 459 62zM459 62s-16 44.4-19.1 43c-3.1-1.4 19.1-43 19.1-43z" />
		<path class="st6" d="M459 62s44.4 16 43 19.1c-1.4 3.1-43-19.1-43-19.1zM459 62s-44.4-16-43-19.1c1.4-3.1 43 19.1 43 19.1z" />
		<path class="st7" d="M459 62s-30.9-28.5-28.7-30.6S459 62 459 62zM459 62s30.9 28.5 28.7 30.6S459 62 459 62zM459 62s28.5-30.9 30.6-28.7S459 62 459 62zM459 62s-28.5 30.9-30.6 28.7C426.4 88.4 459 62 459 62z" />
		<path class="st7" d="M459 62s-40.7 10.4-41.2 7.4c-.6-3 41.2-7.4 41.2-7.4zM459 62s40.7-10.4 41.2-7.4c.6 3-41.2 7.4-41.2 7.4zM459 62s-10.4-40.7-7.4-41.2c3-.6 7.4 41.2 7.4 41.2zM459 62s10.4 40.7 7.4 41.2c-3 .6-7.4-41.2-7.4-41.2z" />
		<path class="st8" d="M456.8 57.7s-15.2-25.4-13.3-26.4 13.3 26.4 13.3 26.4zM461.9 67.7s14.4 24 12.6 24.9c-1.8 1-12.6-24.9-12.6-24.9zM464.5 59.2s24.3-14.5 25.2-12.7-25.2 12.7-25.2 12.7zM454.5 64.3s-25.2 15.1-26.2 13.2c-1-1.9 26.2-13.2 26.2-13.2zM453.7 61.4s-29.1-1.1-28.9-3.2 28.9 3.2 28.9 3.2zM464.3 62.6s29.1 1.1 28.9 3.2c-.2 2-28.9-3.2-28.9-3.2zM459.4 58s1.1-30.4 3.3-30.2c2.2.3-3.3 30.2-3.3 30.2zM458.3 68.1s-1 28.3-3.1 28.1 3.1-28.1 3.1-28.1z" />
	</g>
</svg>
