<svg xmlns="http://www.w3.org/2000/svg" viewBox="0 0 540 128">
	<path fill="#007aff" d="M83.7 20.4c-8.8 1.2-16-.9-16-.9s-7.9-2.4-16.1-1.3c-8.2 1.1-15.1 5.6-15.1 5.6l1.3 9.2s6.3-4 15.2-5.2c8.8-1.2 16 .9 16 .9s7.9 2.4 16.1 1.3c8.2-1.1 15.1-5.6 15.1-5.6l-1.3-9.2s-6.3 3.9-15.2 5.2z" />
	<path d="M84.9 29.1c-8.8 1.2-16-.9-16-.9S61 25.8 52.8 27c-8.2 1.1-15.1 5.6-15.1 5.6l1.3 9.2s6.3-4 15.2-5.2 16 .9 16 .9 7.9 2.4 16.1 1.3 15.1-5.6 15.1-5.6l-1.3-9.2c0-.1-6.3 3.9-15.2 5.1z" />
	<path d="M84.9 29.1c-8.8 1.2-16-.9-16-.9S61 25.8 52.8 27c-8.2 1.1-15.1 5.6-15.1 5.6l1.3 9.2s6.3-4 15.2-5.2 16 .9 16 .9 7.9 2.4 16.1 1.3 15.1-5.6 15.1-5.6l-1.3-9.2c0-.1-6.3 3.9-15.2 5.1z" />
	<path d="M84.9 29.1c-8.8 1.2-16-.9-16-.9S61 25.8 52.8 27c-8.2 1.1-15.1 5.6-15.1 5.6l1.3 9.2s6.3-4 15.2-5.2 16 .9 16 .9 7.9 2.4 16.1 1.3 15.1-5.6 15.1-5.6l-1.3-9.2c0-.1-6.3 3.9-15.2 5.1z" />
	<path d="M84.9 29.1c-8.8 1.2-16-.9-16-.9S61 25.8 52.8 27c-8.2 1.1-15.1 5.6-15.1 5.6l1.3 9.2s6.3-4 15.2-5.2 16 .9 16 .9 7.9 2.4 16.1 1.3 15.1-5.6 15.1-5.6l-1.3-9.2c0-.1-6.3 3.9-15.2 5.1z" />
	<path d="M84.9 29.1c-8.8 1.2-16-.9-16-.9S61 25.8 52.8 27c-8.2 1.1-15.1 5.6-15.1 5.6l1.3 9.2s6.3-4 15.2-5.2 16 .9 16 .9 7.9 2.4 16.1 1.3 15.1-5.6 15.1-5.6l-1.3-9.2c0-.1-6.3 3.9-15.2 5.1z" />
	<path fill="white" d="M86.2 37.9c-8.8 1.2-16-.9-16-.9s-7.9-2.4-16.1-1.3S39 41.3 39 41.3l1.3 9.2s6.3-4 15.2-5.2 16 .9 16 .9 7.9 2.4 16.1 1.3 15.1-5.6 15.1-5.6l-1.3-9.2c-.1 0-6.4 4-15.2 5.2z" />
	<path fill="#754c24" d="M32.46 23.824l4.952-.687 8.114 58.439-4.953.688z" />
	<path fill="#0068ff" d="M212.2 39.2c-7.3-1.5-12.3-5.2-12.3-5.2s-5.5-4.1-12.2-5.6c-6.7-1.4-13.4.1-13.4.1l-1.6 7.6s6.1-1.3 13.4.2c7.3 1.5 12.3 5.2 12.3 5.2s5.5 4.1 12.2 5.6S224 47 224 47l1.6-7.6s-6.1 1.3-13.4-.2z" />
	<path d="M210.7 46.4c-7.3-1.5-12.3-5.2-12.3-5.2s-5.5-4.1-12.2-5.6-13.4.1-13.4.1l-1.6 7.6s6.1-1.3 13.4.2 12.3 5.2 12.3 5.2 5.5 4.1 12.2 5.6c6.7 1.4 13.4-.1 13.4-.1l1.6-7.6c-.1 0-6.2 1.3-13.4-.2z" />
	<path d="M210.7 46.4c-7.3-1.5-12.3-5.2-12.3-5.2s-5.5-4.1-12.2-5.6-13.4.1-13.4.1l-1.6 7.6s6.1-1.3 13.4.2 12.3 5.2 12.3 5.2 5.5 4.1 12.2 5.6c6.7 1.4 13.4-.1 13.4-.1l1.6-7.6c-.1 0-6.2 1.3-13.4-.2z" />
	<path d="M210.7 46.4c-7.3-1.5-12.3-5.2-12.3-5.2s-5.5-4.1-12.2-5.6-13.4.1-13.4.1l-1.6 7.6s6.1-1.3 13.4.2 12.3 5.2 12.3 5.2 5.5 4.1 12.2 5.6c6.7 1.4 13.4-.1 13.4-.1l1.6-7.6c-.1 0-6.2 1.3-13.4-.2z" />
	<path d="M210.7 46.4c-7.3-1.5-12.3-5.2-12.3-5.2s-5.5-4.1-12.2-5.6-13.4.1-13.4.1l-1.6 7.6s6.1-1.3 13.4.2 12.3 5.2 12.3 5.2 5.5 4.1 12.2 5.6c6.7 1.4 13.4-.1 13.4-.1l1.6-7.6c-.1 0-6.2 1.3-13.4-.2z" />
	<path d="M210.7 46.4c-7.3-1.5-12.3-5.2-12.3-5.2s-5.5-4.1-12.2-5.6-13.4.1-13.4.1l-1.6 7.6s6.1-1.3 13.4.2 12.3 5.2 12.3 5.2 5.5 4.1 12.2 5.6c6.7 1.4 13.4-.1 13.4-.1l1.6-7.6c-.1 0-6.2 1.3-13.4-.2z" />
	<path fill="white" d="M209.1 53.6c-7.3-1.5-12.3-5.2-12.3-5.2s-5.5-4.1-12.2-5.6c-6.7-1.4-13.4.1-13.4.1l-1.6 7.6s6.1-1.3 13.4.2c7.3 1.5 12.3 5.2 12.3 5.2s5.5 4.1 12.2 5.6c6.7 1.4 13.4-.1 13.4-.1l1.6-7.6s-6.1 1.4-13.4-.2z" />
	<path fill="#896936" d="M171.06 27.4l4.107.874-10.22 48.025-4.107-.875z" />
	<path fill="#0d99f9" d="M356.5 19.5c-9.1 1.8-16.7.1-16.7.1s-8.3-2-16.8-.3c-8.4 1.7-15.3 6.8-15.3 6.8l1.9 9.5s6.3-4.5 15.4-6.4c9.1-1.8 16.7-.1 16.7-.1s8.3 2 16.8.3 15.3-6.8 15.3-6.8l-1.9-9.5s-6.3 4.5-15.4 6.4z" />
	<path d="M358.3 28.5c-9.1 1.8-16.7.1-16.7.1s-8.3-2-16.8-.3c-8.4 1.7-15.3 6.8-15.3 6.8l1.9 9.5s6.3-4.5 15.4-6.4c9.1-1.8 16.7-.1 16.7-.1s8.3 2 16.8.3c8.4-1.7 15.3-6.8 15.3-6.8l-1.9-9.5s-6.3 4.5-15.4 6.4z" />
	<path d="M358.3 28.5c-9.1 1.8-16.7.1-16.7.1s-8.3-2-16.8-.3c-8.4 1.7-15.3 6.8-15.3 6.8l1.9 9.5s6.3-4.5 15.4-6.4c9.1-1.8 16.7-.1 16.7-.1s8.3 2 16.8.3c8.4-1.7 15.3-6.8 15.3-6.8l-1.9-9.5s-6.3 4.5-15.4 6.4z" />
	<path d="M358.3 28.5c-9.1 1.8-16.7.1-16.7.1s-8.3-2-16.8-.3c-8.4 1.7-15.3 6.8-15.3 6.8l1.9 9.5s6.3-4.5 15.4-6.4c9.1-1.8 16.7-.1 16.7-.1s8.3 2 16.8.3c8.4-1.7 15.3-6.8 15.3-6.8l-1.9-9.5s-6.3 4.5-15.4 6.4z" />
	<path d="M358.3 28.5c-9.1 1.8-16.7.1-16.7.1s-8.3-2-16.8-.3c-8.4 1.7-15.3 6.8-15.3 6.8l1.9 9.5s6.3-4.5 15.4-6.4c9.1-1.8 16.7-.1 16.7-.1s8.3 2 16.8.3c8.4-1.7 15.3-6.8 15.3-6.8l-1.9-9.5s-6.3 4.5-15.4 6.4z" />
	<path d="M358.3 28.5c-9.1 1.8-16.7.1-16.7.1s-8.3-2-16.8-.3c-8.4 1.7-15.3 6.8-15.3 6.8l1.9 9.5s6.3-4.5 15.4-6.4c9.1-1.8 16.7-.1 16.7-.1s8.3 2 16.8.3c8.4-1.7 15.3-6.8 15.3-6.8l-1.9-9.5s-6.3 4.5-15.4 6.4z" />
	<path fill="white" d="M360.2 37.5c-9.1 1.8-16.7.1-16.7.1s-8.3-2-16.8-.3c-8.4 1.7-15.3 6.8-15.3 6.8l1.9 9.5s6.3-4.5 15.4-6.4c9.1-1.8 16.7-.1 16.7-.1s8.3 2 16.8.3c8.4-1.7 15.3-6.8 15.3-6.8l-1.9-9.5s-6.3 4.5-15.4 6.4z" />
	<path fill="#753b21" d="M303.533 26.446l5.096-1.037 12.228 60.068-5.095 1.037z" />
	<path fill="#1e77e0" d="M486.5 35.5c-7.6-1.1-13-4.5-13-4.5s-5.9-3.9-12.9-4.9c-7-1-13.8 1.1-13.8 1.1l-1.1 7.9s6.1-1.8 13.7-.7 13 4.5 13 4.5 5.9 3.9 12.9 4.9c7 1 13.8-1.1 13.8-1.1l1.1-7.9s-6.2 1.8-13.7.7z" />
	<path d="M485.4 43c-7.6-1.1-13-4.5-13-4.5s-5.9-3.9-12.9-4.9c-7-1-13.8 1.1-13.8 1.1l-1.1 7.9s6.1-1.8 13.7-.7 13 4.5 13 4.5 5.9 3.9 12.9 4.9 13.8-1.1 13.8-1.1l1.1-7.9s-6.1 1.8-13.7.7z" />
	<path d="M485.4 43c-7.6-1.1-13-4.5-13-4.5s-5.9-3.9-12.9-4.9c-7-1-13.8 1.1-13.8 1.1l-1.1 7.9s6.1-1.8 13.7-.7 13 4.5 13 4.5 5.9 3.9 12.9 4.9 13.8-1.1 13.8-1.1l1.1-7.9s-6.1 1.8-13.7.7z" />
	<path d="M485.4 43c-7.6-1.1-13-4.5-13-4.5s-5.9-3.9-12.9-4.9c-7-1-13.8 1.1-13.8 1.1l-1.1 7.9s6.1-1.8 13.7-.7 13 4.5 13 4.5 5.9 3.9 12.9 4.9 13.8-1.1 13.8-1.1l1.1-7.9s-6.1 1.8-13.7.7z" />
	<path d="M485.4 43c-7.6-1.1-13-4.5-13-4.5s-5.9-3.9-12.9-4.9c-7-1-13.8 1.1-13.8 1.1l-1.1 7.9s6.1-1.8 13.7-.7 13 4.5 13 4.5 5.9 3.9 12.9 4.9 13.8-1.1 13.8-1.1l1.1-7.9s-6.1 1.8-13.7.7z" />
	<path d="M485.4 43c-7.6-1.1-13-4.5-13-4.5s-5.9-3.9-12.9-4.9c-7-1-13.8 1.1-13.8 1.1l-1.1 7.9s6.1-1.8 13.7-.7 13 4.5 13 4.5 5.9 3.9 12.9 4.9 13.8-1.1 13.8-1.1l1.1-7.9s-6.1 1.8-13.7.7z" />
	<path fill="white" d="M484.3 50.5c-7.6-1.1-13-4.5-13-4.5s-5.9-3.9-12.9-4.9c-7-1-13.8 1.1-13.8 1.1l-1.1 7.9s6.1-1.8 13.7-.7 13 4.5 13 4.5 5.9 3.9 12.9 4.9 13.8-1.1 13.8-1.1l1.1-7.9s-6.1 1.8-13.7.7z" />
	<path fill="#724c1e" d="M443.487 26.25l4.257.608-7.127 49.893-4.256-.608z" />
</svg>
