<svg xmlns="http://www.w3.org/2000/svg" viewBox="0 0 540 128">
	<style>.st1{fill:#f7f7f7}</style>
	<path d="M83.7 20.4c-8.8 1.2-16-.9-16-.9s-7.9-2.4-16.1-1.3c-8.2 1.1-15.1 5.6-15.1 5.6l1.3 9.2s6.3-4 15.2-5.2c8.8-1.2 16 .9 16 .9s7.9 2.4 16.1 1.3c8.2-1.1 15.1-5.6 15.1-5.6l-1.3-9.2s-6.3 3.9-15.2 5.2z" fill="#007aff" />
	<path d="M84.9 29.1c-8.8 1.2-16-.9-16-.9S61 25.8 52.8 27c-8.2 1.1-15.1 5.6-15.1 5.6l1.3 9.2s6.3-4 15.2-5.2 16 .9 16 .9 7.9 2.4 16.1 1.3 15.1-5.6 15.1-5.6l-1.3-9.2c0-.1-6.3 3.9-15.2 5.1z" />
	<path d="M84.9 29.1c-8.8 1.2-16-.9-16-.9S61 25.8 52.8 27c-8.2 1.1-15.1 5.6-15.1 5.6l1.3 9.2s6.3-4 15.2-5.2 16 .9 16 .9 7.9 2.4 16.1 1.3 15.1-5.6 15.1-5.6l-1.3-9.2c0-.1-6.3 3.9-15.2 5.1z" />
	<path d="M84.9 29.1c-8.8 1.2-16-.9-16-.9S61 25.8 52.8 27c-8.2 1.1-15.1 5.6-15.1 5.6l1.3 9.2s6.3-4 15.2-5.2 16 .9 16 .9 7.9 2.4 16.1 1.3 15.1-5.6 15.1-5.6l-1.3-9.2c0-.1-6.3 3.9-15.2 5.1z" />
	<path d="M84.9 29.1c-8.8 1.2-16-.9-16-.9S61 25.8 52.8 27c-8.2 1.1-15.1 5.6-15.1 5.6l1.3 9.2s6.3-4 15.2-5.2 16 .9 16 .9 7.9 2.4 16.1 1.3 15.1-5.6 15.1-5.6l-1.3-9.2c0-.1-6.3 3.9-15.2 5.1z" />
	<path d="M84.9 29.1c-8.8 1.2-16-.9-16-.9S61 25.8 52.8 27c-8.2 1.1-15.1 5.6-15.1 5.6l1.3 9.2s6.3-4 15.2-5.2 16 .9 16 .9 7.9 2.4 16.1 1.3 15.1-5.6 15.1-5.6l-1.3-9.2c0-.1-6.3 3.9-15.2 5.1z" />
	<path class="st1" d="M86.2 37.9c-8.8 1.2-16-.9-16-.9s-7.9-2.4-16.1-1.3S39 41.3 39 41.3l1.3 9.2s6.3-4 15.2-5.2 16 .9 16 .9 7.9 2.4 16.1 1.3 15.1-5.6 15.1-5.6l-1.3-9.2c-.1 0-6.4 4-15.2 5.2z" />
	<path transform="rotate(-7.904 38.9967 52.753)" fill="#754c24" d="M36.5 23.2h5v59h-5z" />
	<path d="M212.2 39.2c-7.3-1.5-12.3-5.2-12.3-5.2s-5.5-4.1-12.2-5.6c-6.7-1.4-13.4.1-13.4.1l-1.6 7.6s6.1-1.3 13.4.2c7.3 1.5 12.3 5.2 12.3 5.2s5.5 4.1 12.2 5.6S224 47 224 47l1.6-7.6s-6.1 1.3-13.4-.2z" fill="#0068ff" />
	<path d="M210.7 46.4c-7.3-1.5-12.3-5.2-12.3-5.2s-5.5-4.1-12.2-5.6-13.4.1-13.4.1l-1.6 7.6s6.1-1.3 13.4.2 12.3 5.2 12.3 5.2 5.5 4.1 12.2 5.6c6.7 1.4 13.4-.1 13.4-.1l1.6-7.6c-.1 0-6.2 1.3-13.4-.2z" />
	<path d="M210.7 46.4c-7.3-1.5-12.3-5.2-12.3-5.2s-5.5-4.1-12.2-5.6-13.4.1-13.4.1l-1.6 7.6s6.1-1.3 13.4.2 12.3 5.2 12.3 5.2 5.5 4.1 12.2 5.6c6.7 1.4 13.4-.1 13.4-.1l1.6-7.6c-.1 0-6.2 1.3-13.4-.2z" />
	<path d="M210.7 46.4c-7.3-1.5-12.3-5.2-12.3-5.2s-5.5-4.1-12.2-5.6-13.4.1-13.4.1l-1.6 7.6s6.1-1.3 13.4.2 12.3 5.2 12.3 5.2 5.5 4.1 12.2 5.6c6.7 1.4 13.4-.1 13.4-.1l1.6-7.6c-.1 0-6.2 1.3-13.4-.2z" />
	<path d="M210.7 46.4c-7.3-1.5-12.3-5.2-12.3-5.2s-5.5-4.1-12.2-5.6-13.4.1-13.4.1l-1.6 7.6s6.1-1.3 13.4.2 12.3 5.2 12.3 5.2 5.5 4.1 12.2 5.6c6.7 1.4 13.4-.1 13.4-.1l1.6-7.6c-.1 0-6.2 1.3-13.4-.2z" />
	<path d="M210.7 46.4c-7.3-1.5-12.3-5.2-12.3-5.2s-5.5-4.1-12.2-5.6-13.4.1-13.4.1l-1.6 7.6s6.1-1.3 13.4.2 12.3 5.2 12.3 5.2 5.5 4.1 12.2 5.6c6.7 1.4 13.4-.1 13.4-.1l1.6-7.6c-.1 0-6.2 1.3-13.4-.2z" />
	<path class="st1" d="M209.1 53.6c-7.3-1.5-12.3-5.2-12.3-5.2s-5.5-4.1-12.2-5.6c-6.7-1.4-13.4.1-13.4.1l-1.6 7.6s6.1-1.3 13.4.2c7.3 1.5 12.3 5.2 12.3 5.2s5.5 4.1 12.2 5.6c6.7 1.4 13.4-.1 13.4-.1l1.6-7.6s-6.1 1.4-13.4-.2z" />
	<path transform="rotate(12.013 168.006 51.8658)" fill="#896936" d="M165.9 27.3h4.2v49.1h-4.2z" />
	<path d="M356.5 19.5c-9.1 1.8-16.7.1-16.7.1s-8.3-2-16.8-.3c-8.4 1.7-15.3 6.8-15.3 6.8l1.9 9.5s6.3-4.5 15.4-6.4c9.1-1.8 16.7-.1 16.7-.1s8.3 2 16.8.3 15.3-6.8 15.3-6.8l-1.9-9.5s-6.3 4.5-15.4 6.4z" fill="#0d99f9" />
	<g>
		<path d="M358.3 28.5c-9.1 1.8-16.7.1-16.7.1s-8.3-2-16.8-.3c-8.4 1.7-15.3 6.8-15.3 6.8l1.9 9.5s6.3-4.5 15.4-6.4c9.1-1.8 16.7-.1 16.7-.1s8.3 2 16.8.3c8.4-1.7 15.3-6.8 15.3-6.8l-1.9-9.5s-6.3 4.5-15.4 6.4z" />
		<path d="M358.3 28.5c-9.1 1.8-16.7.1-16.7.1s-8.3-2-16.8-.3c-8.4 1.7-15.3 6.8-15.3 6.8l1.9 9.5s6.3-4.5 15.4-6.4c9.1-1.8 16.7-.1 16.7-.1s8.3 2 16.8.3c8.4-1.7 15.3-6.8 15.3-6.8l-1.9-9.5s-6.3 4.5-15.4 6.4z" />
		<path d="M358.3 28.5c-9.1 1.8-16.7.1-16.7.1s-8.3-2-16.8-.3c-8.4 1.7-15.3 6.8-15.3 6.8l1.9 9.5s6.3-4.5 15.4-6.4c9.1-1.8 16.7-.1 16.7-.1s8.3 2 16.8.3c8.4-1.7 15.3-6.8 15.3-6.8l-1.9-9.5s-6.3 4.5-15.4 6.4z" />
		<path d="M358.3 28.5c-9.1 1.8-16.7.1-16.7.1s-8.3-2-16.8-.3c-8.4 1.7-15.3 6.8-15.3 6.8l1.9 9.5s6.3-4.5 15.4-6.4c9.1-1.8 16.7-.1 16.7-.1s8.3 2 16.8.3c8.4-1.7 15.3-6.8 15.3-6.8l-1.9-9.5s-6.3 4.5-15.4 6.4z" />
		<path d="M358.3 28.5c-9.1 1.8-16.7.1-16.7.1s-8.3-2-16.8-.3c-8.4 1.7-15.3 6.8-15.3 6.8l1.9 9.5s6.3-4.5 15.4-6.4c9.1-1.8 16.7-.1 16.7-.1s8.3 2 16.8.3c8.4-1.7 15.3-6.8 15.3-6.8l-1.9-9.5s-6.3 4.5-15.4 6.4z" />
	</g>
	<path class="st1" d="M360.2 37.5c-9.1 1.8-16.7.1-16.7.1s-8.3-2-16.8-.3c-8.4 1.7-15.3 6.8-15.3 6.8l1.9 9.5s6.3-4.5 15.4-6.4c9.1-1.8 16.7-.1 16.7-.1s8.3 2 16.8.3c8.4-1.7 15.3-6.8 15.3-6.8l-1.9-9.5s-6.3 4.5-15.4 6.4z" />
	<path transform="rotate(-11.507 312.2544 55.979)" fill="#753b21" d="M309.6 25.3h5.2v61.3h-5.2z" />
	<path d="M486.5 35.5c-7.6-1.1-13-4.5-13-4.5s-5.9-3.9-12.9-4.9c-7-1-13.8 1.1-13.8 1.1l-1.1 7.9s6.1-1.8 13.7-.7 13 4.5 13 4.5 5.9 3.9 12.9 4.9c7 1 13.8-1.1 13.8-1.1l1.1-7.9s-6.2 1.8-13.7.7z" fill="#1e77e0" />
	<g>
		<path d="M485.4 43c-7.6-1.1-13-4.5-13-4.5s-5.9-3.9-12.9-4.9c-7-1-13.8 1.1-13.8 1.1l-1.1 7.9s6.1-1.8 13.7-.7 13 4.5 13 4.5 5.9 3.9 12.9 4.9 13.8-1.1 13.8-1.1l1.1-7.9s-6.1 1.8-13.7.7z" />
		<path d="M485.4 43c-7.6-1.1-13-4.5-13-4.5s-5.9-3.9-12.9-4.9c-7-1-13.8 1.1-13.8 1.1l-1.1 7.9s6.1-1.8 13.7-.7 13 4.5 13 4.5 5.9 3.9 12.9 4.9 13.8-1.1 13.8-1.1l1.1-7.9s-6.1 1.8-13.7.7z" />
		<path d="M485.4 43c-7.6-1.1-13-4.5-13-4.5s-5.9-3.9-12.9-4.9c-7-1-13.8 1.1-13.8 1.1l-1.1 7.9s6.1-1.8 13.7-.7 13 4.5 13 4.5 5.9 3.9 12.9 4.9 13.8-1.1 13.8-1.1l1.1-7.9s-6.1 1.8-13.7.7z" />
		<path d="M485.4 43c-7.6-1.1-13-4.5-13-4.5s-5.9-3.9-12.9-4.9c-7-1-13.8 1.1-13.8 1.1l-1.1 7.9s6.1-1.8 13.7-.7 13 4.5 13 4.5 5.9 3.9 12.9 4.9 13.8-1.1 13.8-1.1l1.1-7.9s-6.1 1.8-13.7.7z" />
		<path d="M485.4 43c-7.6-1.1-13-4.5-13-4.5s-5.9-3.9-12.9-4.9c-7-1-13.8 1.1-13.8 1.1l-1.1 7.9s6.1-1.8 13.7-.7 13 4.5 13 4.5 5.9 3.9 12.9 4.9 13.8-1.1 13.8-1.1l1.1-7.9s-6.1 1.8-13.7.7z" />
	</g>
	<path class="st1" d="M484.3 50.5c-7.6-1.1-13-4.5-13-4.5s-5.9-3.9-12.9-4.9c-7-1-13.8 1.1-13.8 1.1l-1.1 7.9s6.1-1.8 13.7-.7 13 4.5 13 4.5 5.9 3.9 12.9 4.9 13.8-1.1 13.8-1.1l1.1-7.9s-6.1 1.8-13.7.7z" />
	<path transform="rotate(8.129 442.0473 51.5167)" fill="#724c1e" d="M439.9 26.3h4.3v50.4h-4.3z" />
</svg>
