<svg xmlns="http://www.w3.org/2000/svg" viewBox="0 0 398.31 56.3">
  <path fill="#d64f25" d="M21.09 26.97c2.1-.87-2.84-21.46-7.89-19.37s5.79 20.23 7.89 19.37z" />
  <path fill="#d64f25" d="M21.21 27.09c.87 2.09 21.46-2.84 19.37-7.89s-20.11 5.92-19.37 7.89z" />
  <path fill="#d64f25" d="M21.21 26.97c2 .86 13.2-17.15 8.14-19.37s-10.23 18.5-8.14 19.37z" />
  <path fill="#d64f25" d="M21.21 27.21c-.86 2 17.15 13.2 19.37 8.14s-18.5-10.11-19.37-8.14z" />
  <path fill="#d64f25" d="M20.97 27.3c-2-.86-13.2 17.15-8.14 19.37S23.06 28.2 20.97 27.3z" />
  <path fill="#d64f25" d="M20.97 27.09c.86-2-17.15-13.2-19.37-8.14s18.5 10.23 19.37 8.14z" />
  <path fill="#d64f25" d="M21.21 27.3c-2.09.87 2.84 21.46 7.9 19.37s-5.92-20.2-7.9-19.37z" />
  <path fill="#d64f25" d="M20.97 27.21C20.1 25.12-.49 30.05 1.6 35.1s20.11-5.8 19.37-7.89z" />
  <path fill="#f15a24" d="M21.09 26.97c2.22 0 5.55-21 0-21s-2.2 21 0 21z" />
  <path fill="#f15a24" d="M21.21 27.21c0 2.22 21 5.55 21 0s-21-2.22-21 0z" />
  <path fill="#f15a24" d="M21.21 27.09c1.61 1.6 18.75-11 14.8-14.8s-16.4 13.2-14.8 14.8z" />
  <path fill="#f15a24" d="M21.21 27.3c-1.6 1.61 11 18.75 14.8 14.8s-13.19-16.37-14.8-14.8z" />
  <path fill="#f15a24" d="M20.97 27.3c-1.61-1.6-18.75 11-14.8 14.8s16.4-13.29 14.8-14.8z" />
  <path fill="#f15a24" d="M20.97 27.09c1.6-1.6-11-18.75-14.8-14.8s13.19 16.28 14.8 14.8z" />
  <path fill="#f15a24" d="M21.09 27.3c-2.22 0-5.55 21 0 21s2.22-21 0-21z" />
  <path fill="#f15a24" d="M20.97 27.21c0-2.22-21-5.55-21 0s21 2.22 21 0z" />
  <circle fill="#ff0" cx="20.84" cy="27.33" r="3.95" />
  <path fill="#ce2067" d="M208.09 18.97c1.81-.73-2.54-19.45-7.13-17.64s5.2 18.48 7.13 17.64z" />
  <path fill="#ce2067" d="M208.21 19.09c.73 1.81 19.45-2.54 17.64-7.13s-18.36 5.34-17.64 7.13z" />
  <path fill="#ce2067" d="M208.21 18.97c1.81.72 12-15.59 7.37-17.52s-9.3 16.79-7.37 17.52z" />
  <path fill="#ce2067" d="M208.21 19.21c-.72 1.81 15.59 12 17.52 7.37s-16.67-9.18-17.52-7.37z" />
  <path fill="#ce2067" d="M208.09 19.3c-1.81-.72-12 15.59-7.37 17.52s9.17-16.76 7.37-17.52z" />
  <path fill="#ce2067" d="M207.97 19.09c.72-1.81-15.59-12-17.52-7.37s16.67 9.18 17.52 7.37z" />
  <path fill="#ce2067" d="M208.21 19.3c-1.81.73 2.54 19.45 7.13 17.64s-5.32-18.33-7.13-17.64z" />
  <path fill="#ce2067" d="M207.97 19.21c-.73-1.81-19.45 2.54-17.64 7.13s18.36-5.2 17.64-7.13z" />
  <path fill="#ef2681" d="M208.09 18.97c2.05 0 4.95-19 0-19s-2.05 19 0 19z" />
  <path fill="#ef2681" d="M208.21 19.21c0 2.05 19 5 19 0s-19-2.05-19 0z" />
  <path fill="#ef2681" d="M208.21 19.09c1.45 1.45 17-9.91 13.41-13.41s-14.86 11.96-13.41 13.41z" />
  <path fill="#ef2681" d="M208.21 19.3c-1.45 1.45 9.91 17 13.41 13.41s-11.96-14.83-13.41-13.41z" />
  <path fill="#ef2681" d="M207.97 19.3c-1.45-1.45-17 9.91-13.41 13.41s14.86-12.05 13.41-13.41z" />
  <path fill="#ef2681" d="M207.97 19.09c1.45-1.45-9.91-17-13.41-13.41s11.96 14.74 13.41 13.41z" />
  <path fill="#ef2681" d="M208.09 19.3c-2.05 0-4.95 19 0 19s2.05-19 0-19z" />
  <path fill="#ef2681" d="M207.97 19.21c0-2-19-4.95-19 0s19 1.93 19 0z" />
  <circle fill="#fa0" cx="207.85" cy="19.33" r="3.62" />
  <path fill="#eac800" d="M369.95 27.94c2.65-1.12-3.77-28.64-10.48-25.84s7.83 26.96 10.48 25.84z" />
  <path fill="#eac800" d="M370.37 28.08c1.12 2.65 28.64-3.77 25.84-10.48s-26.96 7.83-25.84 10.48z" />
  <path fill="#eac800" d="M370.23 27.94c2.65 1.12 17.6-22.91 10.9-25.7-6.85-2.8-13.69 24.58-10.9 25.7z" />
  <path fill="#eac800" d="M370.37 28.22c-1.12 2.65 22.91 17.6 25.7 10.9s-24.58-13.55-25.7-10.9z" />
  <path fill="#eac800" d="M369.95 28.36c-2.65-1.12-17.6 22.91-10.9 25.7s13.69-24.58 10.9-25.7z" />
  <path fill="#eac800" d="M369.95 28.08c1.12-2.65-22.91-17.6-25.7-10.9s24.44 13.55 25.7 10.9z" />
  <path fill="#eac800" d="M370.23 28.36C367.58 29.48 374 57 380.71 54.2s-7.82-26.96-10.48-25.84z" />
  <path fill="#eac800" d="M369.95 28.22c-1.12-2.65-28.64 3.77-25.84 10.48s26.78-7.69 25.84-10.48z" />
  <path fill="#ffed0b" d="M370.09 27.94c2.93 0 7.4-27.94 0-27.94s-2.93 27.94 0 27.94z" />
  <path fill="#ffed0b" d="M370.37 28.22c0 2.93 27.94 7.4 27.94 0s-27.94-2.92-27.94 0z" />
  <path fill="#ffed0b" d="M370.23 27.94c2.1 2.1 24.87-14.53 19.7-19.7s-21.8 17.74-19.7 19.7z" />
  <path fill="#ffed0b" d="M370.23 28.36c-2.1 2.1 14.53 24.87 19.7 19.7s-17.6-21.76-19.7-19.7z" />
  <path fill="#ffed0b" d="M369.95 28.36c-2.1-2.1-24.87 14.53-19.7 19.7s21.8-17.6 19.7-19.7z" />
  <path fill="#ffed0b" d="M369.95 27.94c2.1-2.1-14.53-24.87-19.7-19.7s17.64 21.8 19.7 19.7z" />
  <path fill="#ffed0b" d="M370.09 28.36c-2.93 0-7.4 27.94 0 27.94s2.93-27.94 0-27.94z" />
  <path fill="#ffed0b" d="M369.81 28.22c0-2.93-27.94-7.4-27.94 0s27.94 2.93 27.94 0z" />
  <circle fill="#93572e" cx="369.67" cy="28.36" r="5.31" />
</svg>
