<svg xmlns="http://www.w3.org/2000/svg" viewBox="0 0 540 128">
	<style>.st0{fill:#d64f25}.st1{fill:#f15a24}.st3{fill:#ce2067}.st4{fill:#ef2681}.st6{fill:#eac800}.st7{fill:#ffed0b}</style>
	<g>
		<path class="st0" d="M81.2 65.7c2.1-.9-2.8-21.5-7.9-19.4-5.2 2.1 5.8 20.2 7.9 19.4z" />
		<path class="st0" d="M81.3 65.8c.9 2.1 21.5-2.8 19.4-7.9-2-5.1-20.1 5.9-19.4 7.9z" />
		<path class="st0" d="M81.3 65.7c2 .9 13.2-17.1 8.1-19.4-5-2.2-10.2 18.5-8.1 19.4z" />
		<path class="st0" d="M81.3 65.9c-.9 2 17.1 13.2 19.4 8.1 2.1-5-18.5-10.1-19.4-8.1z" />
		<path class="st0" d="M81.1 66c-2-.9-13.2 17.1-8.1 19.4 5.1 2.1 10.2-18.5 8.1-19.4z" />
		<path class="st0" d="M81.1 65.8c.9-2-17.1-13.2-19.4-8.1-2.1 5 18.5 10.2 19.4 8.1z" />
		<path class="st0" d="M81.3 66c-2.1.9 2.8 21.5 7.9 19.4 5.1-2-5.9-20.2-7.9-19.4z" />
		<path class="st0" d="M81.1 65.9c-.9-2.1-21.5 2.8-19.4 7.9 2 5.2 20.1-5.8 19.4-7.9z" />
		<path class="st1" d="M81.2 65.7c2.2 0 5.5-21 0-21s-2.2 21 0 21z" />
		<path class="st1" d="M81.3 65.9c0 2.2 21 5.5 21 0s-21-2.2-21 0z" />
		<path class="st1" d="M81.3 65.8c1.6 1.6 18.7-11 14.8-14.8S79.7 64.2 81.3 65.8z" />
		<path class="st1" d="M81.3 66c-1.6 1.6 11 18.7 14.8 14.8 3.8-3.9-13.2-16.4-14.8-14.8z" />
		<path class="st1" d="M81.1 66c-1.6-1.6-18.7 11-14.8 14.8 3.9 3.9 16.4-13.3 14.8-14.8z" />
		<path class="st1" d="M81.1 65.8c1.6-1.6-11-18.7-14.8-14.8s13.2 16.3 14.8 14.8z" />
		<path class="st1" d="M81.2 66c-2.2 0-5.5 21 0 21s2.2-21 0-21z" />
		<path class="st1" d="M81.1 65.9c0-2.2-21-5.5-21 0s21 2.2 21 0z" />
		<circle cx="81" cy="66" r="3.9" fill="#ff0" />
	</g>
	<g>
		<path class="st3" d="M268.2 57.7c1.8-.7-2.5-19.5-7.1-17.6-4.6 1.7 5.2 18.4 7.1 17.6z" />
		<path class="st3" d="M268.3 57.8c.7 1.8 19.5-2.5 17.6-7.1-1.9-4.6-18.3 5.3-17.6 7.1z" />
		<path class="st3" d="M268.3 57.7c1.8.7 12-15.6 7.4-17.5-4.6-2-9.3 16.7-7.4 17.5z" />
		<path class="st3" d="M268.3 57.9c-.7 1.8 15.6 12 17.5 7.4 2-4.6-16.6-9.2-17.5-7.4z" />
		<path class="st3" d="M268.2 58c-1.8-.7-12 15.6-7.4 17.5 4.6 2 9.2-16.7 7.4-17.5z" />
		<path class="st3" d="M268.1 57.8c.7-1.8-15.6-12-17.5-7.4s16.6 9.2 17.5 7.4z" />
		<path class="st3" d="M268.3 58c-1.8.7 2.5 19.5 7.1 17.6 4.6-1.7-5.3-18.3-7.1-17.6z" />
		<path class="st3" d="M268.1 57.9c-.7-1.8-19.5 2.5-17.6 7.1 1.8 4.6 18.3-5.2 17.6-7.1z" />
		<path class="st4" d="M268.2 57.7c2.1 0 5-19 0-19s-2.1 19 0 19z" />
		<path class="st4" d="M268.3 57.9c0 2.1 19 5 19 0s-19-2-19 0z" />
		<path class="st4" d="M268.3 57.8c1.4 1.4 17-9.9 13.4-13.4-3.5-3.6-14.8 11.9-13.4 13.4z" />
		<path class="st4" d="M268.3 58c-1.4 1.4 9.9 17 13.4 13.4 3.7-3.5-11.9-14.8-13.4-13.4z" />
		<path class="st4" d="M268.1 58c-1.4-1.4-17 9.9-13.4 13.4 3.5 3.5 14.8-12 13.4-13.4z" />
		<path class="st4" d="M268.1 57.8c1.4-1.4-9.9-17-13.4-13.4-3.5 3.5 11.9 14.7 13.4 13.4z" />
		<path class="st4" d="M268.2 58c-2.1 0-5 19 0 19s2.1-19 0-19z" />
		<path class="st4" d="M268.1 57.9c0-2.1-19-5-19 0s19 1.9 19 0z" />
		<circle cx="268" cy="58" r="3.6" fill="#fa0" />
	</g>
	<g>
		<path class="st6" d="M430.1 66.6c2.7-1.1-3.8-28.6-10.5-25.8-6.7 2.8 7.8 27 10.5 25.8z" />
		<path class="st6" d="M430.5 66.8c1.1 2.7 28.6-3.8 25.8-10.5-2.8-6.8-26.9 7.8-25.8 10.5z" />
		<path class="st6" d="M430.3 66.6c2.7 1.1 17.6-22.9 10.9-25.7-6.8-2.8-13.7 24.6-10.9 25.7z" />
		<path class="st6" d="M430.5 66.9c-1.1 2.7 22.9 17.6 25.7 10.9 2.8-6.8-24.6-13.5-25.7-10.9z" />
		<path class="st6" d="M430.1 67.1c-2.7-1.1-17.6 22.9-10.9 25.7 6.8 2.9 13.7-24.6 10.9-25.7z" />
		<path class="st6" d="M430.1 66.8c1.1-2.7-22.9-17.6-25.7-10.9s24.4 13.5 25.7 10.9z" />
		<path class="st6" d="M430.3 67.1c-2.7 1.1 3.8 28.6 10.5 25.8 6.9-2.8-7.8-27-10.5-25.8z" />
		<path class="st6" d="M430.1 66.9c-1.1-2.7-28.6 3.8-25.8 10.5s26.7-7.7 25.8-10.5z" />
		<path class="st7" d="M430.2 66.6c2.9 0 7.4-27.9 0-27.9s-2.9 27.9 0 27.9z" />
		<path class="st7" d="M430.5 66.9c0 2.9 27.9 7.4 27.9 0s-27.9-2.9-27.9 0z" />
		<path class="st7" d="M430.3 66.6c2.1 2.1 24.9-14.5 19.7-19.7-5.1-5.1-21.8 17.8-19.7 19.7z" />
		<path class="st7" d="M430.3 67.1c-2.1 2.1 14.5 24.9 19.7 19.7 5.3-5.2-17.6-21.8-19.7-19.7z" />
		<path class="st7" d="M430.1 67.1c-2.1-2.1-24.9 14.5-19.7 19.7 5.1 5.1 21.8-17.6 19.7-19.7z" />
		<path class="st7" d="M430.1 66.6c2.1-2.1-14.5-24.9-19.7-19.7-5.2 5.2 17.6 21.8 19.7 19.7z" />
		<path class="st7" d="M430.2 67.1c-2.9 0-7.4 27.9 0 27.9s2.9-27.9 0-27.9z" />
		<path class="st7" d="M429.9 66.9c0-2.9-27.9-7.4-27.9 0s27.9 3 27.9 0z" />
		<circle cx="429.8" cy="67.1" r="5.3" fill="#93572e" />
	</g>
</svg>
