<svg xmlns="http://www.w3.org/2000/svg" viewBox="0 0 451.21 79.77" opacity=".5">
	<path fill="#88e9ff" d="M22.08 29.27A17 17 0 0 0 3.4 44.38L0 76.21c2 .21 3.67-6.4 6.31-6.12s1.52 7 4.88 7.3 3.67-6.39 6.3-6.12 2.65 7.07 4.88 7.31 3.68-6.4 6.31-6.12 2.64 7.07 4.88 7.31a1 1 0 0 0 .25 0l3.38-31.78a17 17 0 0 0-15.11-18.72zm-3.77 17.71a3.5 3.5 0 1 1 3.85-3.1 3.51 3.51 0 0 1-3.85 3.1zm11.32 1.2a3.5 3.5 0 1 1 3.85-3.11 3.51 3.51 0 0 1-3.85 3.11z" />
	<path fill="#ff7a6c" d="M148.52.15c-9.3 1.3-15.63 11-14.14 21.6l5.07 36.22c2-.28 2-7.1 4.63-7.47s3.17 6.38 6.51 5.91 2-7.1 4.63-7.47 4.28 6.22 6.51 5.91 2-7.1 4.64-7.47 4.27 6.22 6.5 5.91a1.7 1.7 0 0 0 .24-.09l-5.06-36.17C166.56 6.41 157.81-1.12 148.52.15zm-8.44 20.08a2.86 2.86 0 1 1 2.43-3.23 2.86 2.86 0 0 1-2.43 3.23zm9.19-1.29a2.86 2.86 0 1 1 2.44-3.22 2.85 2.85 0 0 1-2.44 3.22z" />
	<path fill="#6eff6e" d="M309.92 28.01c-11-1.17-20.68 5.13-21.64 14.09l-3.27 30.52c2.34.25 4.18-6.07 7.28-5.74s1.95 6.72 5.9 7.15 4.17-6.07 7.27-5.74 3.27 6.86 5.9 7.15 4.18-6.07 7.28-5.74 3.26 6.86 5.9 7.15a1.37 1.37 0 0 0 .29 0l3.27-30.47c.95-8.98-7.18-17.19-18.18-18.37zm-3 16.54a4.76 4.76 0 1 1 5.24-4.23 4.76 4.76 0 0 1-5.27 4.23zm11.41 1.22a4.76 4.76 0 1 1 5.24-4.23 4.76 4.76 0 0 1-5.27 4.23z" />
	<circle fill="none" cx="431.24" cy="17.83" r="3" />
	<circle fill="none" cx="421.59" cy="19.18" r="3" />
	<path fill="white576" d="M447.32 15.51c-1.14-8.16-9.6-13.72-18.9-12.42s-15.91 9-14.77 17.13l3.89 27.81c2-.28 2-7.1 4.64-7.47s3.16 6.38 6.5 5.91 2-7.1 4.64-7.46 4.28 6.21 6.5 5.9 2-7.1 4.64-7.46 4.28 6.21 6.51 5.9a1.13 1.13 0 0 0 .24-.08zM422 22.16a3 3 0 1 1 2.56-3.39 3 3 0 0 1-2.56 3.39zm9.66-1.35a3 3 0 1 1 2.55-3.39 3 3 0 0 1-2.55 3.39z" />
	<path fill="#ff0" d="M450.97 43.35h.24a1.13 1.13 0 0 1-.24 0z" />
</svg>
