<svg xmlns="http://www.w3.org/2000/svg" viewBox="0 0 540 128">
	<style>.st4{fill:none}</style>
	<path d="M75.7 55.4c-9.3-1-17.7 5.8-18.7 15.1l-3.4 31.8c2 .2 3.7-6.4 6.3-6.1 2.6.3 1.5 6.9 4.9 7.3s3.7-6.4 6.3-6.1 2.6 7.1 4.9 7.3c2.2.2 3.7-6.4 6.3-6.1 2.6.3 2.6 7.1 4.9 7.3h.3l3.4-31.8c.9-9.3-5.9-17.7-15.2-18.7zm-3.8 17.7c-1.9-.2-3.3-1.9-3.1-3.9.2-1.9 1.9-3.3 3.9-3.1 1.9.2 3.3 1.9 3.1 3.9-.2 1.9-2 3.3-3.9 3.1zm11.3 1.2c-1.9-.2-3.3-1.9-3.1-3.9.2-1.9 1.9-3.3 3.9-3.1s3.3 1.9 3.1 3.9c-.2 1.9-2 3.3-3.9 3.1z" opacity=".5" fill="#88e9ff" />
	<path d="M202.1 26.3c-9.3 1.3-15.6 11-14.1 21.6l5.1 36.2c2-.3 2-7.1 4.6-7.5 2.6-.4 3.2 6.4 6.5 5.9s2-7.1 4.6-7.5 4.3 6.2 6.5 5.9 2-7.1 4.6-7.5c2.6-.4 4.3 6.2 6.5 5.9.1 0 .2-.1.2-.1L221.5 43c-1.3-10.5-10.1-18-19.4-16.7zm-8.4 20.1c-1.6.2-3-.9-3.2-2.4-.2-1.6.9-3 2.4-3.2 1.6-.2 3 .9 3.2 2.4.2 1.5-.9 2.9-2.4 3.2zm9.2-1.3c-1.6.2-3-.9-3.2-2.4-.2-1.6.9-3 2.4-3.2 1.6-.2 3 .9 3.2 2.4.2 1.5-.9 2.9-2.4 3.2z" opacity=".5" fill="#ff7a6c" />
	<path d="M363.5 54.1c-11-1.2-20.7 5.1-21.6 14.1l-3.3 30.5c2.3.3 4.2-6.1 7.3-5.7 3.1.3 1.9 6.7 5.9 7.1s4.2-6.1 7.3-5.7c3.1.3 3.3 6.9 5.9 7.1s4.2-6.1 7.3-5.7c3.1.3 3.3 6.9 5.9 7.1h.3l3.3-30.5c.9-8.9-7.3-17.1-18.3-18.3zm-3 16.6a4.72 4.72 0 1 1 1-9.4 4.72 4.72 0 1 1-1 9.4zm11.4 1.2a4.72 4.72 0 1 1 1-9.4c2.6.3 4.5 2.6 4.2 5.2-.2 2.6-2.6 4.5-5.2 4.2z" opacity=".5" fill="#6eff6e" />
	<g opacity=".5">
		<circle class="st4" cx="484.8" cy="44" r="3" />
		<circle class="st4" cx="475.2" cy="45.3" r="3" />
		<path d="M500.9 41.6c-1.1-8.2-9.6-13.7-18.9-12.4-9.3 1.3-15.9 9-14.8 17.1l3.9 27.8c2-.3 2-7.1 4.6-7.5 2.6-.4 3.2 6.4 6.5 5.9s2-7.1 4.6-7.5c2.6-.4 4.3 6.2 6.5 5.9 2.2-.3 2-7.1 4.6-7.5 2.6-.4 4.3 6.2 6.5 5.9.1 0 .2-.1.2-.1l-3.7-27.6zm-25.3 6.7c-1.6.2-3.2-.9-3.4-2.6s.9-3.2 2.6-3.4 3.2.9 3.4 2.6c.2 1.6-1 3.2-2.6 3.4zm9.7-1.4a3.03 3.03 0 0 1-.8-6c1.6-.2 3.2.9 3.4 2.6.1 1.7-1 3.2-2.6 3.4z" fill="#fff576" />
		<path d="M504.6 69.5h.2c-.1-.1-.1 0-.2 0z" fill="#ff0" />
	</g>
</svg>
