<svg xmlns="http://www.w3.org/2000/svg" viewBox="0 0 540 128">
	<path fill="#ff1558" d="M65.1 35.8c-5.4-2.8-12-.6-14.8 4.8L47 47.1l-6.5-3.3c-5.4-2.8-12-.6-14.8 4.8-2.8 5.4-.6 12 4.8 14.8l6.5 3.3 19.6 10 10-19.6 3.3-6.5c2.8-5.4.6-12.1-4.8-14.8z" />
	<path fill="#f22281" d="M144.8 61.6c-2.6-4.1-8.1-5.4-12.3-2.8l-5 3.1-3.1-5c-2.6-4.1-8.1-5.4-12.3-2.8-4.1 2.6-5.4 8.1-2.8 12.3l3.1 5 9.4 15.1 15.1-9.4 5-3.1c4.3-2.7 5.5-8.3 2.9-12.4z" />
	<path fill="#ed2056" d="M219.2 48.6c-4.1-3.5-10.3-2.9-13.8 1.2l-4.2 5-5-4.2c-4.1-3.5-10.3-2.9-13.8 1.2s-2.9 10.3 1.2 13.8l5 4.2 15 12.6 12.6-15 4.2-5c3.5-4.1 2.9-10.3-1.2-13.8z" />
	<path fill="#f72140" d="M312.6 68.8c-2.3-6.1-9.2-9.1-15.2-6.8l-7.3 2.8-2.8-7.3c-2.3-6.1-9.2-9.1-15.2-6.8-6.1 2.3-9.1 9.2-6.8 15.2l2.8 7.3 8.4 22 22-8.4 7.3-2.8c6-2.3 9.1-9.1 6.8-15.2z" />
	<path fill="#f2307f" d="M370.8 41.2c-3.4-2.1-7.9-1-9.9 2.4l-2.5 4.1-4.1-2.5c-3.4-2.1-7.9-1-9.9 2.4-2.1 3.4-1 7.9 2.4 9.9l4.1 2.5 12.3 7.6 7.6-12.3 2.5-4.1c2-3.4.9-7.9-2.5-10z" />
	<path fill="#f93838" d="M439.4 69.4c-2.4-3.9-7.6-5.2-11.5-2.8l-4.7 2.9-2.9-4.7c-2.4-3.9-7.6-5.2-11.5-2.8-3.9 2.4-5.2 7.6-2.8 11.5l2.9 4.7 8.8 14.3 14.3-8.8 4.7-2.9c3.9-2.3 5.1-7.5 2.7-11.4z" />
	<path fill="#ff80ba" d="M507.1 41.4c-3.8-2.5-9.1-1.5-11.6 2.4l-3.1 4.6-4.6-3.1c-3.8-2.5-9.1-1.5-11.6 2.4-2.5 3.8-1.5 9.1 2.4 11.6l4.6 3.1 14 9.3 9.3-14 3.1-4.6c2.4-3.9 1.3-9.1-2.5-11.7z" />
</svg>
