<svg xmlns="http://www.w3.org/2000/svg" viewBox="0 0 461.44 86.45">
	<path fill="#f15a24" d="M41.45 28.09L2.93 54.32 0 68.44l46.92 9.73 9.73-46.92-15.2-3.16z" />
	<path fill="#ed704a" d="M9.73 21.52l-6.8 32.8 38.52-26.23-31.72-6.57z" />
	<path fill="#c1272d" d="M29.972 25.71l6.443 1.337-9.734 46.921-6.443-1.336z" />
	<path fill="#c1272d" d="M59.17 14.5c-7.68-9.27-26.06 10-26.06 10S21.7-3.83 15.7 6.45s14.27 19.26 14.27 19.26l6.44 1.34s30.43-3.28 22.76-12.55zM18.11 8.86c4.1-5.87 11.51 13.9 11.51 13.9s-15.6-8.03-11.51-13.9zm18.87 15.43s17.62-15.54 18.85-7.6-18.85 7.6-18.85 7.6z" />
	<path fill="#29abe2" d="M212.43 53.09l-6.03-24.6-22.64 5.55-27.61 26.83 1.4 5.69 54.88-13.47z" />
	<path fill="#48bde5" d="M151.51 41.96l4.64 18.91 27.61-26.83-32.25 7.92z" />
	<path fill="#2e3192" d="M176.744 35.764l4.419-1.084 6.037 24.6-4.419 1.084zM193.7 22.92c-7.54-3.5-15.33 11.12-15.33 11.12s-13.52-16.8-14.19-8.57 12.52 10.3 12.52 10.3l4.42-1.09s20.08-8.26 12.58-11.76zm-27.32 3.32c.81-4.88 9.27 7.76 9.27 7.76s-10.08-2.85-9.27-7.76zm14.32 6.55s8.88-12.88 12-8.3-12 8.3-12 8.3z" />
	<path fill="#22b573" d="M461.44 78.07l-12.28-46.74-27.27 26.08 7.63 29.04 31.92-8.38z" />
	<path fill="#39c481" d="M446.44 21l-31.91 8.39 7.36 28.02 27.27-26.08L446.44 21z" />
	<path fill="#006837" d="M427.106 26.076l6.77-1.779 14.991 57.064-6.77 1.778zM445.23.64c-11.7-5.19-15.74 22.75-15.74 22.75S407.87.12 407.05 12.74s20 13.35 20 13.35l6.77-1.78S456.93 5.84 445.23.64zm-34.77 13.27c1.12-7.53 14.91 9.53 14.91 9.53s-16.03-1.99-14.91-9.53zm22.65 7.5s5-24.08 10-17.1-10 17.1-10 17.1z" />
	<path fill="#f0f" d="M335.9 46.6l-7.2 4.47-4.07 24.17A16.91 16.91 0 0 0 335.9 46.6zM307.8 64.07a16.93 16.93 0 0 0 10.34 10.24l3.15-18.62z" />
	<path fill="#fb64ff" d="M323.59 42.01l6.46 1.09-1.34 8 7.19-4.47a16.92 16.92 0 0 0-28.1 17.47l13.49-8.38z" />
	<path fill="#9e005d" d="M323.59 42.01l-2.3 13.68-3.15 18.62a16.4 16.4 0 0 0 6.49.94l4.07-24.18 1.34-8z" />
	<path fill="#9e005d" d="M341.81 32.98c-7.22-8.09-15.11 7.83-15.11 7.83s-6.23-20.07-11.26-10.57 8.46 11.87 8.46 11.87l5.85 1s19.29-2.04 12.06-10.13zm-24.11-.74c3.49-5.42 5.83 7.14 5.83 7.14s-9.36-1.67-5.83-7.14zm12.51 8.26s7.34-12.58 8.72-5.48-8.76 5.52-8.76 5.52z" />
</svg>
