<svg xmlns="http://www.w3.org/2000/svg" viewBox="0 0 540 128">
	<style>.st2{fill:#c1272d}.st5{fill:#2e3192}.st8{fill:#006837}.st9{fill:#9e005d}.st10{fill:#f0f}</style>
	<g>
		<path fill="#f15a24" d="M70.7 42.9L32.2 69.1l-2.9 14.1 46.9 9.7L86 46z" />
		<path fill="#ed704a" d="M39 36.3l-6.8 32.8 38.5-26.2z" />
		<path transform="rotate(11.718 57.624 64.6039)" class="st2" d="M54.3 40.6h6.6v47.9h-6.6z" />
		<path class="st2" d="M88.5 29.3c-7.7-9.3-26.1 9.9-26.1 9.9S51 10.9 45 21.2s14.2 19.3 14.2 19.3l6.4 1.3c.1 0 30.5-3.3 22.9-12.5zm-41.1-5.7c4.1-5.9 11.5 13.9 11.5 13.9s-15.6-8-11.5-13.9zm18.9 15.5s17.6-15.5 18.9-7.6c1.2 7.9-18.9 7.6-18.9 7.6z" />
	</g>
	<g>
		<path fill="#29abe2" d="M241.7 67.9l-6-24.7-22.6 5.6-27.7 26.8 1.4 5.7z" />
		<path fill="#48bde5" d="M180.8 56.7l4.6 18.9 27.7-26.8z" />
		<path transform="rotate(-13.784 211.3043 62.2844)" class="st5" d="M209 49.6h4.5v25.3H209z" />
		<path class="st5" d="M223 37.7c-7.5-3.5-15.3 11.1-15.3 11.1s-13.5-16.8-14.1-8.6c-.7 8.2 12.6 10.3 12.6 10.3l4.4-1.1c-.1 0 19.9-8.2 12.4-11.7zM195.7 41c.8-4.9 9.3 7.8 9.3 7.8s-10.1-2.9-9.3-7.8zm14.3 6.5s8.9-12.9 12-8.3c3.1 4.6-12 8.3-12 8.3z" />
	</g>
	<g>
		<path fill="#22b573" d="M490.7 92.8l-12.2-46.7-27.3 26.1 7.6 29z" />
		<path fill="#39c481" d="M475.7 35.8l-31.9 8.3 7.4 28.1 27.3-26.1z" />
		<path transform="rotate(-14.715 467.247 68.449)" class="st8" d="M463.8 39h7v59h-7z" />
		<path class="st8" d="M474.5 15.4c-11.7-5.2-15.7 22.7-15.7 22.7s-21.6-23.3-22.4-10.6c-.8 12.6 20 13.3 20 13.3l6.8-1.8c0 .1 23-18.4 11.3-23.6zm-34.7 13.3c1.1-7.5 14.9 9.5 14.9 9.5s-16.1-2-14.9-9.5zm22.6 7.5s5-24.1 10-17.1-10 17.1-10 17.1z" />
	</g>
	<g>
		<path class="st10" d="M365.2 61.4l-7.2 4.5-4.1 24.1c7.7-.4 14.5-6.1 15.8-14.1 1-5.5-.9-10.8-4.5-14.5zM337.1 78.8c1.7 4.7 5.4 8.5 10.3 10.2l3.1-18.6-13.4 8.4z" />
		<path d="M352.9 56.8l6.5 1.1-1.3 8 7.2-4.5c-2.4-2.5-5.6-4.3-9.4-5-9.2-1.6-18 4.7-19.5 13.9-.5 3-.2 5.9.8 8.5l13.5-8.4 2.2-13.6z" fill="#fb64ff" />
		<path class="st9" d="M352.9 56.8l-2.3 13.7-3.1 18.6c.9.3 1.8.6 2.8.7 1.3.2 2.5.3 3.7.2l4.1-24.2 1.3-8-6.5-1z" />
		<path class="st9" d="M371.1 47.7c-7.2-8.1-15.1 7.8-15.1 7.8s-6.2-20.1-11.3-10.6c-5 9.5 8.5 11.9 8.5 11.9l5.8 1s19.3-2 12.1-10.1zM347 47c3.5-5.4 5.8 7.1 5.8 7.1s-9.3-1.6-5.8-7.1zm12.5 8.3s7.3-12.6 8.7-5.5-8.7 5.5-8.7 5.5z" />
	</g>
</svg>
