<svg xmlns="http://www.w3.org/2000/svg" viewBox="0 0 540 128">
    <style>.st0{fill:#99583c}.st1{fill:#c69c6d}</style>
    <g>
        <path transform="rotate(14.327 34.7878 75.8578)" class="st0" d="M33.8 66h2v19.7h-2z" />
        <path transform="rotate(2.6508 40.9232 70.3348) scale(.99997)" class="st1" d="M40.4 67.8h1v5.1h-1z" />
        <path transform="rotate(14.327 40.8095 53.3104)" fill="#bc0808" d="M34.2 38.4h13.2v29.9H34.2z" />
        <path fill="#dd1717" d="M31.5 36.5L57.1 43l-9.3-17z" />
    </g>
    <g>
        <path transform="rotate(-11.526 155.3442 78.7651)" class="st0" d="M154.4 69.8h1.9v18h-1.9z" />
        <path transform="rotate(-23.205 158.1856 71.5932)" class="st1" d="M157.7 69.2h.9v4.7h-.9z" />
        <path transform="rotate(-11.526 151.241 57.4706)" fill="#0a80c1" d="M145.2 43.7h12.2v27.6h-12.2z" />
        <path fill="#1da7ed" d="M136.7 47.3l23.9-4.9L146.1 32z" />
    </g>
    <g>
        <path transform="rotate(1.6284 258.3266 78.1824)" class="st0" d="M257.3 67.7h2.1v21h-2.1z" />
        <path transform="rotate(-10.05 263.3634 71.1689)" class="st1" d="M262.8 68.5h1.1v5.3h-1.1z" />
        <path transform="rotate(1.6284 259.2951 53.4718)" fill="#1bba09" d="M252.3 37.5h13.9v31.9h-13.9z" />
        <path fill="#19db50" d="M245.8 38.6l27.8.8L260.1 24z" />
    </g>
    <g>
        <path transform="rotate(6.435 374.3014 79.6845)" class="st0" d="M373.2 70h2v19.3h-2z" />
        <path transform="rotate(-5.2344 379.4801 73.2741) scale(.99997)" class="st1" d="M379 70.8h1v5h-1z" />
        <path transform="rotate(6.435 377.2097 56.1941)" fill="#ba09ba" d="M370.6 40.9h13v30.6h-13z" />
        <path fill="#db19c4" d="M365.7 41.5l25.9 2.9L380.2 29z" />
    </g>
    <g>
        <path transform="rotate(-25.028 498.3465 77.7869)" class="st0" d="M497.4 68.8h1.9v18h-1.9z" />
        <path transform="rotate(-25.028 489.1643 57.574)" fill="#f15a24" d="M483.1 43.1h12.1V72h-12.1z" />
        <path fill="#ff9515" d="M473.1 51.8L495 41.5l-16.4-6.6z" />
        <path transform="rotate(-36.707 499.4917 70.2752)" class="st1" d="M499 67.9h.9v4.7h-.9z" />
    </g>
</svg>
