<svg xmlns="http://www.w3.org/2000/svg" viewBox="0 0 540 128">
    <path fill="#99583c" d="M33.8 66h2v19.7h-2z" transform="rotate(14.327 34.788 75.858)" />
    <path fill="#c69c6d" d="M40.4 67.8h1v5.1h-1z" transform="rotate(2.651 40.923 70.335)" />
    <path fill="#bc0808" d="M34.2 38.4h13.2v29.9H34.2z" transform="rotate(14.327 40.81 53.31)" />
    <path fill="#dd1717" d="M31.5 36.5L57.1 43l-9.3-17z" />
    <path fill="#99583c" d="M154.4 69.8h1.9v18h-1.9z" transform="rotate(-11.526 155.344 78.765)" />
    <path fill="#c69c6d" d="M157.7 69.2h.9v4.7h-.9z" transform="rotate(-23.205 158.186 71.593)" />
    <path fill="#0a80c1" d="M145.2 43.7h12.2v27.6h-12.2z" transform="rotate(-11.526 151.241 57.47)" />
    <path fill="#1da7ed" d="M136.7 47.3l23.9-4.9L146.1 32z" />
    <path fill="#99583c" d="M257.3 67.7h2.1v21h-2.1z" transform="rotate(1.628 258.327 78.182)" />
    <path fill="#c69c6d" d="M262.8 68.5h1.1v5.3h-1.1z" transform="rotate(-10.05 263.363 71.169)" />
    <path fill="#1bba09" d="M252.3 37.5h13.9v31.9h-13.9z" transform="rotate(1.628 259.295 53.472)" />
    <path fill="#19db50" d="M245.8 38.6l27.8.8L260.1 24z" />
    <path fill="#99583c" d="M373.2 70h2v19.3h-2z" transform="rotate(6.435 374.301 79.684)" />
    <path fill="#c69c6d" d="M379 70.8h1v5h-1z" transform="rotate(-5.234 379.48 73.274)" />
    <path fill="#ba09ba" d="M370.6 40.9h13v30.6h-13z" transform="rotate(6.435 377.21 56.194)" />
    <path fill="#db19c4" d="M365.7 41.5l25.9 2.9L380.2 29z" />
    <path fill="#99583c" d="M497.4 68.8h1.9v18h-1.9z" transform="rotate(-25.028 498.346 77.787)" />
    <path fill="#f15a24" d="M483.1 43.1h12.1V72h-12.1z" transform="rotate(-25.028 489.164 57.574)" />
    <path fill="#ff9515" d="M473.1 51.8L495 41.5l-16.4-6.6z" />
    <path fill="#c69c6d" d="M499 67.9h.9v4.7h-.9z" transform="rotate(-36.707 499.492 70.275)" />
</svg>
