<svg xmlns="http://www.w3.org/2000/svg" viewBox="0 0 540 128">
	<path opacity=".7" fill="#2b8ee0" d="M94.1 94.1l-.2-3.5-9 .4-10.1-9.4 13.4-4.2 7.8 4.1 1.6-3.1-4.7-2.4 3.8-1.2-1-3.4-4 1.3 2.6-5-3.1-1.6-4.2 8.1-13.4 4.1 3.3-13.8 7.7-4.8-1.9-3-4.7 2.9.9-3.8-3.5-.8-.8 3.7-2.8-4.6-3 1.9 4.7 7.5-3.3 13.9-10.3-9.5-.3-9.1-3.5.2.2 5.5-2.9-2.6-2.3 2.5 2.7 2.6-5.3.2.1 3.5 8.8-.3 10.5 9.7-13.4 4.2-8-4.3-1.6 3.1 4.9 2.6-3.7 1.2 1 3.4 3.6-1.2-2.5 4.8 3.1 1.6 4.1-7.8 13.4-4.2-3.1 13.4-7.5 4.7 1.9 3 4.5-2.8-.9 3.9 3.4.8 1-4.1 2.9 4.7 3-1.8-4.8-7.8 3.1-13.4 10.3 9.6.3 8.8 3.5-.1-.2-5.4 3 2.8 2.4-2.6-3.1-2.8z" />
	<path opacity=".7" fill="#29abe2" d="M197.4 40.7l-3.1-2.4-6.3 8.1-15.4 1.9 6.1-14.6 9.2-3.8-1.5-3.7-5.6 2.3 1.8-4.2-3.7-1.5-1.8 4.4-2.4-5.9-3.7 1.5 3.9 9.5-6 14.6-9.7-12.8 1.4-10.2-3.9-.6-.9 6.3-2.6-3.5-3.2 2.3 2.6 3.4-6-.8-.6 3.9 9.9 1.4 9.8 12.9-15.8 2-8.1-6.3-2.4 3.2 5 3.8-4.4.6.5 3.9 4.2-.5-3.7 4.8 3.1 2.4 6.1-7.9 16.1-2.1-6.1 14.7-9.5 3.9 1.5 3.7L158 73l-1.7 4.1 3.7 1.5 1.6-3.9 2.3 5.5 3.7-1.5-3.8-9.2 6.1-14.7 9.4 12.5-1.4 9.9 3.9.5.9-5.9 2.7 3.6 3.2-2.4-2.9-3.8 6.2.9.6-3.9-10.2-1.5-9.3-12.4 15.7-2 7.9 6.1 2.4-3.1-4.7-3.7 4.5-.6-.5-3.9-4.7.6z" />
	<path opacity=".7" fill="#2bbee0" d="M280.8 100.1l1.9-1.8-4.6-4.9.3-10.3 8.9 5.6 1.5 6.4 2.5-.6-.9-3.9 2.6 1.6 1.3-2.2-2.6-1.7 4-.9-.6-2.5-6.5 1.5-8.8-5.5 9.3-4.9 6.5 2 .7-2.5-3.9-1.2L295 73l-1.2-2.4-2.5 1.3 1.2-3.7-2.5-.8-2 6.2-9.4 5 .4-10.4 4.9-4.6-1.7-1.9-3.1 2.8.1-2.9-2.6-.1-.1 2.8-2.7-2.9-1.9 1.7 4.5 4.8-.4 10.6-8.8-5.5-1.5-6.5-2.6.5 1 4.1-2.5-1.6-1.4 2.2 2.4 1.5-3.9.9.6 2.5 6.4-1.4 8.8 5.5-9 4.8-6.3-2-.8 2.5 3.8 1.2-2.6 1.4 1.2 2.3 2.7-1.5-1.2 4 2.5.7 2-6.4 9-4.7-.3 10.4-4.8 4.5 1.7 1.9 2.9-2.7-.1 3 2.6.1.1-3.2z" />
	<path opacity=".7" fill="#4190e5" d="M399.7 73.8L401 71l-7.3-3.5-4.1-11.6 12.4 2.3 4.4 6.5 2.6-1.8-2.7-3.9 3.5.6.6-3-3.7-.7 4.1-2.8-1.8-2.6-6.6 4.6-12.3-2.3 8.3-9.6 8.1-.5-.2-3.2-5 .4 2.3-2.6-2.4-2.1-2.1 2.5-.4-4.7-3.1.2.6 7.9-8.4 9.6-4.1-11.8 3.5-7.3-2.8-1.3-2.2 4.5-1.2-3.3-2.9 1 1.1 3.1-4.3-2-1.3 2.8 7.1 3.4 4.2 12-12.3-2.2-4.6-6.7-2.6 1.8 2.9 4.1-3.5-.7-.5 3.1 3.2.6-3.9 2.7 1.8 2.6 6.5-4.5 12.3 2.3-8 9.3-7.9.6.2 3.1 4.8-.4-2.4 2.8 2.4 2 2.4-2.8.4 4.9 3.1-.2-.6-8.1 8.1-9.3 4.1 11.9-3.4 7.1 2.8 1.3 2.1-4.3 1.2 3.4 2.9-1-1.2-3.6z" />
	<path opacity=".7" fill="#2c94ce" d="M473 91.5l2.2-.7-1.9-5.6 4-8.1 5.1 7.7-1.1 5.6 2.2.5.7-3.4 1.5 2.2 1.9-1.3-1.5-2.3 3.6.7.4-2.2-5.8-1.2-5.1-7.6 9.3-.5 4.5 3.9 1.5-1.7-2.7-2.4 2.5-.1-.1-2.3-2.5.1 2.4-2.6-1.7-1.5-3.9 4.3-9.4.5 4.2-8.2 5.6-1.9-.7-2.2-3.5 1.2 1.2-2.3-2.1-1.1-1.1 2.2-1.1-3.3-2.2.7 1.9 5.5-4.2 8.4-5.1-7.6 1.2-5.9-2.3-.4-.7 3.5-1.4-2.1-2 1.3 1.4 2-3.4-.7-.5 2.3L470 66l5.1 7.7-9 .5-4.4-3.8-1.5 1.7 2.6 2.3-2.6.1.1 2.3 2.7-.1-2.4 2.7 1.7 1.5 4-4.4 9-.5-4.1 8.2-5.5 1.9.7 2.2 3.3-1.2-1.1 2.4 2 1 1.2-2.4z" />
</svg>
