<svg xmlns="http://www.w3.org/2000/svg" viewBox="0 0 540 128">
	<style>.st0{fill:#c96331}.st3{fill:#f0f}.st4{fill:#7c4c32}.st5{fill:#633826}.st6{fill:#e28150}.st7{fill:#603813}.st8{fill:#e57715}.st9{fill:#e29017}.st10{fill:#eab83b}.st11{fill:#d65e34}.st12{fill:#fe3c00}.st13{fill:#0090ea}.st14{fill:#66ba6a}</style>
	<g>
		<path d="M227.5 58.8l-10.6-1.2c-4.2 4.9-8.9 9.7-13.9 13.4-2.2 1.7-4.4 3-6.5 4.1-4.4 2.2-8.4 3.3-11.8 3.7.2 2.6.5 4.5.8 5 1.4 2.4 30.4 5.2 32.8 3.8 2.4-1.4 9.4-28.8 9.4-28.8h-.2z" fill="#66bb6a" />
		<path d="M183.8 53.7h-.3s.4 16.5 1.2 25.1c3.4-.4 7.4-1.5 11.8-3.7 2.1-1.1 4.3-2.4 6.5-4.1 4.9-3.7 9.7-8.5 13.9-13.4l-33.1-3.9z" fill="#7fcc7f" />
		<path class="st4" d="M227.7 53.4c-.8-10.2-8.8-18.8-19.4-20.1-10.4-1.2-19.9 5-23.3 14.5-2.2-.1-4.2 1.6-4.5 3.9-.3 2.4 1.4 4.6 3.9 4.9h.3c.7 1.4 2.1 2.5 3.8 2.7 1.6.2 3.1-.4 4.2-1.5.7 1.6 2.1 2.8 4 3 1.9.2 3.7-.7 4.7-2.2.6 1.7 2.1 3 4.1 3.2 1.7.2 3.3-.5 4.4-1.7.7 1.4 2.1 2.5 3.8 2.7 1.8.2 3.5-.6 4.6-2 .8 1.3 2.1 2.2 3.7 2.4 1.5.2 2.8-.3 3.8-1.2h.2c2.4.3 4.6-1.4 4.9-3.9.1-2.2-1.2-4.1-3.2-4.7z" />
		<path class="st5" d="M199.7 43.2l-2.3-3.9c-.2-.4-.1-.8.3-1l.1-.1c.4-.2.8-.1 1 .3l2.3 3.9c.2.4.1.8-.3 1l-.1.1c-.3.2-.8.1-1-.3zM211 44.5l2.3-3.9c.2-.4.7-.5 1-.3l.1.1c.4.2.5.7.3 1l-2.3 3.9c-.2.4-.7.5-1 .3l-.1-.1c-.4-.2-.5-.6-.3-1zM204.8 53.9l-.8-4.5c-.1-.4.2-.8.6-.9h.2c.4-.1.8.2.9.6l.8 4.5c.1.4-.2.8-.6.9h-.2c-.4.1-.8-.2-.9-.6zM218 53.9l1.5-4.3c.1-.4.6-.6.9-.5l.2.1c.4.1.6.6.5.9l-1.5 4.3c-.1.4-.6.6-.9.5l-.2-.1c-.4-.1-.6-.5-.5-.9zM192.3 51l1.5-4.3c.1-.4.6-.6.9-.5l.2.1c.4.1.6.6.5.9l-1.5 4.3c-.1.4-.6.6-.9.5l-.2-.1c-.4-.1-.6-.6-.5-.9z" />
		<path class="st6" d="M207.5 40h.2-.3.1z" />
		<path class="st7" d="M210.1 18H209.8l-.1.8h.3l.1-.8z" />
		<path class="st8" d="M209.8 11.1s-3.8 7.2 0 7.3H210.1c3.9-.3-.3-7.3-.3-7.3zm.3 7H209.8c-2.9-.2 0-6.2.1-6.2 0-.1 3.2 5.9.2 6.2z" />
		<path class="st9" d="M209.8 11.8c-.1 0-3 6.1-.1 6.2H210c3.1-.2-.1-6.2-.2-6.2zm.3 6H209.8c-2.3-.2 0-5.1.1-5.1 0 0 2.6 4.9.2 5.1z" />
		<path class="st10" d="M209.9 12.7c-.1 0-2.4 4.9-.1 5.1H210.1c2.4-.2-.2-5.1-.2-5.1z" />
		<path class="st11" d="M210.6 37.5l1.2-10.7c-.7 1.2-1.7 2.3-3 3.2-1.4 1-2.4 1.2-3.2 1l-.7 5.7-.2 2c.7.5 1.7 1 2.7 1.1h.3c.9.1 1.8 0 2.7-.3l.2-2z" />
		<path class="st6" d="M208.8 30.1c1.4-1 2.4-2.1 3-3.2l.9-7.7-2.7-.3v.4h-.3v-.4l-2.7-.3-1.5 12.7c.8 0 1.9-.2 3.3-1.2z" />
		<path transform="rotate(-83.448 209.852 18.916)" class="st6" d="M209.7 18.8h.4v.3h-.4z" />
		<path class="st6" d="M208.8 30.1c1.4-.9 2.3-2.1 3-3.2-.7 1.1-1.7 2.2-3 3.2z" />
		<path class="st5" d="M204.2 38c.4 0 1.8 1 3.3 1.1 1.5.2 3.2-.4 3.5-.4s.8.4.7.7c0 .4-.9.6-.9.6s-1.7.6-3.5.4c-1.8-.2-3.3-1.1-3.3-1.1s-.8-.4-.7-.7c.1-.4.5-.6.9-.6z" />
		<path class="st12" d="M78.6 83.6L63.1 87s-5.4 7-5.1 8.1c.2 1 1.9 2.1 2.5 1.9.6-.2 1.6-3.2 2.2-3.6.6-.4 9.3-2.3 9.3-2.3s8.7-1.8 9.5-1.8 2.9 2.4 3.5 2.3c.7-.1 1.7-1.8 1.5-2.8-.1-1.1-7.9-5.2-7.9-5.2zm-1.4 2.9c-.1.5-5.7 1.6-5.7 1.6s-5.5 1.4-5.8 1c-.3-.4 2-3 2-3l6.5-1.4c-.1-.1 3.1 1.3 3 1.8z" />
		<g>
			<path class="st13" d="M56.7 42s-6.9-7.6-7.5-7.8-3.9.3-3.9 1.1 4.5 4.9 7.7 7.8M65.8 40s3.1-9.7 3.6-10.2c.5-.4 3.6-1.4 4-.7.3.7-2 6.4-3.8 10.3" />
		</g>
		<path class="st14" d="M82.3 44.8c-.7-2.1-1.5-5.6-2.8-6.6-1.3-1-14.8 1.7-18.3 2.5S44.3 44.6 43.5 46c-.8 1.4-.1 5 .2 7.2.3 2.2 3.2 15.9 3.7 18.1.6 2.2 2.3 9.4 3 11.3.7 1.9 1.5 5.1 2.2 5.5.7.4 3.8.1 5.5-.2 1.7-.3 7.6-1.2 12.8-2.4 5.2-1.1 11-2.8 12.7-3.2 1.6-.4 4.6-1.4 5.1-2.1.5-.7-.1-3.9-.2-5.9-.2-2-1.6-9.3-2-11.5-.5-2.3-3.6-16-4.2-18zM59.4 83.3c-2 .4-3.9-.8-4.4-2.8-.4-2 .8-3.9 2.8-4.4 2-.4 3.9.8 4.4 2.8.5 2-.8 3.9-2.8 4.4zm21-4.6c-2 .4-3.9-.8-4.4-2.8-.4-2 .8-3.9 2.8-4.4 2-.4 3.9.8 4.4 2.8.4 2-.8 4-2.8 4.4zm2.6-13c-.5 1.2-5.5 3.4-15.2 5.5s-15.1 2.2-16.1 1.3c-1-.9-2.1-7.8-2.2-11.8-.2-4 1.3-12.4 12.8-14.9 3.1-.7 5.8-.7 8-.2 5.9 1.3 8.8 5.7 9.9 8.5 1.5 3.7 3.3 10.4 2.8 11.6z" />
		<path d="M500.1 67.6L489.6 66c-4.4 4.8-9.3 9.4-14.3 12.9-2.3 1.6-4.5 2.9-6.7 3.9-4.5 2.1-8.5 3-11.9 3.3.2 2.6.4 4.5.7 5 1.3 2.4 30.2 6.3 32.6 5 2.4-1.3 10.4-28.5 10.4-28.5h-.3z" fill="#678dba" />
		<path d="M456.7 61h-.3s-.2 16.5.3 25.2c3.4-.3 7.4-1.2 11.9-3.3 2.1-1 4.4-2.3 6.7-3.9 5.1-3.5 9.9-8.2 14.3-12.9L456.7 61z" fill="#619dc6" />
		<path class="st4" d="M500.5 62.2c-.5-10.3-8.1-19.1-18.7-20.7-10.3-1.6-20.1 4.3-23.8 13.7-2.2-.1-4.3 1.4-4.6 3.7-.4 2.4 1.3 4.6 3.7 5h.3c.7 1.5 2 2.6 3.7 2.8 1.6.2 3.1-.3 4.2-1.4.6 1.6 2 2.9 3.9 3.2 1.9.3 3.7-.6 4.8-2 .6 1.7 2 3.1 3.9 3.4 1.7.3 3.3-.4 4.4-1.6.7 1.5 2 2.6 3.7 2.8 1.8.3 3.6-.5 4.6-1.9.7 1.3 2 2.3 3.6 2.6 1.5.2 2.8-.2 3.9-1.1h.2c2.4.4 4.6-1.3 5-3.7.5-2.1-.8-4.1-2.8-4.8z" />
		<path class="st5" d="M472.9 51.1l-2.2-4c-.2-.4-.1-.8.3-1l.1-.1c.4-.2.8-.1 1 .3l2.2 4c.2.4.1.8-.3 1l-.1.1c-.3.2-.8.1-1-.3zM484.2 52.8l2.4-3.9c.2-.3.7-.5 1-.2l.1.1c.3.2.5.7.2 1l-2.4 3.9c-.2.3-.7.5-1 .2l-.1-.1c-.3-.2-.5-.6-.2-1zM477.7 62l-.7-4.5c-.1-.4.2-.8.6-.8h.2c.4-.1.8.2.8.6l.7 4.5c.1.4-.2.8-.6.8h-.2c-.4 0-.8-.2-.8-.6zM490.8 62.5l1.7-4.2c.1-.4.6-.6 1-.4l.2.1c.4.1.6.6.4 1l-1.7 4.2c-.1.4-.6.6-1 .4l-.2-.1c-.3-.2-.5-.7-.4-1zM465.3 58.6l1.7-4.2c.1-.4.6-.6 1-.4l.2.1c.4.1.6.6.4 1l-1.7 4.2c-.1.4-.6.6-1 .4l-.2-.1c-.4-.2-.6-.6-.4-1z" />
		<g>
			<path class="st6" d="M480.9 48.2h.2-.3.1z" />
			<path class="st7" d="M484.2 26.2H483.9l-.1.8h.3l.1-.8z" />
			<path class="st8" d="M484.2 19.3s-4 7-.3 7.3H484.2c3.9-.1 0-7.3 0-7.3zm0 7.1H483.9c-2.9-.3.2-6.2.3-6.2 0-.1 3 6 0 6.2z" />
			<path class="st9" d="M484.2 20.1c-.1 0-3.2 5.9-.3 6.2H484.2c3-.1 0-6.2 0-6.2zm0 6H483.9c-2.3-.3.2-5.1.3-5.1 0 0 2.4 4.9 0 5.1z" />
			<path class="st10" d="M484.2 21c-.1 0-2.6 4.8-.3 5.1H484.2c2.4-.2 0-5.1 0-5.1z" />
			<path class="st11" d="M484 45.8l1.6-10.6c-.8 1.2-1.8 2.2-3.2 3.1-1.4.9-2.5 1.1-3.2.9l-.9 5.7-.3 2c.7.6 1.6 1.1 2.7 1.2h.3c.9.1 1.8 0 2.7-.2l.3-2.1z" />
			<path class="st6" d="M482.4 38.3c1.4-.9 2.4-2 3.2-3.1l1.2-7.7-2.7-.4-.1.4h-.3l.1-.4-2.7-.4-1.9 12.6c.8.1 1.8-.1 3.2-1z" />
			<path transform="rotate(-81.436 483.945 27.186)" class="st6" d="M483.7 27h.4v.3h-.4z" />
			<path class="st6" d="M482.4 38.3c1.4-.9 2.4-2 3.2-3.1-.7 1.1-1.7 2.2-3.2 3.1z" />
		</g>
		<path class="st5" d="M477.6 46.1c.4 0 1.8 1 3.2 1.3 1.5.2 3.2-.2 3.5-.2.4 0 .8.4.7.8-.1.4-.9.5-.9.5s-1.7.5-3.5.2-3.2-1.3-3.2-1.3-.8-.4-.7-.8c.1-.4.5-.6.9-.5z" />
		<g>
			<path class="st12" d="M342.6 80.7l-15.8 1.9s-6 6.5-5.9 7.5c.1 1 1.7 2.3 2.3 2.2.6-.2 1.9-3.1 2.6-3.4.7-.3 9.5-1.4 9.5-1.4s8.9-1 9.6-.8c.7.1 2.6 2.7 3.3 2.7.7 0 1.9-1.6 1.8-2.6-.1-1.2-7.4-6.1-7.4-6.1zm-1.8 2.8c-.1.5-5.8 1-5.8 1s-5.6.8-5.9.4c-.3-.4 2.3-2.8 2.3-2.8l6.6-.8s3 1.7 2.8 2.2z" />
		</g>
		<g>
			<path class="st13" d="M324.7 37.2s-6.1-8.2-6.7-8.4c-.6-.3-3.9-.1-4 .7-.1.8 4 5.4 6.9 8.5M334 36.1s4-9.4 4.5-9.8c.5-.4 3.7-1 4-.3.3.7-2.6 6.1-4.7 9.9" />
		</g>
		<g>
			<path class="st14" d="M349.9 42.4c-.5-2.1-.9-5.8-2.2-6.9-1.2-1.1-14.9.3-18.5.7-3.6.4-17.2 2.2-18.1 3.6-.9 1.4-.5 5-.5 7.2s1.6 16.1 2 18.3c.4 2.2 1.4 9.6 1.9 11.5.5 2 1 5.2 1.7 5.7s3.8.5 5.5.3 7.7-.5 13-1.1c5.3-.6 11.2-1.7 12.9-2 1.7-.3 4.7-1 5.2-1.6.5-.6.3-3.9.3-5.9 0-2-.7-9.4-.9-11.7-.1-2-1.8-15.9-2.3-18.1zm-26.4 36.1c-2 .2-3.8-1.2-4.1-3.2-.2-2 1.2-3.8 3.2-4.1s3.8 1.2 4.1 3.2c.3 2.1-1.2 3.9-3.2 4.1zm21.3-2.5c-2 .2-3.8-1.2-4.1-3.2-.2-2 1.2-3.8 3.2-4.1 2-.2 3.8 1.2 4.1 3.2.3 2-1.2 3.9-3.2 4.1zm3.9-12.6c-.6 1.2-5.8 2.9-15.7 4-9.8 1.2-15.3.7-16.2-.3-.9-1-1.3-8-1.1-12s2.5-12.2 14.2-13.6c3.2-.4 5.8-.1 8 .6 5.8 1.8 8.2 6.6 9 9.4 1.2 3.8 2.4 10.7 1.8 11.9z" />
		</g>
	</g>
</svg>
